<mxfile host="app.diagrams.net" agent="Mozilla/5.0 (Windows NT 10.0; Win64; x64) AppleWebKit/537.36 (KHTML, like Gecko) Chrome/140.0.0.0 Safari/537.36" version="28.2.3">
  <diagram name="Page-1" id="n0hfhET1ci13XwUxuyb5">
    <mxGraphModel dx="3102" dy="1224" grid="1" gridSize="10" guides="1" tooltips="1" connect="1" arrows="1" fold="1" page="1" pageScale="1" pageWidth="827" pageHeight="1169" math="0" shadow="0">
      <root>
        <mxCell id="0" />
        <mxCell id="1" parent="0" />
        <mxCell id="g1v90EZW2xBQ1bl9iYu3-25" value="Integraci贸n Bus" style="rounded=1;whiteSpace=wrap;html=1;verticalAlign=top;fontStyle=1" vertex="1" parent="1">
          <mxGeometry x="1080" y="539" width="220" height="325" as="geometry" />
        </mxCell>
        <mxCell id="g1v90EZW2xBQ1bl9iYu3-1" value="IAM" style="rounded=1;whiteSpace=wrap;html=1;fontStyle=1;verticalAlign=top;" vertex="1" parent="1">
          <mxGeometry x="-520" y="450" width="890" height="750" as="geometry" />
        </mxCell>
        <mxCell id="g1v90EZW2xBQ1bl9iYu3-20" value="Drivers y Conectores" style="rounded=1;whiteSpace=wrap;html=1;verticalAlign=top;fontStyle=1" vertex="1" parent="1">
          <mxGeometry x="150" y="735" width="200" height="250" as="geometry" />
        </mxCell>
        <mxCell id="g1v90EZW2xBQ1bl9iYu3-2" value="&lt;b&gt;API REST - eDirAPI&lt;/b&gt;" style="rounded=1;whiteSpace=wrap;html=1;dashed=1;verticalAlign=top;fillColor=#fff2cc;strokeColor=#d6b656;" vertex="1" parent="1">
          <mxGeometry x="-195" y="680" width="280" height="360" as="geometry" />
        </mxCell>
        <mxCell id="g1v90EZW2xBQ1bl9iYu3-3" value="Crear Sesi贸n" style="rounded=0;whiteSpace=wrap;html=1;" vertex="1" parent="1">
          <mxGeometry x="-115" y="725" width="120" height="30" as="geometry" />
        </mxCell>
        <mxCell id="g1v90EZW2xBQ1bl9iYu3-4" value="Obtener Token" style="rounded=0;whiteSpace=wrap;html=1;" vertex="1" parent="1">
          <mxGeometry x="-115" y="775" width="120" height="30" as="geometry" />
        </mxCell>
        <mxCell id="g1v90EZW2xBQ1bl9iYu3-5" value="Consultar Atributos" style="rounded=0;whiteSpace=wrap;html=1;" vertex="1" parent="1">
          <mxGeometry x="-115" y="835" width="120" height="30" as="geometry" />
        </mxCell>
        <mxCell id="g1v90EZW2xBQ1bl9iYu3-6" value="Compare Password" style="rounded=0;whiteSpace=wrap;html=1;" vertex="1" parent="1">
          <mxGeometry x="-115" y="885" width="120" height="30" as="geometry" />
        </mxCell>
        <mxCell id="g1v90EZW2xBQ1bl9iYu3-7" value="Eliminar Sesi贸n" style="rounded=0;whiteSpace=wrap;html=1;" vertex="1" parent="1">
          <mxGeometry x="-115" y="935" width="120" height="30" as="geometry" />
        </mxCell>
        <mxCell id="g1v90EZW2xBQ1bl9iYu3-8" value="Valida Sesi贸n" style="rounded=0;whiteSpace=wrap;html=1;" vertex="1" parent="1">
          <mxGeometry x="-115" y="985" width="120" height="30" as="geometry" />
        </mxCell>
        <mxCell id="g1v90EZW2xBQ1bl9iYu3-10" value="&lt;b&gt;Identity Vault&lt;/b&gt;&amp;nbsp;&lt;div&gt;&lt;br&gt;&lt;/div&gt;&lt;div&gt;Metadirectorio central de Identidades&lt;/div&gt;" style="rounded=1;whiteSpace=wrap;html=1;verticalAlign=top;dashed=1;" vertex="1" parent="1">
          <mxGeometry x="-180" y="530" width="250" height="70" as="geometry" />
        </mxCell>
        <mxCell id="g1v90EZW2xBQ1bl9iYu3-12" value="" style="shape=image;verticalLabelPosition=bottom;labelBackgroundColor=default;verticalAlign=top;aspect=fixed;imageAspect=0;image=data:image/png,iVBORw0KGgoAAAANSUhEUgAAAgAAAAIACAYAAAD0eNT6AAAQAElEQVR4AezdBfwtW1k+8MOfbpBOJQQkpEFApLuVFqRVSkAEJJWUUEJCEQQE6VRKOiUlJQQBUZEuaQn9P1/uvdx77qkdM3vP3vs5n/c9a/b8Zr3rXc9a7zNrZtas+X97+q8IFIGpIXCMOPRz0V+MXiJ6zegto3ePPij68Ohjok+MPjX6zOjzoy+NvjL6+uhbo++OfiD6seinov8Z/VL0G9HvRX98uNq2z98c41h55GWDLTbZVoaylKlsPvCFT3zjI1/5zHd1UBd1SnGVIlAEpoJABwBTaYn6sa0IiLFTpXLniv5q9DrR20TvGX1k9K+jfxd9e/Rfol+JOjF/Lekno++Ivjz69OifRu8fvVf0rtE7RNm6edIbRq8bvXr0CtFLRy8WvUD0l6Jni54xeuroyaLHjx7zcLVtn785xrHyyMsGW2yyrQxlKVPZfOALn/jGR77yme/qoC7qpG7qqK7qrO4wgAVbsIERrGAGu7hYKQJFYHgE9uxpgI2Bam3uEgLHSGVPF71k9KbR+0ZdGbti/nS2fxD9cvTj0bdFXxb190ckvUf01tFrRy8VPWf0lNFtjEt1Ujd1VFd1VncYwAImsIERrGAGOxjC0t9hC2NYwxz2gatSBIrAIggIykXyNU8R2CUEnLgumgq78nW1+hfZfnXU1azb55/P9j9Gnx19SNTVrCvms2b72NHKYgjADoawhClsYQxrmMNeG2gLbaJttJG20maLldpcRWAHEFDFDgCgUC0Ce/YcKyCcJ+oK0xWpW9j/nN/fibp1/Z6knn372+9m+6pRV7PHS1pZDwKw1wbaQptoG22krbSZttOG2tLftK021tbr8bilFoEJIfD/JuRLXSkCq0LApLTLpTDPrj2vfl+2nSw+ktQVpitJk9jOm98njFY2EwFtpw21pTbVttpYW2tzba8P6Av6xGbWsl4XgbkROCxDBwCH4dD/txMBk9xMKLtRqvew6CuiZrmblPbGbJu9bsb6hbJ93GhlNxDQ1tpc2+sD+oI+oW/oI/qKPqPv6EO7gUpruXMIdACwc02+tRVG1BdO7e4UNWHMbeBvZ9uEsuclvXf0GlGz3JNUisA+COgb+oi+os/oO/qQvqRP6Vv6mL62T+buKAKbgsARfnYAcAQSTTcNAVdxXhm7Txz/h6j32P8p6eOjJoyZCOb1tvysFIGFEdCH9CV9St/Sx/Q1fU7f0wf1xYULaMYisC4EOgBYF/Itd14EPM+9UjI9OPrm6DejXhl7aNKrRE8crRSBVSCgr+lz+p4+qC/qk/qmPqqvrsKPllEEFkDgyCwdAByJRbemhYBJWd4Vt7CM1eiQ7Gvj4v2il4maAZ6kUgTWjoC+qE/qm/qovqrP6rv6sL68difrQBE4OgIdABwdkf5eFwJI0sSrJ8SBD0e/GrVanKVlrUbXV7cCSGUjENBX9Vl9Vx/Wl/VpfVsf19c3oiJ1cvsQOGqNOgA4KhrdXjUCZ0+BSPItSa38ZuLVHbN9vmhXeQsIla1AQF/Wp/VtfVxf1+f1fTGwFZVsJTYPgQ4ANq/NNtlj/c0yrj4c42Mz/5rKuE36a0k7szogVHYCAX1dn9f3xYBYEBNiQ4zsBAit5DoQ2LvMdra98eiv4RE4QUz6gMzTkn4xahlXH47xsZn8rBSBnUdALIgJsSFGxIqYETs7D04BGA+BDgDGw3aXLftQy28HAIuqWGDFJ2Rvld++8JakUgSKwAEQECNiRcyIHTEklsTUAbJ0dxGYDYGjH9UBwNER6e9FEThHMvpam0VT/ivbT45aVMUM6WxWikARmBMBsSOGxJKYEltiTKzNaaqHF4F9EegAYF9Mumd2BE6aQ12dvCPpJ6K+1mbRFJOe8rNSBIrAQAiIKbElxsSamBN7YnCgImpmuxHYt3YdAOyLSfccHAF95so55DlRzytdnVwi25XNQ+DHcZkmqWwYAmJO7IlBsSgmxeaGVaPurhOBdph1or9ZZfvsqo+k/Efcfk30JlG3KJNURkDgW7H5meh7o6+OPiv62KjFZn4vqc/felb8m9m+QdSCMz6L68t2l8pvV4u/nNQHbc6a9AxRz5ddMWo3sX/s7KO27fM3xzhWHnnZYItNtpWhLGUqmw984RPf+MhXPvNdHdQlRVVGQEC7iUUxKTbFqFgdoaia3GQE9ue7wN/f/u4rAhA4Wf77neg7o/8S9ZEUJ4dsVuZA4Cc59t+jnuG+KqkTpK/QeZ7r5Hn97Lts1LviJnsdJ9tOxmdLakGZqyf9rejdopaftSa9q79n5LervxclfXnUScCStG4PW7P+n7PP7eJ/S/r5qAVpnIz/J9v/Fz1CbNvnb45xrDzyssEWm2wrQ1nKVDYf+MInvvGRr3zmuzqoizqpmzqqqzqrOwxgARPYwAhWMDvCv6azISA2xahYFbNiVwzPlrtH7RwCHQDsXJMfssL6hHXOn5sjvxD9y+ivRCsHR+BL+fO7onBzFXa7bF8x6gToKu0Xsn3xqEldTpC/n23HOXm+ONsWhvlIUrd0f5R020Sd1E0d1VWd1R0GsIAJbGAEK5jBDoawdBxsYQzrbcNn6PqIWbErhuEmpsX20OXU3kYgsH8n2yH2j8su7j11Kv2gqNuIvnR242wj4SSVIPDf0Q9GvZ716KR3jl4zep6oj7+cNqnnsjdN6qr2qUnfEHULvM/ZA8ScAjPYwRCWMIUtjGENc9hrA22hTbSNNtJWcxa3tYeLYbEspsW2GBfrW1vhVmx2BDoAmB2rbT3S88K/SuXcdr1/UrcRk+ysfC819yEXmNwh2559W7vdrdQL5vevRy3hal33V2bbKm7yZLOyQgRgDnttoC20ibbRRtpKm2k7bagttak8K3RxckWJbTEu1mEi9ifnZB0aHoEDWewA4EDIbP/+S6eKPlTy8aRusbpSyOZOyedSWycQt5dvmG2EeOKkbp96fvoX2fbs+xtJK5uFgDbTdtpQW2pTbWtiow/yaHNzDrxfv1k1W95bsS7mxT4OwAXLW62FjUOgA4CNa7KlHNbeJl95jvrWWDKb2/vF2dxq+WFq59bw3yT1vPkKSU8ZPVPULWS3l1+Y7U9G/zda2U4EtK2JjS9I9bS5OQdnzLa+YK6BuwjPzG9f7jNnIZtbLWIfB+ACnIAbcMRWV3r3KnfgGrexD4zNNv3FmuK+RObDI050JlptU/2OXhfPOv82O135nT/piaJuDd8yqRnnb0xqmdUklSKwR18w18A8glsEjyP6zAWyffuotx3+M+k2C07ADTgCV+CMba5v6xYEOgAICFssJvuY9OOE6Dmpd7u3sbpuZXqmebNU7ucP15sntW9XruZS3cqACLhr9KHYM5Peegdnzra3E7yt8JRse9UuydYJjsAVOAN34JCtq+QuVehgde0A4GDobO7ffjGuO/mZ7GPSzynye1vE++HvS2VcyZv0ZeGac+e3q/1nJ0VcSSpFYHAExJP1CizB6wt+To6/kVIsfqRP6pv5uRWCM3CHOuMSnLIVFWsljkSgA4AjsdiGLSdDo3ezo03yMdln0+v1g1TAM0qLzHiX+eT5fZGoZ/le+7JwTX5WisDKEfhKSnxJ1OJH+qS+aaVEfVWf1Xfz540WHIJLcApuwTEbXaHdcv7gte0A4OD4bMpfjx9HTWr6dFLP746VdJPFVfwTUwEnfK90XSbblpl9bdJvRytFYIoI6JtWStRX9Vl9Vx/Wl/XpKfo8q084BbfgGFyDc2bN2+MmikAHABNtmBnd0n7WYjdxx1fCvOY0Y9ZJHWYpWsvNPiBemXjlOf6dsu2Eb4nabFaKwMYhoO/qw/qyPq1v6+P6uj6/cRWKwzgG1+Ac3IODsrsyRQQO5VMb71AITffvriw+EPeeFrXAR5KNErdHvYdtPXivYvngzINTAxOvklSKwNYhoG/r4/q6Pq/viwGxsGmVxTm4Bwfhok3zv/4GgQ4AAsKGiVeUXFVY2tOX2jbJfc9MfTzG5D3vXnsP23rwPj6zSfVYta/HTIGevZp4ZtGW6+W3Nx5uk9RrandNes+oSVuuzh6Z7cdFLYKDpE2O9IrX32effvOmpBbJcSWqL5ntjdCzu7IiBPR5fV8MiAUxITbEyIpcGKQYHKRP6Ue4aRCjNTIEAoe20QHAoTGayhGuGBDE++PQlaKbIr4q54T0q3HYGu5uG5q899383kWx+Iplas+Ryl8yaiGWWyd1AoeTE7bV2f4x+yxa4x11i9J8Ob9NxDK5zMQzs9Gtkf+k7PdGxCOSOpF7PnuPbP9e1BUmvK2hb5GXa2WfqzVf47Om/oXzW18ycPDVP4siZVdlxQiIBTGhrcSIWNEXxM6KXVm4OP0IN+EoXLWwoWZcHQIdAKwO60VLOkkyWrbUKnUWKdmENvtOfH561InGF93ulW0nNCuxZXOrxQn+9KmhdeitReCZLyx8StcrVU7mTupO7jBxsv/rHO8E7sTtJGBQYHBgkGCwwGYOGVXMYDeo4PuoBdX4QREQI/qFmBE7Ykj/EVMHzTiBP+ImHIWrcBbumoBbu+nCLLXWYLMc12PWg4CrtY+m6HtHpz7r1qQmq6lZKOU08ddV7VuS2p9kq8RJ2dWzq2onbVfhr04NLQ7z/aTWl397UsvKPjCpFQjNCreYjNv52TVJMWvdhLVJOreDTokdMSSWxJTYEmP2TxkOXIWzcBcOm7KvO+1bBwDTbH4jZ6uNebY29dtpZgN77ckqadZTdxW5LV9dQ7pXThdxkre0sAlPPjXrCt7zc8/V3ar1HN773z4mdNwcv8lyoU12fot9F1NiS4yJNTEn9qZcZdyFw3AZTpuyr1vm22zV6QBgNpxWeZRnaZ7H3naVhc5ZlpOg1cHc5nab2sInm/ye87FT//NFTax7VFITmr6YlHqv20necrBe49p2IvOIIlWvTBgBsSbmxJ4YFIticqou4zKchtum6uNO+tUBwHSa3fu11h138nGreDqeHeaJZ5NOhjfJTxOVLL1rJnl+bpRY4vTy8djqbSYsuar3fNU3A1xh/UH+hqhc/Wdz52QT23TnGukoFdZeYlFMik0xKlaPcsgkNnEabsNxuG4STm2rE7PWqwOAWZEa9zgnJCNkgTxuSfNbd+vRM263t93mfl5MbMp7y/q3rwDeJT6/OPq5qKWDPUc94stvruqPk/2VPXt88c6rg8Vi8xAQk2JTjIpVMSt2p1YTHIfrcN7UfNs5fxDkzlV6QhU+YXyxTOjrk1opLMlkxGtnZrAbuVsC9FOT8ezAjriV7/U2M6hfmcO+HvVqko+1eM+677oHkAOImdvXzd++Ga1sNgJiVcyKXTEslqdUI1yH83AfDpySb1vgy+xV6ABgdqyGPtLrPUbCd4jhVbzmlWJmEjPZfe1MkFq1zIS3mTKu4aATpExXEn+c1FW956BuiT48v68ePWl0l8TX6LyF4CT+pVTcs2ITxczGNhB6Z/Z5HdFt4pdn+0VRCwZ5dcsiLo7JrsqWICB2yWHMYgAAEABJREFUxbBYFtNieypVw3m4Dwfiwqn4tVN+dACw+ub2iszjU+wbo2eJTkW8bmShGJ/WNWvXLcWp+HaEH54dOrE7wTvRO9E58f9RDjAQgG02N1asHe8VQkvGqtfzUxNXSV4lvHO2PeM1P8FjDTPBPff1SqKrKB9roQZF3un3N8Rvoth5k9dri9YWuFy23Sa21sANsm0VQa8rTrG9415lAAS0rZgW22JcrA9gdhATOBAX4sRNj99BAFnWyDz5OwCYB63lj3UL2kpu3rU2Al7e4nIWXDE6yVib3Cj8FTE3tXeMncTgZQKR5/du7bvF71a/W/5xefLiK3EmGb4snpp78PtJvdNtMAN7JGhwc7zs9+qUeQle97pxfqu7OxxPyLZnvG6dfjDbFhVylf+NbHvWqy2zWSkCB0RAbItxsa7fif0p9BtcqJ/jRhx5wAr0D8Mi0AHAsHgezNrF8sf3Ri8SXbe4InDr9+xxxEnGO+3ZnIQgA1hZ096V8GfjlasDV75Tnaz34/j4maiTsysti6DAVT2s4e/VQbfYreF/9xxn6V5vHFg8CPbq6E2E/KlSBFaCgH6nj+IAXIATVlLwQQrBjThS3BzksP7pwAjM95cOAObDa9GjvUPuttvpFjUwUD6vB7nd67awW79OPAOZXsqM29ZuSTt5+kjKu2PNmvY+NJLNSYgrJc9QXxBvvIPt3WaPHVy9u3K3bKtBimetHlG4ukJm7lokS6UITBIBHIALcAJuwBHrdBRH4kqcuU4/dqLsDgDGbWb4/kmKsIqck0Q21yavS8meA5vw5XWv/FyrCHQnS5PRnCStie+k6tn1Wh1L4SYTvi2p2+63S+qKxC16X+O7UX5bhc36/b6qh0ANDrK7UgQ2FgGcgBtwBK5YZ0VwJc7EnTh0nb5sVNnzOltw50Vs9uOdMDzz/cPZs4xypFm2Jn1Z0taz41EKmdGoCWteT3pXjjfZ7clJfYFuXZN/PBP1ypQ1Arwu5TU4V/TWxP+1+GbinS/uuZI3uz67KkVgqxHAEbgCZ+COdVYWd+JQXLpOP7a27A4AxmlaJxGvXJlxO04Jh7bqBOsjIiaUee3r0DnGOcJEPbf3nWS/kCJcVV88qWf9SVYqn05pvqxm7X4z4j2b/8Xs81Efr0u5C+GKPrsqRWCnEcAZuAOH4JJ1gYFDcSlOXZcPG1Lu/G52ADA/ZofK4atvrhjPc6gDR/q7GeduUTuxOdmt65mej8pYgAd5OLFaiGeVk/hc3Xv/3cp2Xp8zu9iEJ4RmOVKk0ol3I3XCmt0KBHAHDsElOAW3rKNiuBSn4tZ1lL+1ZXYAMGzTWubS8zPrzQ9r+dDWzET3zrjJaCapreOWtef61tJ36/B9cdkSvGbBZ3N08RzezGav2bmVr1zvv1tsxOtzJheO7kQLKAJbiAAuwSm4BcfgmlVXE6fiVhy76rI3orxFnOwAYBHU9p/HF+NcWbrlvf8jxtvrxGdxGO/SfmW8YvZr2YQdE+Nelb+aSORrek68+TmqWDTHRD3E5HmlxW+82+w1O3ccrII2qgM1XgR2DAHcgmNwDc5ZdfVxK47FtasueyvL6wBgmGb1/Pgew5iay8oPc7TX5X4l6UeiqxRX+2bpurJ2hX21FH7M6JjiYz4IwAI6R0zUc2vS88p13Z4cs761XQSmiACuwTm4Bwet2kdci3NXXe6Ey1vMtQ4AFsPtqLks+uIkdNR9q9g2Avec/WEpzO3vJCuR86WUZ0RNljNL15V3fo4inuOrp6V+1fVMKcUEPgvoTGHhkrhTKQI7iQDOwT3iUoyuGgSci3tXXe5WldcBwHLN6Rm3IFjOyny53fq+T7IYgZvkls2ViEVu/iElWdLW+8JjTejzvNFypdYIsCyu2/oPSrkfiFaKQBGYFgI4CBfhJNy0Su9wLw5eZZmTLGtRpzoAWBS5PXssEGOW++IW5s9pJuyFks2tdyPwbI4qnrlZs96SvNbiv8pIpXk90CqAXhc02cerP357vDBSkTVbBIrAQAjgIpyEm3DUQGZnMoODcfFMB/egvRHoAGBvPGb9dbMc6Fl0kpWIkbXbXT6A87EVlOj5ug/u/FvK+pvoGEvyfj12zSh29eAVPVf8VgV0ByB/qhSBIrBhCOAmHIWrcNaq3MfFOHlV5U2snMXd6QBgfux+I1k8A18Vdp6vGVlbX95IO8WPJq6+/zTWzeZXnhNzfg4mP4qlv4/C0CRCM4qt++9Zf3ZXikAR2HAEcBTuwFm4axXVwcU4Ga+sorytKQNwW1OZFVTkGinjudGxZ7uniJ+Kq+9fzZaRdZLR5LixbGatZXG9Rnei/B5SPL/3wREDiuvE8Eui65g9nGIrRaAIrAABnIW7cNgKituDk3Ezjl5FeZMpYxlHOgCYHb0r5NAXRT0XTzKqWIHLgjq3TClj3kqzHK+vbn0i5Xi31q3/bA4iX4wVdxM8PnA18Lj89h5xkkoRKAI7gADuwmG4DKeNXWXcjKNx9dhlbYX9DgBma0Zfg7O4jEVvZsux+FG+ROcDOX+2uImZcl4uR7lF56tbP5/tIcRVvc/gek/fDH53FawKOITt2igCRWAzEcBlOA23jV0DHI2rcfbYZU3A/nIudABwaPx8MMZCNyc89KFLH/GvsWBSnPfcszmKWFfba3ZvjHVX5kmWlm/EgldyDCRunG3+exaYzUoRKAJFYA9OwG04bmw4cDXOxt1jl7XR9jsAOHTzmWG6ii9RWefaV/L+5dAuLXSESXd/lZxe6RvqOZm3BH4vNi3QY1Uwt/3zs1IEikAR2AcB3IbjcN0+fxx4B87G3QObnZa5Zb3pAODgCHp+5UtyBz9q+b96Pm4pXVfSy1vb24I2NgHPyNv7sibL7H3E/L/ekyw3jPpK2OOTfjdaKQJFoAgcCgEch+tw3qGOXfbvuBuHL2tna/M7OWxt5Zas2BEntyXNHDS71+JumyOcoMe4ZX7O2PbBnMckdVssycLiVT2v8P1aLBjFvzDpGD7HbKUIFIEtRgBv4DzchwPHrKoLFFw+Zhlrsr18sR0A7B9Dy9x6pWTo1+GOWtqP88NX9P466dDiKt8EvA/G8CWjy4g19z06+KUY8QqfAUU2K0WgCBSBpRDAfTgQFy5l6CCZcTgux+kHOWw3/9QBwP7b3YS2C+//T4PsNQK2ctVLB7G2t5Fz5+c7ol7rMyM2mwuJ13a8w2v0/Dux4FXBJJUiUASKwGAI4EBciBMHM3o0Q7gcpx9t92b/HML7DgD2RfHK2fX70bHEifXWMe51uSSDybFiyRKc70+67Cswb4gNQeP52eeyXSkCRaAIjIUALsSJuHGsMnA6bh/L/kba7QBg72Y7dX4+M2qBnCSDi+forqaVMaRxn+h9Vwwa5VrVL5sLiS97eYf/isnt8UGSShEoAkVgdARwIm7EkWMUhtOVgePHsL9im8MU1wHAkTjqINaTPs2RuwbfunMsPjU6pNwmxizo44o9mwuJr/F5Q+D8ye193SSVIlAEisBKEcCNOHKsQnE7jsf1Y5WxUXY7ADiyuXyNzuspR+4ZdstymL5+N5RVt/yfEGOCZtEJLl7fe2BseM7PzpjP4VJMpQgUgSJwUARwJK486EFL/BHH4/olTKw/61AedABwGJImy/3RYZuj/G+RHMthDmX8VDH0+ugdo4uKNbOd+P84BgwEklSKQBEoAmtHAFfizLEcwfU4fyz7G2O3A4DDmur2SayUl2RwMaL1bH4owxeMIbf8L5N0EflaMlmu9wZJ3fpPUikCRaAITAoBnIk7x3AK1+P8MWyvwOZwRXQAsGePBXL+cDhI97JkIt3d99qz3A8n7n+MiTNHFxEfyfAtALNuF8nfPEWgCBSBVSGAO3HoGOXhfNw/hu2NsdkBwJ49d0prjTEz9Duxa5ELn8TM5lKinR4RCxa0OH7SecXymzdPputGvxStFIEiUASmjgDuxKG4dGhfcT7uH9ru6PaGLMCJZUh7m2brxHHYinlJBpc7xOIno8uKNrIgzz0XNPSq5Dtv9G+jlSJQBIrAJiGAQ3HpGD7jfueAMWxvhE0nl41wdCQn7xK7p4gOLU7YzxrAqPZ5euxYKSvJXGLUbHENX/77/Fw5e3ARKAJFYDoI4FKcOrRHuN85YGi7I9ob1rQTzLAWN8faSeOqZ0xJBhVL5i4zO/8IZ7yraq3s3zpixxzpv+fYS0UNHpJUikARKAIbjQBOxa1DV8I5wLlgaLsbYW+XBwCWhjzZwK10xDOrZV+rc/J/SnyzFG+SucQkwYslx4ejlSJQBIrANiCAU80HwLFD1sc5wLlgSJuj2Rra8K4OAH4uQN41OrQYTX5oSaNO/k+ODSv8JZlLrHJ1+eT4crRSBIpAEdgmBHArjh26Ts4FzglD2528vV0dAFhp6iQDt44r7icNYJMNy/LOY8pHNExouVUy/TBaKQJFoAhsIwL4EdcOWTfnAueEIW2OYGt4k7s4ADhmYFzk6jrZDir3y1+X/ZCFkejvxs488u0cfO3on0YrRaAIFIFtRgDH4tqh6+ic4NwwtN1J29vFAYAv3XkHdMiGeWeMvTy6jFw8mR8ZnUe+mYMvF31ltFIEikAR2AUEcC3OHbKuzgnODUPaHNTWGMZ2cQBw0xGAXHbdas+fXhC/jh2dVb6VA68afV+0UgSKQBHYJQSW5dz9YTXGuWF/5Uxm364NAHwA4noDo/+62HtTdFEx6c87rvMs7+sd/6unwHdHK0WgCBSBXUMA5+LeIevt3OAcMaTNgWyNY2bXBgDXDIxDr/y07EjU5D1+xbWZ5Hs5yvFe98tmpQgUgSKwkwgsy71HB825Abceff/W/t61AcCvD9ySL42990YXlUsm40Ojs8oPcuB1om+JVopAESgCu4wA7sXBQ2Iw9DliEN/GMrJrA4DLDgzkHy1hz63/Jyb/saKziiWBXz/rwT2uCBSBIrDlCCzDwfuDZuhzxP7KmMy+XRoAnCOony46lHwshv45uqj8ZjJeIDqrPCYHvjhaKQJFoAgUgcMQwMG4+LBfy//vHOFcsbylwSyMZ2iXBgCXGRjGly1h77jJ+5DorOKVl3vNenCPKwJFoAjsEALLcPH+YBr6XLG/MiaxrwOAxZvh7xbPuufOyfvz0VnkaznIGtg/SlopAkWgCBSBvRFYhov3tnTYr0kNAA5zaZz/OwBYDNfPJ5sJKEnmlpMnx32is4hVr26eA/8zWikCRaAIFIF9EcDFOHnfvyy2pwOAxXCbbC4L7ZxxQO/+PracnJPMLT5mYRAwS0afA371LAf2mCJQBIrAjiKAi3HyUNV3rnDOGMreEnbGzbordwCGntSxzDOnm8zYpNb4H2PN6xmL72FFoAgUgY1BYBlO3l8lhz5n7K+Mte/rAGD+JrAEr1Wo5s+5Z88Fk+ms0VnEJMEvzXJgjykCRaAI7DgCOBk3DwXDJAYAQ1XmQHY6ADgQMgfe/+b86YfRReQ3Zsz0mRz3uGilCDejJQYAABAASURBVBSBIlAEDo0ATsbNhz5ytiM6AJgNp404asjG/OwSNb7+jHkfkOP+J1opAkWgCBSB2RBYhpuPXsKQ54yj257x9/iH7codgFlvu8+C+H/NctB+jjlP9p0zeihxG6sL/hwKpf69CBSBIrA3Aoty895WDvs15DnjMIsT/H9XBgCzzrqfpYkW7WTW/Z/F/otykDX/k1SKQBEoAkVgRgQW5eb9mR/ynLE/+4fct4oDdmUAcJIBwfzcgrbONGO+Z814XA8rAkWgCBSBIxFYlJuPtHDk1pDnjCOtTmyrA4D5G2TRUeYsA4Dvxp1+6S8gVIpAESgCcyKwKDfvr5g1DwD259Lw+3ZhAGDd/eMMCN2inWyWAcCn4qdFLZJUikARKAJFYA4EFuXm/RXhnOHcsb+/bc2+XRgADDmS+3pa/vvRRWTWAcAitpunCBSBIrDrCOBmHD0UDkOeO+byaVUH78IA4AQDgml1vkXNHX+GjO4AzHBYDykCRaAIFIH9ILAMRx/d3JDnjqPbnsTvXRgAHGNApE+7hK2PzJD3n2Y4pocUgSJQBIrA/hFYhqOPbnHIc8fRbR/k9+r+tAsDgCHR9EzolAsafPYh8n05f39DtFIEikARKALzI4CbcfT8OXc0RwcA8zf8GebP8tMcBgDP++nWvv/9KLtuHf1GtFIEikARKALzI7AoN89f0og5Vmm6A4D50T7j/Fl+luOm2fq96Mej/xv1vOp1SS8SfWW0UgSKQBEoAoshsAw3L1bihufqAGD+BlxmlOkVv8enyHNHTxw9afTK0Q9HK0WgCBSBIrA4Astw8+KlDppztcY6AJgf76E62fdStAFBkkoRKAJFoAgsicBQ3LykG5uTvQOA+duqt5nmx6w5ikARKAJjI7Dx3Dw2QEe33wHA0RE59O/zHvqQHlEEikARKAIrRqDcPCfgHQDMCVgOv2j0dNFKESgCRaAITAMBnIybp+HNQl6sPlMHAPNjbnGIa8+frTmKQBEoAkVgJARwMm4eyfx2mu0AYLF2ve5i2ZqrCBSBIlAERkBg4zl5BEwOabIDgENCtN8DLp+9XuNLUikCRaAIFIE1IoCLcfIaXdjMojsAWKzdfCryaotlba4iUASKQBEYEAFcjJMHNLlqU+sprwOAxXHvLafFsWvOIlAEisBQCJSLF0SyA4AFgUu2q0ePHa0UgSJQBIrAehDAwbh4PaUPVOq6zHQAsDjylvG9yeLZm7MIFIEiUASWRAAH4+Ilzexm9g4Almv3ByZ7nz0FhEoRKAJFYMUI4F4cvOJihy5uffY6AFgO+19I9ttFK0WgCBSBIrBaBHAvDl5tqVtUWgcAyzfm/WLiBNFKESgCRaAIrAYBnIt7V1PaiKWs03QHAMujf9qYuHO0UgSKQBEoAqtBAOfi3tWUtqWldAAwTMPeK2Y6ESUgVIpAESgCIyOAa3HuyMWswvx6y+gAYBj8Tx4z94hWikARKAJFYFwEcC3OHbeUHbDeAcBwjXyXmDpNtFIEikARKALjIIBjce041ldsdd3FdQAwXAucKKaeHu0XqQJCpQgUgSIwMAK4Fcfi2oFN76a5DgCGbXdrUt99WJO1VgSKQBEoAkEAt+LYbG6DrL8OHQAM3wYPi8mLRStFoAgUgSIwDAI4FbcOY61WfopABwA/hWHQ/6xN/bxYNFM1SaUIFIEiUASWQACX4lTcuoSZaWWdgjcdAIzTCmeJ2b+KVopAESgCRWA5BHApTl3OSnPvg0AHAPtAMtiOG8bSb0crRaAIFIEisBgCOBSXLpZ7srmm4VgHAOO2w2Nj/rzRShEoAkWgCMyHAO7EofPl6tEzI9ABwMxQLXTg8ZPrhdFTRCtFoAgUgSIwGwI4E3fi0NlybNBRU3G1A4DxW+JcKeJ10ZNFK0WgCBSBInBwBHAlzsSdBz+yf10KgQ4AloJv5swXzJGviZ4kWikCRaAIFIH9I4AjcSXO3P8RG793OhXoAGB1beE91leluBNGK0WgCBSBIrA3ArgRR+LKvf/SX6Mg0AHAKLAe0Oil8pdXRPtcKyBUikARKAKHI4ATcSOOPHzXdiZTqlUHAKtvjcumyJdFjxutFIEiUAR2HQFciBNx465jsdL6dwCwUrh/VtiVs/WiaFe2CgiVIlAEdhYBHIgLceIOgDCtKnYAsL72uGaKtrzlcZJWikARKAK7hgDuw4G4cNfqPon6dgCw3mb49RT/puhpopUiUASKwK4ggPPemMriwCS7IVOrZQcA62+RS8aF90YvFK0UgSJQBLYdAVyH8zrhb80t3QHAmhvg8OLPlPTt0RtFK0WgCBSBbUUAx+E6nLetdTxAvaa3uwOA6bSJ12A8D3toXDpGtFIEikAR2BYEcBpuw3G4blvqtdH16ABges13n7jklZgTJ60UgSJQBDYdAVyG03DbptdlYf+nmLEDgCm2yp49145b74yeNVopAkWgCGwqAjgMl+G0Ta3D1vrdAcB8Tfu1HP6V6CrkPCnERJkrJq0UgSJQBDYNAdyFw3DZKnzHzTh6FWXNWcY0D+8AYL52+WoOv1z0S9FVyM+lkNdG/zx6gmilCBSBIjB1BHAVzsJdOGwV/uJk3IyjV1HeVpTRAcD8zfjRZNHRvph0FWLyzJ1T0Iejl45WikARKAJTRQBH4SqchbtW4Scuxsm4eRXlzV3GVDN0ALBYy3w82axb/fmkq5KzpaC3RB8bNcJOUikCRaAITAIBnISbcBSuWpVTOBgX4+RVlbk15XQAsHhTfiJZLxP9XHRVYkR9lxT2oeivRitFoAgUgXUjgItwEm7CUavyB/fiYFy8qjIXKGe6WToAWK5tPpXsOuB/JF2lnD2FGWk/OmnfqQ0IlSJQBFaOAO7BQbgIJ63SAZyLe3HwKsvdqrI6AFi+OT8TE25B/XvSVYq2u1sKNPLukpoBolIEisDKEMA5uAcH4aKVFZyCcC3Oxb35OW2ZsnerbrgpY7GMb/+WzEaj0myuVH4xpb01+pjoyaKVIlAEisBYCOAYXINzcM9Y5RzILo5dF9ceyKeN3d8BwHBNZ1SqY356OJMzW9KOd83Rbod5Duczm/lZKQJFoAgMggBOwS04BtfgnEEMz2EEt+JYXDtHtnUeOu2y19GI00ZkOe/+M9l/Jfqm6DrkFCnUTNyPJb1htFIEikARWBYBXIJTcAuOWdbeIvlxKm7FsYvkb579INABwH5AWXKXhSiuHBuCJclaxGs4z0/J74qaoZukUgSKQBGYCwHcgUNwCU6ZK/OAB+NSnIpbBzQ7vqmpl9ABwDgt9OOYNTnmZkm/H12XXDwFvy360ug5o5UiUASKwKEQwBU4A3fgkEMdP9bfcScOxaU4daxydtZuBwDjNv2zY95s2XU/s7pu/PhI9EnRU0crRaAIFIGjI4AbcASuwBlH//sqf+NM3IlDV1nugGVN31QHAOO30QdSxIWjb4iuU46Vwm8fNYnnfklPGK0UgSJQBHABTsANOAJXrBMVXIkzcec6/dj6sjsAWE0T+0LVVVLUn0XXLSeOAw+OWkjjIUlPE60UgSKwewiIfRyAC3ACblg3CjgSV+LMdfuyVPmbkLkDgNW10k9S1B9Ebxr9XnTd4itd940TbrU9Nem5o5UiUAS2HwGxLubFPg7ABeuuNU7EjTgSV67bn50ovwOA1Tfzc1PkJaNTWcXquPHlNlHP/V6R1Fe1klSKQBHYMgTEthgX62Je7E+hirgQJ+LGKfgzgA+bYaIDgPW0kyU0z5+iTbj5v6RTEB/xuEYceWP0n6I3ia77WWBcqBSBIrAEAmJYLItpsS3GxfoSJgfLivtwIC7EiYMZrqHZEOgAYDacxjjqOzF6x6hRuck32ZyMmIDznHhj5S2v4Ezh2WDcqRSBIjAjAmJW7IphsSymZ8y6ksNwHu7DgbhwJYWuqpBNKacDgPW3lC9p/XLcsL72/yadkpw5zvjal9W3HpHts0QrRaAITBcBMSpWxazYFcNT8hbH4Tqch/um5NvO+dIBwDSa3IIXvx9XrLz18aRTk5PGoXtGXU28OemtoieKVopAEVg/AmJRTIpNMSpWxez6PdvbA9yG43Adztv7r1vza3Mq0gHAtNrqnXHngtE/iU5x5SvPDn2M42nx70vRZ0avELU/SaUIFIEVISDmxJ4YFItiUmzavyIXZi4Gl+E03IbjZs7YA8dFoAOAcfFdxPr/JNN9oj588eGkU5UTxLGbR18f/WzU+8Tr+Dxoiq4UgZ1BQIyJNTEn9sSgWJwqADgMl+E03DZVPwfza5MMdQAw3dZ6X1y7SPSPoz+KTlk8Z/Q+8Sfj5D9Gfzs6xVuQcatSBDYOAbF0u3gttsSYWBNz2TVZwVm4C4fhssk6usuOdQAw7dYXRA+MixeIvjK6CeJ93ifH0S9GvddrVa9jZrtSBIrA7AiIGbEjhsTSXyWr2EoyecFVOAt34bDJOzycg5tlqQOAzWivj8XNa0a9NuN93mxOXo4XD28c/Yfol6PPit4g6vWkJJUiUASOhoDYECNiRcyIHTEklo526CR/4iYchatw1iSdrFNHItABwJFYbMKWWb4Xi6MW9vi3pJsilhr1Wc8XxOGvRl8T9f7v1G9jxs1KERgVATEgFsSE2BAjYkXMjFrwgMZxEU7CTThqQNObZWrTvO0AYNNabM8eq2c9L26fK+p1mq8n3SQ5Tpy9cvQJUWuR++KXW4UWKpniDOa4WSkCgyGgj+vr+ry+LwbEgpgQG4MVtAJDuAcH4SKchJtWUGyLGAqBDgCGQnL1dn6YIi2ocbakj4z+ILqJ4lnhA+K424cWL/mLbF89OpV1yuNKpQgshYC+rE//Zazo4/q6Pq/vZ9fGCa7BObgHB+GijavE8A5vnsUOADavzY7u8Tez417Rc0S9E2ylrWxupJwhXv9u1CSiryV9SfR3or8UdeWUpFIENgIBfVbf1Yf1ZX3ab318IyqwHydxC47BNTgH9+znsO7aFAQ6ANiUljq0n64sbpHD3F70PDGbGy0njPfXi7pqMqHIpKiX5rdbjl4t8pGT/KwUgbUjYMa+PmntfSf8r8QjfVbf1Yf15ezaaMEpuAXH4JqNrswYzm+izQ4ANrHVDu7zB/Pnq0YFq1eIrMKVnxsvp0wNrhv9s+h7o9+IvjZ6/6gV0DZlpnTcrWw4Avrar6UO94s6MboS1ietve+Er6/mTxsvuAOH4BKcgls2vlKtwJEIdABwJBbbtvX+VOim0bNHHxvdti9uWf/8SqnXg6JmHv93UgulWHLU81aLp2RXpQgsjcBJYuFq0YdF3xZ1wvchmwdn2+Q9fTGbWyO4AmfgDhyCS7amcuNUZDOtdgCwme02j9dmGbs1eaZkunf089FtFDOoLZTyh6mc561mKLtiManQvIJLZP823IpNNSojImBZ3YvHvuf1T0rq5Odu06uyLX58zMakvvzcOsEN4gdX4AzcsXWVbIWORKADgCOx2PYtVy0PTyV9LtRKkjmvAAAQAElEQVSXwz6a7W0Wffv8qaCTv0HAO7L9railVF+Y1HKqFixBdvlZ2UEEzpg6XyNqnXrv338i29+Ovivq+f3tk/qAjb6Uza0VXIATcINPCeOKra3sGBXbVJvb3rE3tV3G9NsrO89IAeeLulX+xqS7Ivq7j6lcPxX2QZWXJ/2PqFnacPBKk0lOXs9yRyF/qmwBAtpSm2pbz+nfkDpZdMdktldk+6FRK/CZ3a6P5OdOiD6PA3ABTsANO1HxVvIwBHapsx9W4/5/BAIW7Xh1fvikqEk+JvuY9JNdOydWXbOE6V1Tc0RogRbPQT+U3157cuvXkqxuDZ86+yrTREDbaCNtpc20nTbUltpU27q1ffm4f4roLooYF+tiXuzjAFywi1gMVOfNNdMBwOa23ZCee85pso+FPXzBy9KeQ9rfRFvHjtO/HL151OQvpOnW8Jfy2wnlI0ndQfjzpE4q3lDwyMGEseyqjIAAbGEMa5jDXhtoC22ibbSRttJm2k4bassR3Nkok2JabItxsS7mN6oCdXZ4BDoAGB7TTbbodrglSpHEZVMRV0yINZuVoyBgMuF58tscgjsndVvZGgUmHXobwSMFq72Za2DFNM+SvUblebI5ByaaJVvlKAjABDYwghXMYAdDWMIUtjCGNcxhrw20hTY5irluBgGxK4bFspgW22I8f6oMhcAm2+kAYJNbbzzf3RL0mpOJQadNMbeMetXO/mxWDoGARwpusZprcI8caza5W62uuhDwd7Pve1Hbbk2/LtuuWq0J7yrNic3HVbzmeKH8zQdjnCCzuRHCVz7zXR3URZ3UTR3VVZ3VHQawgIltGMEKZrCDISxhuhGVX7OTYlSsilmxK4bFsv1rdq3FTw2BDgCm1iLT8wcx/03c8oz8rEn/KPqZaGU5BI6f7K54TU67YrY9t/ZVOPi6tf2c7LPQ0fuSeh1LO3w/2yaumbXt5Ol291uz7/VRrz66MvZRFs++n5p9T4ya2Ghmt/USLFxzz+y7S9QV9m2SUtv2+ZtjHCuPvGywxSbbylCWMpXNB77wiW985Cuf+a4O6qJO6qaO6qrO6g4DWMSVyhIIiEn4ilGxKma1wxImm/XQCGz2ER0AbHb7rdr7z6ZAJwcLhFh97+n57TZjksoKELACnVfXzp2ynDxNeLt0tk3mMpvbs/Eb5bdn307sd8i2iY1O7FZMtHCNE7tFXlxhO7FT2/b5m2McK4+8bLDFJtvKUJYylc0HvvCJb3xMsZUVICD2xKBYFJNiU4yuoOgWsQ0IdACwDa24+jq4nejq79Yp2m1Gr1e9Kds+FpKkUgSKwEgIiDGxJubEnhgUi2JypCJr9kAIbPr+DgA2vQXX77/bjG4Pe7XqdHHH1eLfJfVcN0mlCBSBJREQS2JKbIkxsSbmxN6Sppt9lxHoAGCXW3/4uvti39Ni1m1i71lfK9tPiX4hWikCRWB2BMSM2BFDYklMiS0xNruVHjkiAptvugOAzW/DqdbgB3HMKmu/nfQMUc+Krbj2z9muFIEisC8CYkOMiBUxI3bEkFja9+juKQJLItABwJIANvtMCHg++Z4caYa5hVnMVDbr3JKsP8r+ShHYRQT0fTEgFsSE2BAjYkXM7CImG1PnbXC0A4BtaMXNq4NVybwW5lUwy7damcwrZr7gt3m1qcdFYHYE9HF9XZ/X98WAWBATs1vpkUVgAAQ6ABgAxJpYCgFfHrMwjMViThlLPkziXfHnZ9tz0CSVIrCxCOjD+rI+rW/r4/q6Pq/vb2zFdtvx7ah9BwDb0Y7bUgu3Pa3r7r10i8WcPhXz9T6vOlnS1GIn2VUpApNFQB/VV/VZfVcf1pf1aX1bH5+s83VstxDoAGC32nsTa/upOG2xE0uaWs/cYjOuoP4i+60+V0INEJW1IKDv6YP6oj6pb+qj+qo+q++uxbEWOi4C22K9A4Btacndqcd/paqeoVqh7rzZPlX0elEfh/HRmJ9ku1IExkBA39LH9DV9Tt/TB/VFfVLfHKPc2iwCoyDQAcAosNboChHwlbiXpby7Ry8aPVH0IlGLpphc5UMo38jvShGYBwF9Rt/Rh/QlfUrf0sf0NX1O35vHZo/dCgS2pxIdAGxPW7YmhyHgnWkfobFoiterLpvdviT380ktquI1qxdm+5NRy6omqewwAvqAvqBP6Bv6iL6iz+g7+pC+pE/pWzsMVau+bQh0ALBtLdr6HAgBn5q1qIqFVm6Yg84ZPXH0V6IWXPHVu7dn+1vRynYioG21sbbW5tpeH9AX9Al9Qx/RV7YTgdZqaQS2yUAHANvUmq3LvAhYY/3dyWTJ1Tsl9XW7kyW1KMs1k9r3Z0lfHH1/1G3hJJUJI6CNtJU203baUFtqU22rje3T5tpeH5hwdepaERgPgQ4A5sP2WPMd3qM3EAEzuy3K8sr47krxD5JeP3rhqNvCJ03q87fWZr9btj0j/vuklnH9dtLKuAjAGNYwh7020BbaRNtoI22lzbSdNtSW2lTbjutdra8bgZE5et3VG7b8DgDmw/O08x3eo7cQAbeRP5R6+TrbY5N6RnydpJZxPUlSC72YKHaDbN8z6v3vlyQ1ocwrY1/MtiVgk1SOggBMYAMjWMEMdjCEJUxhC2NYwxz22kBbaBNtcxST3dxBBMrRczR6BwBzgJVDTxh1GzFJpQjsFwEzw70q9qL89VFRK8D9RlITyrwy5nOux8lvV6veGb9Ytq8evXnU1exDkv5l1KS0Nyb9cNTrZf+TdFOEr3zmuzqoizqpmzqqqzqrOwxgARPYwAhWMIMdDGEJU9huCgb1c/UI4GYcPVrJ22a4A4D5W9RXuubP1RxFYG8EXK1aNe692f3q6N9GXc3eP+ntoyalXSHp+aMWmDleUq+h6X9nyfa5oq6EXRlfKtuXj141eu2oK+bfTGo1ut9N6kr5HknNcn9Q0odHHxN1e5zats/fHONYeeRlgy022VaGspSpbD7whU984yNf+cx3dVAXdVI3dVRXdVZ3GMAi7lSKwFII6H9LGdi1zB0AzN/iiG3+XM1RBJZH4Lsx8fnoZ6OfiHoW7sr4Hdl+U/Q10ZdHXTE/J6nV6J6c1LPyP01qlvsfJb139PejJsNR2/b5m2McK4+8bLDFJtvKUJYylc0HvvCJb3yM6UoRWDkCI3PzyuszeoEdAMwPcUeZ82PWHEWgCBSBsREoN8+JcAcAcwKWwzvKDAiVIlAEisDEEBiVmydW10Hc6QBgfhg7ypwfs+YoAkWgCIyNQLl5ToQ7AJgTsBxuwlOSShEoAkWgCEwIgRG5eUK1HNCVDgDmB/OSyWKxkSSVIlAEikARmAACOBk3T8CVzXGhA4D528pKU9eYP1tzFIEiUASKwEgI4GTcPIr5bTXaAcBiLWsVssVyNlcRKAJFoAgMjUA5eQFEOwBYALRkuUr0uNFKESgCRaAIrBcBXIyTR/Jie812ALBY21rt7IqLZW2uIlAEikARGBABXIyTBzS5G6Y6AFi8nXvLaXHsmrMIFIEiMBQCo3LxUE5O0U4HAIu3yrWS9RjRShEoAkWgCKwHARyMi9dT+oaX2gHA4g3os5O+aLa4heYsAkWgCBSBZRDAwbh4GRsHybvdf+oAYLn2fUiyG4EmqRSBIlAEisAKEcC9OHiFRW5XUR0ALNeeF0h2nzpNUikCRaAIFIEVIoB7cfBoRW674Q4Alm/hB8dEF6AICJUiUASKwIoQwLm4d0XFbWcxHQAs366/GBO3ilaKQBEoAkVgNQjgXNw7Ymnbb7oDgGHa+AExc7xopQgUgSJQBMZFANfi3HFL2QHrHQAM08hnjJk7RCtFoAgUgSIwLgK4FueOWsouGO8AYLhWvndMnThaKQJFoAgUgXEQwLG4dhzrO2a1A4DhGvyUMfXn0UoRKAJFoAiMgwCOxbXjWP+Z1d3Y6ABg2Ha+ZczdLFopAkWgCBSBYRHArTh2WKs7bK0DgOEb/y9isrNTA0KlCBSBIjAQAjgVtw5k7uBmduWvHQAM39K+SvX8mD1utFIEikARKALLIYBLcSpuXc5Sc++FQAcAe8Ex2I8LxtKjopUiUASKQBFYDgFcilOXszJz7t05sAOA8dr6zjF9nWilCBSBIlAEFkMAh+LSxXI310ER6ADgoPAs/cenxcKZopUiUASKQBGYDwHciUPny7Xk0buUvQOAcVv752Les6vjJ60UgSJQBIrAbAjgTNyJQ2fL0aPmRqADgLkhmzvDJZLjpVETWZJUikARKAJF4CAI4EqciTsPctgYf9otmx0ArKa9r5JiXhQ9drRSBIpAESgC+0cAR+JKnLn/I7p3MAQ6ABgMykMaumaOeG7UZyyTVIpAESgCReAoCOBGHIkrj7J7dZu7VlIHAKtt8d9Icc+MFveAUCkCRaAIHI4ATsSNOPLwXU3GRgDoY5dR+3sjcJP8NLP1GEkrRaAIFIFdRwAX4kTcuEYsdq/oDgDW0+a3SLF/GdXxk1SKQBEoAjuJAA7EhThxJwFYZ6U7AFgf+r+doh8XrRSBIlAEdhUBHIgL117/XXSgA4D1troVrl4QF04QrRSBIlAEdgUBnIf7cOCu1Hly9ewAYP1NcoO48PaoVa+SVIpAESgCW40ArsN5uG8iFd1NNzoAmEa7+9DFe+PKJaOVIlAEisC2IoDjcB3O29Y6bky9OgCYTlOdJq68KXrLaKUIFIEisG0I4DYch+smVbdddaYDgGm1/HHiztOjj44eM1opAkWgCGw6ArgMp+E2HLfp9dka/zsAmGZT3i1uvTJ6smilCBSBIrCpCOAwXIbTJlqH3XWrA4D52v5bOfx70VWItbDfnYLOEa0UgSJQBDYNAdyFw3DZKnzHzTh6FWVtRRkdAMzXjF/I4deIfje6ChFA709Bd4haMCNJpQgUgSIwaQRwFc7CXThsFc7iZNyMo+cqb5cP7gBg/tZ/c7JcLfqd6CrkhCnkidE3Rs8SrRSBIlAEpooAjsJVOAt3rcJPXIyTcfMqytuaMjoAWKwp35Zsbmt9O+mq5LIp6J+jd4waYSepFIEiUAQmgQBOwk04CletyikcjItx8gJl7naWDgAWb/93JOuVo/8dXZUYUT8hhRlhnzVppQgUgSKwbgRwEU7CTThqVf7gXhyMi1dV5laV0wHAcs35rmS/UvSb0VWKEfaHU+CdokbeSSpFoAgUgZUigHtwEC7CSassHOfiXhy8cLm7nrEDgOV7gFWtrhgz34iuUoy0H58CLaxhBJ7NShEoAkVgJQjgHNyDg3DRSgo9vBBci3Nx7+G7miyCQAcAi6C2b573ZdcVol+LrloukwKNwO+S9FjRShEoAkVgLARwDK7BObhnrHIOZBfH4lqce6BjZtzfwzoAGK4PfCCmLh/9anTVYgT+2BT6keh1opUiUASKwNAI4BYcg2twztD2D2UPt+JYXHuoY/v3GRDoAGAGkOY4xKjYxy4+PkeeIQ89Z4y9LPrW6MWjlSJQBIrAsgjgEpyCZV/tSQAAEABJREFUW3DMsvYWyY9TcSuOXST/Pnm6Y8+eDgCG7wX/GpMCRrBkcy1y6ZRqcszzk3pWl6RSBIpAEZgLAdyBQ3AJTpkr84AH41KcilsHNFtTHQCM0we8m/rrMf2A6P9F1yU3TMFGzo9JeopopQgUgSJwKARwBc7AHTjkUMeP9XfciUNxKU4dsJyagkAHAFAYR3XeB8f0taPeV02yFvH1rbum5E9F7xk9XrRSBIpAETg6ArgBR+AKnIE7jn7Mqn7jTNyJQ3HpqsrdqXI6ABi/uV+RIty++pek6xRf5XpEHPhE9GbRY0QrRaAIFAFcgBNwA47AFetEBVfiTNw5ih81ehgCHQAchsPY/wusi6WQv4uuW84cB54V/Wj0ttHjRitFoAjsHgJiHwfgApyAG9aNAo7ElThz3b5sffkdAKyuiT3Dul6K++PoFG5p/VL8eEr036P3i3rul6RSBIrAliMg1sW82McBuGDdVcaJuBFH4soR/anpIxDoAOAIJFaT6uQPTFHXjX4rOgU5TZzwnO0/klrL+2xJK0WgCGwfAmJbjIt1MS/2p1BLXIgTcSOOnIJPO+FDBwDraea/T7Hnj74+OhU5QRzxNa9PJn1x9BLRShEoApuPgFgW02JbjIv1qdQKB+JCnLgSn1rIkQh0AHAkFqve+mwK9DGL2yU14zXJJESf8NqNL2z9YzxyS86+bFaKQBHYEATErNgVw2JZTNs3FfdxHu7DgbhwKn7tlB9T6hA7BfxRKvvUbJ8nOsUZr1beekl8MyHn9klPFK0UgSIwXQTEqFgVs2JXDE/NW1yH83Dfin1rcUdFoAOAo6Kxvu3/StHXiv5m1McukkxKzh5vnhT9YvQZ0ctGvTqUpFIEisCaERCLPszz9PjxhahYFbPZnJTgNhyH63DepJzbRWc6AJhWqz8n7pw7+oLoFMUHQG4Rx3wG9NNJzdo9S9JKESgCq0dA7IlBsfjmFH/LqDsASSYnOA234bi1OdeC90agA4C98ZjCry/HiRtFPbNzxZ3NSQry+aN4hnwMCAwMDBCyq1IEisBICDjBO9E74Ys9MSgWRypuabM4DJfhNNy2tMEaGA6BDgCGw3JoSy+NQSPmv0k6ZXH70SMBjwa+FEelftufn5UiUASWREAsHfUWv1v9ftu/pOlRs+MuHIbLRi1oNuM96ugIdABwdESm9fsbccdo/8pJ/zk6dXEHwJ0AdwRcnbg9OeWrk6njWf92GwGxI4bEkit+XOAOwNRRwVU4i784bOr+7qx/HQBsRtO/Lm5eIHrr6KZMnkFebk8ir3fH7/tGfzlaKQJF4MAIiBGxImbEjhgSSwfOMZ2/4CYchatw1nQ827NnT53ZF4EOAPbFZKp7/jeOufX3i0kt47kpy2W6TWlt74fE7w9FvfP7+KSuENb5tbG4UCkCa0dADIgFMSE2xIhYETNiZ+0OzuAALsJJuAlH4aoZsvWQdSPQAcC6W2D+8r+fLA+NWtbziUl/HN0k+fk4e6foa6Jfjb4w+ltR65MnqRSBrUdAX9fn9X0xIBbEhNjYpMrjHhyEi3ASbpqo/3Vrfwh0ALA/VDZj31fiJtKwoMamTrI5cepw/ajJQiYQvi3b94yeK1opAtuEgD6tb+vj+ro+r++LgU2sJ87BPTgIF21iHXbe5w4ANr8LWN/baza/mqq8K7qpcsw4rg6PSPrx6L9G/yzq9ugmTHyKq5Ui8DME9Fl9Vx/Wl/VpfVsf19d/duCGbeAYdcA5uGcj3K+T+0egA4D947KJe6357aMfN4zzJg8l2WixktnvpwZuj34z6XujyPQ6Sd1CTVIpApNB4Ofiib6pj+qr+qy+qw/ry/nzRgtOwS04BtdsdGXq/GEIdABwGA7b9L/nim43WnLzA1tSMVdMF0ldkOnLkrrl+JGkljy9cdIzRCtFYJUInD6FWdzGM3CvvXmWr2/qo/qqPptDNl5wCC7BKbhlAytUlw+EQAcAB0Jms/ebnGPJzQulGleI/kN0m8TsaM8fffTkuanY56KuUMxAvlW2t+GKK9WoTAiBs8YX77U/Lemnol55e17SO0TPG9Unk2yN4AzcgUNwCU7Zmsq1Ioch0AHAYThs8/9vTOWuFj1f1MSjHybdRjkqQXvm+vlUEkHfNenlom7RJqkUgUMicPIcYaW930vq5Hf0AaZZ7/nT1glusJInrsAZuGPjK9kKHBiBDgAOjM22/cUtc1cwFhUxGckzym2r41Hrc7r8cIv2MUkRmS+R/We2XxH1ypLnmefMdmMgIOyoaHt94Aapv3fvX570P6Jfj1p573FJbxLd9kdMuAAn4AZ30HBFql3ZdgQEwLbXsfXbGwFXxn+YXWeOel6J8LK5E3LG1PIa0ftEnx/9l+h3ou+JPiXqlaZLJz1ptLJdCGhTbauN/ypVs9KeBWz0AV+qs/reNbP/TNFdEbGPA3ABTsANW1b3VudgCHQAcDB0tvtvyM/VsduZJvmY7LPdNd5/7Y6f3ReN3jZqNba3JnVFZFW2v8v2g6KuAn8l6WmilWkjoI20lTbTdtrw3+KyNtW22vh2+W2lvRMk3UUR62Je7OMAXLCLOOx8nTsA2PkusMfkHs85TfYx6cdz8x8Ulj1WZbt2cLh/FD7vTOrTpt9N+tGoRwlOJq6grpff1j93lZnNyogIwBjWMIe9NtAW2kTbaCNtpc20nTb8hRH92RTTYlpsi3GxDh+xvyn+L+RnMx0cgQ4ADo7Prv3Vs3JXTp6f/24qb9GPJJWjIOCq8dz57VGC28ne+35JfruqcpXp+fH78vtF0UdFzRI3ocprVCaXbdts8VRxMIENjGAFM9jBEJYwhS2MYQ1z2GsDbaFNtM1gzmyJITEslsW02BbjW1K1VmNZBDoAWBbB7cyPZJ+cqln0Axk/PNtee0pSOQQCTmCusH4jx/1B1Hvir0pqJTgnsB9l+8vRj0XdkrakqvkHf5LfjjdR81rZhr2Pq3h7wYkxuzZK+Mx3dVAXdVI3dVRXdVZ3GMACJrCBEaxgBjvHwxKmsN0oENbkrFgVs2IX9mJZTK/JnXUV23IPhUAHAIdCqH//RCC4d9REoask9d6924nZrCyAgAViTpV8vxQ1Ke26Sc0/MAnL1a61DP4++94RtdSqtxecGJ0gnRitJf/K/M0VsLbw2pZJbW6F/2n2e8Phj5Kyd7ekrqLZv3m2vflgtbqrZvvy0Usdrrbt8zfHOFYeedlgi022laEsZSqbD3zhE9/4yFc+810d1EWd1E0d2WNf3WEAC5jAJi5VFkBATGoLMSpWxazYXcBUs+wKAh0A7EpLL19Pn/h8bczcNHra6O9EPWtNUhkZASdGJ0hXdNZhv3rK8wzcKoi3yLZJbW6F3z3b3nD446Sush+d1FW0q+1nZtubD1are3W23xB9++Fq2z5/c4xj5ZGXDbbYZFsZylKmsvnAFz7xjY985XPMV0ZGQAyKRTEpNsWoWB252Ombr4eHRqADgENj1CP2ReC/s8sV4CWTeo/aCcJiKflZKQJFYGQExJqYE3tiUCyKyZGLrfltQ6ADgG1r0dXXxy1eV4ZmzbsCfGRccBs4SaUIFIGBEBBTYkuMiTUxJ/YGMr9tZlqfWRDoAGAWlHrMLAi47egrYffKwWZkm/zldrEV1fq6UUCpFIE5EBAzYkcMiSUxJbbEmFibw1QPLQL7R6ADgP3j0r3LI+CDKZ4fW4f/1DFn4RHPl3urMmBUisB+EBAbYkSsiBmxI4bE0n4O764DIdD9syHQAcBsOPWo5RD4RrJbeMSEMRPErpjffx61QluSShHYWQTEgFgQE2JDjIgVMbOzoLTiq0GgA4DV4NxSjkTA62Fmnd8lu3zBz5fHPM+0YElvbQaUylYjoI/r6/q8vi8GxIKYEBtbXfnVVK6lzIpABwCzItXjxkLAl8fMaLZgySlTiAVjvCvuYy2eg2ZXpQhsLAL6sL6sT+vb+ri+rs/r+xtbsTq++Qh0ALD5bbhNNXDb07ru90ylfNDlZEmvFPVRFxOivp/tShGYMgL6qL6qz+q7+rC+rE/r2/r4lP3feN9agdkR6ABgdqx65OoR8HGX16dYq9CZEIVMvQZllTML13wrf6sUgXUioA/qi/qkvqmP6qv6rL6rD6/Tv5ZdBA6IQAcAB4Smf5ggAj+MT16Dss65leesNX/h7LNcreVov5LtShEYEwF9TF/T5/Q9fVBf1Cf1TX10zPJr+6AI9I/zINABwDxo9dipIfCTOPT+6GOjPhjj1SnvTN8gvx8ctf78vyetFIFFENB39CF9SZ/St/QxfU2f0/f0wUVsN08RWDsCHQCsvQnqwMAIeGfa52MfELs+bvMLSX1F7jJJ7xx9avS9Uc9qk1SKwB59QZ/QN/QRfUWf0Xf0IX1Jn9K3CteEEahr8yHQAcB8ePXozUTgm3H7rdEnRH3E5mJJTxz1FTrvXT8s275mZ431bFa2GAFtrK21ubbXB/QFfULf0Ef0FX1mi2Fo1YrAnj0dALQX7CoCbt3+Sypv5bX7Jr1m9EzRU0R9HtcX7/4s2573fiBpTwgBYUNEW2kzbacNtaU21bbaWFtrc22vD+gLG1K1unlgBPqXeRHoAGA+xIrXfHht4tFfj9Nvij4x+gdRz3svlNQtYWrbPn9zzKvyNx9qcRs5m5UVIABrmMNeG2gLbaJttBG1bZ+/OUabatsVuNci1ohAOXoO8AvWHGDl0NNEK7uLwP6uLK8ROHyo5QRJTxf1eVZrud8v238dfWP0Y9EvRbvSW0A4hMAIVjCDHQxhCVPYwhjWMIe9q3tX+a72XfVro0MU0T9vIwKH16kcfTgQsyQdAMyC0pHHnCSbJ4pWisD+EPhidr4zai33hya9bfQK0fNETxs9TvSkUcu/XjTpVaNObL+X9IFRz5+fm/S10fdFPxv9dnRThe/qoC7qpG7qqK7qrO4wgAVMYAMjWMEMdjCEJUxhC+NNxaN+j4sAbsbR45ayRdY7AJi/Mc84f5bmKAI/Q8DCMT4A80/Z85qoE9vjk/5x1Az0mya9SvQi0bNEEdpxk54+au34SyW10IwT57Wz7fU0J9JbZ/t3o06s90jqGbfV6Lyf/pj8dhvcLPdnZvt50ZdGTYajtu3zN8c4Vh552WCLTbaVoSxlKpsPfOET3/jIVz7zXR3URZ3UTR3VVZ3VHQawgAls4lalCMyLwE+PLzf/FIbZ/+sAYHasjjjyDEdsNC0CK0LA4jJfSFnWjn9HUkvNOnG+PNteT3MifXq2nxx1Yv3TpGa5W43OCnW/n99ulZvlfots3yT661GT4aht+/zNMY6VR1422GKTbWUoS5nK5gNf+MQ3PvKVzymiUgRWhkC5eU6oOwCYE7Ac3k4WECpFoAgUgakgcLgf5ebDgZg16QBgVqSOPK63mY7EoltFoAgUgakgUG6esyU6AJgTsBzeUWZAqBSBIlAEpoHAz7woN/8Mitk2OgCYDaejHnW2o/7odhEoArAQUWkAABAASURBVEWgCEwCgXLznM3QAcCcgOVw64R7DzmblSJQBIpAEVgnAoeXjZNx8+E/m8yCQAcAs6C09zHHy0+vNCWpFIEiUASKwAQQwMm4eQKubI4LHQAs1lbXXSxbcxWBIlAEisBwCPzMUjn5Z1DMvtEBwOxYHfVIS5Ae86g7ul0EikARKAJrQQAX4+S1FL7JhXYAsFjr+arYpRfL2lxFoAgUgSIwBAKH28DFOPnwn01mRaADgFmR2ve46+y7q3uKQBEoAkVgxQiUixcEvAOABYFLtj5zCgiVIlAEisB6EPhZqeXin0Ex30YHAPPhddSjfyE/fPwkSaUIFIEiUATWgAAOxsVrKHrzi+wAYLk2fMhy2Zu7CBSBIlAEFkHg8Dzl4MOBWCTpAGAR1I7Mc9lsXilaKQJFoAgUgdUigHtx8GpL3aLSOgBYvjEfuryJWigCRaAIFIHZEfjpkeXen8Kw+H8dACyO3RE5L5qN60UrRaAIFIEisBoEcC7uXU1pW1pKBwDDNKznUMVyGCxrpQgUgSJwMAT+X/6Ic5NUlkGgJ61l0Dsy77mzebNopQgUgSJQBMZFANfi3HFL2QHrHQAM18h/HFPHjlaKQBEoAkVgHASOvWfPHly7p/+WR6ADgOUxPMLCWbJx/2ilCBSBIlAExkEAx+LacazvmNUOAIZt8PvG3OWjlSJQBIpAERgWAdx632FN7ra1DgCGbX94PjsmTx2tFIEiUASKwDAI4FTcimOHsVgrewrm8J3gtDH5rOgxopUiUASKQBFYDgFcilNPu2fPcoaae28EOgDYG4+hfl05hu4VrRSBIlAEisByCOBSnLqclebeB4EOAPaBZLAdD46lS0YrRaAIFIEisBgCOBSX/jR3/xsWgQ4AhsXzqNaOlR/PjZ48WikCRaAIFIH5EMCdOBSXzpezR8+EQAcAM8G08EFnTs5nRItzQKgUgSJQBGZEAGfiThx6eJYmQyMA5KFt1t7eCFw7P58aNZElSaUIFIEiUAQOggCuxJm48yCH9U/LItABwLIIzpb/VjnsidFKESgCRaAIHBwBXIkz9zqqP4ZHoAOA4TE9kMXb5w+PjlaKQBEoAkVg/wjgSFy5/79276AIdAAwKJyHNHa3HPGwaKUIFIEiUAT2RgA34si99/70V/8bA4EOAMZA9eA2750/W886SaUIFIEiUASCAE7EjdmsrAqBDgBWhfTe5TwoP+8RrRSBIlAEdh0BXIgTD4hD/zAOAh0AjIPrLFYfmYPuFK0UgSJQBHYVARyIC3e1/mutdwcAa4V/z+NTvFWuvPaSzUoRKAJFYCcQwHm4DwceosL981gIdAAwFrKz271fDn1p9ETRShEoAkVg2xHAdTgP9217XSddvw4AptE814kb74yeNVopAkWgCGwrAjgO1+G8merYg8ZDoAOA8bCd1/J5k+E90ctFK0WgCBSBbUMAt+E4XLdtddvI+nQAMK1mO0XceW30jtFKESgCRWBbEMBpuA3HzVGnHjomAh0AjInuYrZ9+eoJyfrk6LGjlSJQBIrApiKAw3AZTsNtm1qPrfS7A4D5mvUHOfx/o6uQ304hb4ieKlopAkWgCGwaArgLh+GyhXyfMxNuxtFzZtvdwzsAmK/t/z2H3zqqoyUZXS6dEj4YvXq0UgSKQBHYFARwFu7CYavwGSfjZhy9ivK2oowOAOZvxr9JlltEfxJdhZw+hbwy+rToSaOVIlAEisBUEcBRuApn4a4l/Jw5Ky7Gybh55kw9cM+eDgAW6wV/m2w3j+p4SVYit0opH41eLVopAkWgCEwNAdyEo3DVqnzDwbgYJ6+qzK0ppwOAxZvyucl60+iPo6uSM6SgV0X/OmqknaRSBIpAEVgrArgIJ+EmHDWIMzMYwb04GBfPcHgPOToCHQAcHZH5fr8gh984+qPoKsWzro+kwKtEK0WgCBSBdSGAg3ARTlqlDzgX9+LgVZa7VWV1ALB8c744Jm4Y1SGTrEzOmJL+IfqU6EmilSJQBIrAqhDAObgHB+Gigcs9qDlci3Nx70EP7B8PjkAHAAfHZ9a/viwH/kb0h9FVy21ToBG4kXg2K0WgCBSBURHANTgH94xa0H6M41hci3P38+fumgeBDgDmQevgx748f75e9H+iq5YzpUAjcTNvu8xmwKgUgSIwOAK4BcfgGpwzeAFHGDxAiltxLK49wCHdPQ8CHQDMg9ahjzUJ5qo57KvRdYh3bz+Ugk3IWeVknBRZKQJFYEsRwCU4BbfgmHVUE6fiVhy7jvK3sswOAIZv1jfH5EWi74+uQ7SpCTmfTOEPiXpWl6RSBIpAEZgLAdyBQ3AJTsEtcxlY7OB9cuFSnIpb9/ljdyyOwLoadHGPNyOn1ah+Na6u893UE6T8+0Y/Fb1T1JrcSSpFoAgUgYMigCtwBu7AIbjkoBlG/CMOxaU4dcRidtN0BwDjtfv3Y9oCFXdN6n3VJGsR63E/PiV/LHr9aKUIFIEicCAEcASuwBm440DHjbb/cMM4E3fiUFx6+O4mQyLQAcCQaO7f1uOy+0rRr0TXKWdP4S+MvjNqRJ2kUgSKQBH4KQI4ATfgCFzx051r+g9X4kzcuSYXdqPYDgBW086eXV04Rb0vum75lTjwtqiZvFdIWikCRWB3EcABuAAn4IY1I7EHR+JKnLluX7a+/A4AVtfE/5mijLKn8sEK7/K+Pj6ZYGM5zWNlu1IEisD2IyDWxbzYxwG4YAq1xo04EldOwZ+t96EDgNU2sW9V3zJF/l7UM64ka5cLxoNnRz8dvVv0xNFKESgC24eA2BbjYl3Mi/0p1BIX4sRbxhkcmaSyCgQ6AFgFyvuWYYKNke7H9/3T2vacOSU/Ovof0YdHTx+tFIEisPkIiGUxLbbFuFifSq1wIC7EiVPxaWf86ABgfU397hRtBP6wpEbASSYhJ4sX94r+W/TpUat/JakUgSKwYQiIXTEslsW02J5KFXAe7sOBuHDPnj1TcW13/OgAYL1tbWlL79lePG5YZSvJZOQ48cTjin9OavWtyyetFIEiMH0ExKqYFbtiWCxPyWtch/NwHw6ckm875UsHANNobpNxLhpX/ijqYxdJJiVXizdviLpd94dJV/31rxRZKQJF4CAIiEmxKUbFqpg9yOFr+RNuw3G4Duft5UR/rB6BDgBWj/mBSvSJywflj16B+aekU5Rzxak/iVqV6zVJzSQ+ftJKESgCq0dA7IlBsSgmxaYYXb0nhy4Rp+E2HIfrDp2jR4yOQAcAo0M8dwE+s+l9XKP5qc6I1W+unJqZSfzFpE+JmsiTpFIEisDICIg1MSf2xKBYFJMjF7uQeRyGy3AabjuAke5eBwJT7TTrwGJKZf4kzjwieoHoO6JTFh8MuW0ctJCItcPvn+2fj1aKQBEYDgExJbbEmFgTc2JvuBKGt4S7cBguw2nDl1CLSyHQAcBS8I2e+RMp4dLRO0e/Fp26nC0OusVn1vEbs32L6AmjlSJQBOZHQOyIIbEkpsSWGJvf0mpz4Cqchbtw2CFL7wHrQaADgPXgPk+p/5uDnxAV+EbSbqnl56TlGPHuctFnRN2mfH7S34z+XLRSBIrAgREQI2JFzIgdMSSWxNSBc03jL7gJR+EqnIW7puFZvdgvAh0A7BeWSe7873jlWdo5kloyc1OC60Tx94ZRn/X8ctK3RO8eVY8klSKw8wiIBTEhNsSIWBEzYmcTwMFFOEk9cBSumsPvHrouBDoAWBfyi5drnWzv9l4oJl4b3SQ5Zpz9teifRt0apI/Ktn3+ls1KEdh6BPR1fV7fFwNUTNjnb5sEAA7CRTgJN22S7zvvawcAm9sFLKbhIx5mAH9wQ6vhiuEP4vsRVz7PyrYrn6lPboqblSIwFwL6tL6tj7vK1+f1fTEwl6GJHIxzcA8OwkULu9WM60OgA4D1YT9Uya+LISPw30pqre8kGymefd4snnv2+dWk6mUi0aYSZKpQ2XEE9F19WF/Wp/VtfVxf31RocAyuwTnqtan1qN9BoAOAgLAF8n+pgyuLcya9Z/Sb0U2WY8f5K0b/POr2qMlQL8w2Mj1/0vbbgFCZFAL6pL6pj+qr+qy+qw/ry/r0pBye0xmcgltwDK7BOXOa2N/h3bdOBHTadZbfsodFwCxczxXPGrPW2UZC2dx4OU1qcP0oMnXr0WtGr8hvhGSBkU0n11SlsmEI6HPWs79H/H55VJ/UN/VRfVWfze6NFxyCS3AKbsExG1+pVuAwBDoAOAyHbfv/G6mQL239QtLbRD8W3SbxVbNrpEJeOXpnUlcn1j+3zrhXpiyRmt2VIjAYAseLpctGHxB9fVSMvSvpI6PXjOqTSbZGcAbuwCG4RH0Hr1wNrheBDgDWi//YpfvS1tNSyHmjSMrEo2xunZwgNfIFtD9OatEUryFZhezh+X3d6FmilSIwDwJW3rt2Mjj5vT2pPvWmpA+MXiFqkZ4kWyc4AlfgDNyBQ7aukq3QYQh0AHAYDtv+v+d1r0wlXcH4EpfJSNu8NKfbs5dIfe8VfWn0M1EEbglVC5TcLr8vFjVwSFLZYQTcLRITltZ9fHB4a9Qdpc8m/bvovaOXik7tk7pxaTDBBTgBDjgCV+CMwQrYv6HuXTcCHQCsuwVWX76vct04xZ496nnld5PugngNy0dU7pjK/lX03dFvR03UekFSzzld+Zwp25XtREDbauP7pHpOeP+S9DvR90R9XOdOSS1fe9KkuyBiHwfgApyAG3ah3q3j4Qh0AHA4EDuYuMK5S+qNFJ38TPbJz50S/d+rWjdIrR8SNZnLa05fz/abo4+L3jrqbsJpk1Y2AwFtpc20nTZ0616baltt/NBUwzv5ZrTrA/m5UyLWxbzYxwG4YOUAtMD1I7CLnX/9qE/LA5N7POc02cekHxObpuXh6r05eYq8TPT3on8dNZ/gC0m/FzU5yi1SjxIs3/rr2XfB6LZNAkuVJiuwhjnstYG20CbaRhtpK22m7bSh29radLIVWpFjYluMi3UxL/ZXVHSLmSICHQBMsVXW45PJPib9uHL6pbhgAt1/Ja0ciYDnxbC5enZ5lGD51hdn+/1RZEpt2+dvjnGsPPLmsMoMCMAKZrCDISxhClsYU9v2+ZtjHCuPvDMUsTOHiGGxDBuxLcbF+poBaPFTQKADgCm0wvR88GzU5Kczx7WrRp8X7fu/AeEQcqgrUxMRPx0bnjm/Kukzo4+Juh37O0m9P+5q9XzZPl10GyaeqYO6qJO6qaO6qrO6wwAWMIENjFzFu5p3Ve/q3lW+q31X/TAONJWDICBWxazYFcNiWUwfJEv/tIsIdACwi60+e5195es1OfwmUc9VEbf37vOzsgACJiJaUMVs66sl/82jd42af/CXSa0g53n1h7P9+agrtW8l9RaDE+Srs20VticmfXT0T6JefTSpzUnSJDZvONwi+03qul5SV8ZWojO5zZsPVqs7V/bz4wxJqW37/M0xjpVHXjbYYpNtZShLmcrmA1/fpGOYAAAQAElEQVT4xDc+8pXPfFcHdVEndVNHdVVndYcBLGDCDxjFrcoCCIhNMSpWxazYFcMLmBo3S61PA4EOAKbRDpvghSszs+cvGWedLBD/57JdGReBE8e8dQycIF3RWUv+Dtl3t+gfRi1+ZFKbW+FeY9NGz8j+50ZfEnUVbc12r7d588FqdR/Pflfb2o/ats/fHONYeeRlgy022VaGspSpbD7whU984yNf+cz3FFUZEQHtJxbFpNjURmJ1xCJrelsQ6ABgW1pytfXw6pwrQIul+BqYE8T3V+tCSysCO4uAWBNzYk8MikUxuSGA1M2pINABwFRaYjP9cHvxtXH9plHPeV0BusXr1m92VYpAERgIATEltsSYWBNzYk8MDlREzewaAh0A7FqLj1dftx2fHfPerz5VUlcnngt79zo/K0WgCMyJgNgRQ2JJTIktMSbW5jQ1ncPryXQQ6ABgOm2xTZ78MJVxdWLCmFuUZm97Xvy+7K8UgSJwYATEiFgRM2JHDIklMXXgXP1LEVgAgQ4AFgCtWeZGwOSyByXXRaJnjN4+ara4GeLZrBSBnUVADIgFMSE2xIhYETNbCEqrNCUEOgCYUmvshi8WJvEamFfMTpkqey/cu+Bfy3alCOwCAvq6Pq/viwGxICbExi7Uv3WcCAIdAEykIXbUDR9isZqbd8xPEwx+JXqPqPXarfaWzUoR2HgE9GV9Wt/Wx/V1fV7fFwMbX8FZK9DjpoVABwDTao9d9uYnqbx30L1jfu1snyJqYZo7J/W1Ph8wyWalCEweAX1Vn9V39WF9WZ/Wt/VxfX3ylaiD249ABwDb38abWsP/i+NWj7MU7I2y7dUnX+67bbb/Jvpv0UoRmAIC+qI+qW/qo/qqPqvv6sP68hT8XLMPLX5qCHQAMLUWqT8HQ+Bf80dfeLtlUsvGninpb0afHLV2fIk2QFRGRUAf09f0OX1PH9QX9Ul9Ux8d1YEaLwJDIdABwFBI1s46ELAM6nNS8O9GzxM9dfRa0ftF3YK1OloXSgkYlYUQ0Hf0IX1Jn9K39DF9TZ/T9/TBhYzvWqbWd3oIdAAwvTapR4sj8NVkfUXUOvVuwVof/UT5bW16t2f/PNtviZqUlaRSBH6GgD6hb+gj+oo+o+/oQ/qSPqVv6WM/y9SNIrDJCHQAsMmtV99nQcC66f+UA92evUtSn6T9uaRu3V4zqXXUn5/Ux3A6OStAbLloY22tzbW9PqAv6BP6hj6ir+gz+s6Ww7Gq6rWcKSLQAcAUW6U+rQIBt2597c6X1G6cAs8ddcVnIZZbZ9uMba9pvT/brg6TVDYIAW2m7bShttSm2lYba2ttru31AX1hg6pWV4vAMAjswgDApJ1h0Nqz5xh7+m+bEfhBKmcp1qcn9c62hVounG1XhydLannWX09696gZ3k4eJoR9L78rq0UA5rDXBtpCm2gbbaSttJm204baUptqW228Wk9b2p4VQjAkRw957lghBLMXtQsDAEQxOyIHP9KqXQc/on/dVgR8gMXyrC9NBR8d9Y6328cmhJ0wv08bvUTUV9rum/Sp0TdEPxMdsg/G3E4IzGAHQ1jCFLYwhjXMYa8NtIU20TbaSFvtBEit5D4IDMnR+uA+BWzTjl0YAPiM5lBt5qri+EMZq52tQuBLqc27os+NPix6u+gVo2eLOlnpN541XyC/7Tex7I7ZfkDUxDNfeXtNtj17/mzSb0e3RdRFndRNHdVVndUdBrCACWxgBCuYwc5+WMIUtjCG9bZgswP1WFkV9RscPVSBQ547hvJpUDu7MADwsY0hv6R1hkFboMZ2BQG3nj1r/lAq7KrWq2VPyvaDoyae3SzpVaNmn58l6Umix42ePnq+6OWibmffJqkPx9w16T2j94+y8cikj42yaRLbs7KtjJcl9bEZZb492++Juko2Ee7T2aa27fM3xzhWHnnZYItNtpWhLGUqmw984RPf+MhXPvNdHdRFndRNHdVVndlgUxnKhA2MYBXXKkVgLgSG5GbnDOeOuRzYtIN3YQCgTYYcyQ3ZyfhWLQIHQgAJfSF//Ej0zVET2p6W1IdjHpf0UdGHRF1J3yvp3aKuqL3G9lvZdmV9vaQ+NuNK+tLZvnjUc3IT4c6ebWrbPn9zjGPlkZcNtthkWxnKUqay+cAXPvGNj3zlM9/VIcVUdhWBFdZ7SG4e8pyxQgjmK6oDgPnwcvQZ/VctAkWgCBSBSSEwJDd3ADCppl3OGa8ELWfhyNxDjjKPtNqtIlAEisDWIbDSCg3JzUOeM1YKwjyF7codALOJ58HlYMcO2ckOVk7/VgSKQBEoArMjMCQ3D3nOmL0GKz5yVwYAnxwQ118Y0FZNFYEiUAS2FoEVV2xIbh7ynLFiGGYvrgOA2bE64kjLhR7niB9Ni0ARKAJFYO0I4GTcPJQjHQAMheQE7AzZmF5p8prTBKpVF4pAESgCU0VgpX7hZNw8VKFDnjOG8mlwO70DsBik110sW3MVgSJQBIrACAgMzckdAIzQSOsy+fUUbIGRJIPItWNlyDWnY65SBIpAEdgeBFZYE1yMk4cq0rnCOWMoe5O1syt3ADTAW/w3kFrhzKpmA5mrmSJQBIpAEVgQAVyMkxfMvk+2Ic8V+xif0o4OABZvjessnrU5i0ARKALbjMBK6zY0F3cAsNLmW01hQzfq0M+cVoNCSykCRaAIbBcCQ3Px0OeKyaK9S3cATOqwNvlQjWH9dB88Gcpe7RSBIlAEtgKBFVYCB+PioYp0jnCuGMrepO3s0gBAQ/hIiXQofeBQhmqnCBSBIlAE5kZgaA4e+hwxd4VWmWHXBgAvGRhcX0szAWVgszVXBIpAEdhUBFbmN+7FwUMWOPQ5YkjfBre1awOAVwTBb0eHlIcOaay2ikARKAJFYCYEhuZe5wbniJkK34aDdm0A8IM02kujQ8qVYswqVEkqRaAIFIHdRmBFtce5uHfI4pwbnCOGtDlpW7s2ANAYz/HfwDr0SHRg92quCBSBIrBVCIzBuWOcGyYN+i4OAF6fFvlydEi5RIxdK1opAkWgCOwwAiupOq7FuUMW5pzg3DCkzcnb2sUBwE/SKn8dHVoeEoOWpExSKQJFoAgUgREQwLG4dmjTzgnODUPbnbS9XRwAaJA/zX/fig4pvxxjd4hWikARKAI7icAKKo1jce2QRTkXOCcMaXMjbO3qAMCHHh47Qgv9WWyeP1opAkWgCBSBYRHArTh2WKt79jgXOCfs2bV/uzoA0M6Pzn/fjA4px42x50dPGK0UgSJQBHYIgVGrilNxK44dsiDnAOeCIW1ujK1dHgD8d1ppjNHkOWP3idFKESgCRaAIDIMATsWtw1g70opzgHPBkXt2aGuXBwCa+XH572vRoeUWMXjzaKUIFIEisBMIjFhJXIpThy4C9zsHDG13Y+zt+gDAyk+PGqm1nhS754hWikARKAJFYDEEcCguXSz3wXPhfueAgx+1xX/d9QGApn1C/vMOaJJB5USxNsYzq5itFIEiUASmhMAovnjej0Nx6dAF4HzcP7TdjbLXAcCePd9Niz08OoZcIEY9Y0pSKQJFoAgUgTkQwJ04dI4sMx+K83H/zBm28cAOAA5r1b9I4jvQSQaXO8bifaKVIlAEisBWIjBCpXAm7hzB9B5cj/PHsL1RNjsAOKy5fADigYdtjvK/davvPorlGi0CRaAIbBcCuBJnjlUrXI/zx7K/MXY7ADiyqf4qm6+OjiVWmhprRDuWz7VbBIpAETgEAoP+GUfiykGNHsUYjsf1R9m1u5sdABzZ9v+XzVtGvxQdSx4fw7eNVopAESgCRWBvBHAjjtx773C/cDuOx/XDWd1gSx0A7N14Zob+VnaN1UF8yOLJsa+MJJUiUASKwGYjMJD3OBE34siBTO5lBqcrA8fv9Ydd/tEBwL6t/9rsGnNpSJg/LWXcKFopAkWgCOw6ArgQJ+LGsbDA6bh9LPsbaXdMwDcSkMOdNgP1fYdvj5EcM0b/Nnq9aKUIFIEisKEILO02DsSFOHFpYwcwgMtx+gH+vLu7OwDYf9v/MLtvEv1OdCw5Vgxb5OI2SStFoAgUgV1DAPfhQFw4Vt1xOC7H6WOVsbF2OwA4cNP9a/505+iYcuwYf2rU5yjHHAGniEoRKAJFYFgEFrSG63Ae7sOBC5qZKRsOx+UzHbxrB3UAcPAWf0b+/Nzo2HKXFOD1lJMnrRSBIlAEthUBHIfrcN7YdcTdOHzscjbWfgcAh266380h/xYdW66UAt4dPVe0UgSKQBGYOAJzu4fbcByumzvznBlwNu6eM9tuHd4BwKHb+1s55MbRVawb/Ysp513Rq0UrRaAIFIFtQQCn4TYcN3adcDXOxt1jl7XR9jsAmK353pPDrhNdxfKRJ005r4haDjNJpQgUgSIwPQTm8AiX4TTcNke2hQ7F0bgaZy9kYJcydQAwe2u/IYdeP/qj6NiiXSyH6fmVT2KOXV7tF4EiUASGRgB34TBchtOGtn90e7gZR+Pqo/+tv/eDwCoaZT/FbuyuV8Zzr5T8JOkq5BYp5O3Rc0crRaAIFIGJIHBIN3AW7sJhhzx4gANwMm7G0QOY2w0THQDM384vThbrSf9v0lXIRVLI+6N/GPX6TJJKESgCRWCSCOAoXIWzcNcqnMTFOBk3r6K8rSmjA4DFmtLKVaucYepW2p/E1XdGjayTVIpAESgC60HgAKXiJhyFq3DWAQ4bfDcuxsmDG952gx0ALN7CT0nWu0ZXKRdNYUbW905qpJ2kUgSKQBFYKwK4CCfhJhy1SmdwMC5eZZlbU1YHAMs15eOSfdVrTBtZPyzleqXmPEkrRaAIFIEVIrBXUTgIF+Ek3LTXH0f+gXtx8MjFbK/5DgCWb1u3ux6yvJm5LXi+ZsQtCIzA5zbQDEWgCBSBBRHAObgHB+GiBc0snA3n4t6FDTTjnj0dAAzTC+4fM4+KrlqOkwIfGjUCP2/SShEoAkVgVARiHNfgHNyDg7JrpYJrce5KC93GwjoAGK5V7xlTJqN4FzWbKxUj8A+kxCdETxWtFIEiUASGRgC34Bhcg3OGtn8oe7gVx+LaQx3bv8+AQAcAM4A0xyFPzrHWuf5a0lWLT2reMYV+Onrf6PGjlSJQBIrAsgjgEpzy6T179uAYXLOszXnz41TcimPnzdvjD4BABwAHAGaJ3W9JXjNhP5p0HXLiFOr5mE9g3irbbeOAUCkCRWBuBHAHDsElOAW3zG1kgAy4FKfi1gHM1cQRCGjgI7abDoeAL1FdIuZeHl2XnCEFPy36wehVopUiUASKwKwI4AzcgUNwyU/zreE/HIpLceoait/uIjsAGK99vx3T140+PLpOOV8K/4foa6MXiFaKQBEoAgdCAEfgCpyBOw503Cr2404ciktXUd7OldEBwLhNbolKC2TcLMX4SlWStYnnZ+9L6X8TPVO0UgSKQBE4AgGcgBtwBK44Yv9R0pVt4kqciTtx6MoK3rWCOgBYTYs/O8VcJvqFzLNbJAAADilJREFU6DpFe/9WHPhk9LHRX4hWikAR2F0EcAAuwAm4AUesEw0ciStx5jr92Imy193YOwHy4ZX0fWoTWf7p8N/rTI6Xwu8S/VT0edF1vNKTYitFoAisCQExL/ZxAC7ACQd1ZQV/xI04EleuoLgW0QHAavvAf6W4X4t6l/b/kq5brOZ1ozjx3uibo9eMHiNaKQJFYPsQENtiXKyLebGPA9ZdU1yIE3Ejjly3PztTfgcAq2/q76fIO0cvH53SzFa33cy4/Vj8ul10ClcEcaNSBIrAkgiIZTEttsW4WJ/T5GiH40BciBNx42gF1fC+CHQAsC8mq9pjFG6W7ZNSoBFwkknIueLFX0X/PWq5zVMkrRSBIrB5CIhdMSyWxbTYnkotcB7uw4G4cCp+7ZQfHQCst7m/m+KtrHXFpII0yWTk1PHkQdH/iD4xevZopQgUgekjIFbFrNgVw2J5Ka8HzozrcB7uw4EDm6+5WRHoAGBWpMY97o0xbyQ8xWUuTxDf7hD9RNS7wTdO6pZikkoRKAITQUBMik0xKlbFrNidiHs/cwPH4Tqc97Od3VgPAh0ArAf3/ZVqsQsfurhy/mjknmRSoq9YHey58eqLUYF8yaSVIlAE1oeAGBSLYlJsilGxOqBHg5jCabgNx+G6QYzWyHIITLGjLFejzc/9ulTBCPmpSacqJ41jvx39x6j3h30o5MzZrhSBIjA+AmJNzIk9MSgWxeT4JS9WAi7DabhtMQvNNQoCHQCMAuvSRr8VC2btXjXp56JTll+Mcz4U8tmkr4/ePDrFW49xq1IENhYBMSW2xJhYE3Nib/QKLVEA7sJhuAynLWGqWcdAoAOAMVAdzuZrYuo80T+JTv0VGe8YXyF+PjP6paiPiHjdyP78rBSBIjAnAmJHDIklMSW2xJj9c5pa6eG4CmfhLhy20sJb2OwIdAAwO1brOtLI+T4p/BxRa3VvwtrYJ4qvPiPq9Z5PZ/sR0UtF298CQqUIHAQBMSJWxIzYEUNiSUwdJNtYf5rLLm7CUbgKZ+GuuQz04NUioLOttsSWtigCbqfdMpkvFN2kZ2lnib/3jL49aqLS05NeL3rCaKUIFIE9e8SCmBAbYkSsiBmxsyn44CTchKNw1ab4vdN+dgCwec3/obhsNq1nax/O9ibJqeIsgnhJ0q9GXxn9nejpo5UisEsI6PP6vhgQC2JCbIiRyeAwgyM4CBfhJNw0Q5YeMhUEOgCYSkvM74dnaxdMtltHN3H9bO8tXz2+/2XUFYO1ya1adv78rhSBbURA39bH9XV9Xt8XA2Jh0+qLc3APDsJFm+Z//Q0CHQAEhA0Wz9zcNjQb+H6px6a+X2tSk6+TWbXsg6mHlcJ8HMRVxXHzu1IENhEBfVcf1pf1aX1bH9fX9fmJ12m/7uEYXINzcA8O2u+B3Tl9BDoAmH4bzeKhWbcPzYFni1oC9MdJN1m852yZUFcW30xF3hL12pNFTk6c7UoRmCIC+qY+qq/qs/quPqwv69NT9HlWn3AKbsExuAbnzJq3x00UgQ4AJtowC7r1leS7U/Tc0adEfxDddHF71GdCLXximdNvpEK+G/6YpL8e3bRnpnG5siUI6Hv6oL6oT+qb+qi+qs/quxtb1cMdxyG4BKfgFhxz+J+abDoCHQBsegvu3/9/zW6rg/180gdHvxbdFjlmKnLh6F2jL45+OfrxqK+dWShFnfOzUgQGR0Df0sf0NX1O39MH9UV9Ut8cvNA1GcQZuEOdcQlOWZMrLXYsBDoAGAvZadhFUA+IK24/Gr1/JtvbKD5zarUxC6VYJc26489ORa07buLVcbJdKQLzIKDP6Dv6kL6kT+lb+pi+ps/NY29TjsURd9qzZw/OwB04ZFN8r59zItABwJyAbejh34vfnt+ZuHODbL87us1yplTuptG/iJp49Z2kXlGySMnvZ9tqaqdIWikCENAX9Al9Qx/RV/QZfUcf0pf0Kcduq+IE3IAjcAXO2Na6tl6HI9ABwOFA7Ehixu6LUtdfiXpG+fdJ/y+67XLsVPCXo78V/bOo9dS9e+1VLO9hm9R0w+w/Z7QxERC2VLStNtbW2lzb6wP6gj6hb+gj+oo+s6Uw/KxaYh8H4AKcgBtwxJ6fHdGNrUZAQGx1BVu5AyLwtvzlOtFfiprkY7JPNndKzpDaeg/bsqXPz/a/RL3m9K6kT47ePnrJ6Mmjlc1CQJtpO22oLbWpttXG2lqba3t9YLNqtry3Yl3Mi30cgAuWt1oLG4dABwAb12SDO/yJWDTJx2Qfk34s8JFdOyu+unbx1B4mT0rqc6tfT+qVrg8ktWKbK0VzKq6R32ZHy5PNygoRgDnstYG20CbaRhtpK22m7bShttSm8qzQxckVJbbFuFiHidjfj5PdtSsIdACwKy196Hqa7GPSj8k/lvZ8XrK4UkhSCQInjV4gas12z4ofn+1XRD8a/W7UGu7vTPqcqNvLt03qufJZkx4rWpkPAZjBDoawhClsYQxrmMNeG2gLbaJttJG2mq+07T1aDItlMS22xbhY394at2YzI9ABwMxQ7cyBngFavOQmqfHpomZBu32azcpBEDhN/uY5KtzcXnaL1XNlX3RDwmaQm2jlubOZ5I/O8Y6zHvxvZNtnX8+b9LTRbXz+rE7qpo7qqs7qDgNYwAQ2MIIVzGAHQ1g6DrYwhnVgqhwEATErdsUw3MS02D5IlsP+1P93B4EOAHanrRepqVupnp9eIpm99vQnSd1GTFKZAwHvh7vterHk8dzZu+R3y7arWuvBm3z15vz+5+gXoj+M/nfUCfA9SV8VdYK04IxFZu6c306ePh5jhvr18/taUavQXTapZ9+Wmz1ftk1681U5H585ZX6fJGqJ2qMuRWvbPn9zjGPlkZcNtthkWxnKUqay+cAXPvGNj3zlM9/VQV3USd3UUV3VWd1hAAuYwAZGsIJZXK3MgYDYFKNiVcyKXTE8h4keuksIdACwS629XF09L3QV5jaik8BzY85VWpLKCAg4GbsFftHYvlrUCdKCM5aZ/fP8dvK0Frt31F+Y32ZzW4XuTdn27NsHZ3ypzaQ373Y7OVjFzclYu7ka/FGOpbbt8zfHOFYeedlgi022laEsZSqbD3zhE9/4yFc+810d1CVFVUZAQLuJRTEpNsWoWF2wqGbbJQQ6ANil1h6mrk4Wr40pV39u6br681w2uyobhoDn7HTD3K67QUDMiT0xKBbFpNjMnypFYDYEOgCYDacetX8EXDFaFtXtYbeLfSXM1aL3i/efo3uLQBFYBAExJbbEmFgTc2JPDC5ib795unO3EOgAYLfae8zafjLGPc/1DNe71a5OTOpyizJ/qhSBIjAnAmJHDIklMSW2xJhYm9NUDy8C+yLQAcC+mHTP8giY7OXq5JoxZZlVr2d5Vuz5cnZVikAROAACYkSsiBmxI4bEkpg6QJahdtfOriHQAcCutfjq62tN8Zel2FtHPa+8VNJHRH1NLUmlCOw8AmJBTIgNMSJWxIzY2XlwCsB4CHQAMB62tbwvAiYpvSO7/zBqFTcfHvmDbL81+pNopQjsAgL6uj6v74sBsSAmxIYYWQsGLXT3EOgAYPfafEo1/lScsYSrhWFOne0bR32JzLviJj3lZ6UIbDwC+rI+rW/r4/q6Pq/vi4GNr2ArsJkIdACwme22jV5bu91HWqzr7mtsFqTxoRIkaUGZH29jpVunrURAX9Vn9V19WF/Wp/VtfVxfn1jF684uItABwC62+mbUGUlacMZtUh9yOVncvnLUYjNvSWqGdJJKEVg7AvqiPqlv6qP6qj6r7+rD+vLanawDReDoCHQAcHRE+nuqCPj4y+vi3P2jlqRFspfOtuVnrXPuU6/5WSkCoyOgr+lz+p4+qC/qk/qmPqqvju7EkAXU1m4i0AHAbrb7NtT6f1KJt0cfFvWls5MntWa9Nen/OtsWTfl+0koRWAYBfUhf0qf0LX1MX9Pn9D19UF9cpozmLQJrQaADgLXA3kJHQMDM6vfF7hOiPh9r0ZQTZ/uXoiZe+UiKRVU+l9+VIrA/BPQNfURf0Wf0HX1IX9Kn9C19TF/bX/4N3Ve3dxWBDgB2teV3o96I2gdtTLzykRSLqpwpVbfAyuWT+grdM5K+P9qruICwI6Kttbm21wf0BX1C39BH9BV9Rt/Rh3YEllZz1xDoAGDXWrz1hYBJWb5s99j8uFX0wtETRc8b/c3oI6OviH4k2ue5AWFDRdtpQ22pTbWtNtbW2lzb6wP6gj6xodVczu3m3l0EOgDY3bZvzfdGwKtbH82u50TvFb1W9HxRJ4tTJXUb+EZJ/e0vk/5D9BNRM8CTVNaAAOy1gbbQJtpGG2krbabttKG29Ddtq4219RrcbZFFYFoIdAAwrfaoN9NE4Ktxy0SwFyR1JXn7pFeLnit6gujpo5ZxdYXpa20mjL0h+z4T/VG0shgCsIMhLGEKWxjDGuaw1wbaQptoG22krbTZYqXuVK5WdpcR6ABgl1u/dR8CAau8+VCLZVxdYfpamwljV4zxs0WPF7XymwllXhm7bn77uyvSR2X7aVHviv9jUlezTlzbuBysOqmbOqqrOqs7DGABE9jACFYwgx0MYenvsIUxrGEO+8BWKQJFYBEEOgBYBLXmKQKzI+DE5wtvJpR5ZezvktXVrKvVe2b7NlGrxf1qUlezbl0fK9smpZ0j6SWjbmF7Xm1hmQfntw/HeHb9pGyz9aykrnx9QOZV2XbF/LakVqP7YFIfm/l0UrPcv5z0m1Gvt5ngRm3b52+Ocaw88rLBFptsK0NZylQ2H/jCJ77xka985rs6qIs6qZs6qqs6qzsMYMEWbGAEK5jBLq5WxkKgdncbgf8PAAD//94YpDEAAAAGSURBVAMAwAccC7TFFzgAAAAASUVORK5CYII=;" vertex="1" parent="1">
          <mxGeometry x="-171" y="535" width="22" height="22" as="geometry" />
        </mxCell>
        <mxCell id="g1v90EZW2xBQ1bl9iYu3-13" value="Consola de&amp;nbsp;&lt;div&gt;Administraci贸n&lt;/div&gt;" style="rounded=1;whiteSpace=wrap;html=1;fontStyle=1" vertex="1" parent="1">
          <mxGeometry x="-480" y="825" width="180" height="60" as="geometry" />
        </mxCell>
        <mxCell id="g1v90EZW2xBQ1bl9iYu3-15" value="" style="shape=image;verticalLabelPosition=bottom;labelBackgroundColor=default;verticalAlign=top;aspect=fixed;imageAspect=0;image=data:image/png,iVBORw0KGgoAAAANSUhEUgAAAgAAAAIACAYAAAD0eNT6AAAQAElEQVR4AeydB5wTxRfH32xyd/SOKMXeC1joRTkBESwoCDaqKCj23jH23lAUEBGw/g8soCI2jt4EFET++rcrFqRYACmX7Pu/OTjqlWRnkmyS337mXZLNvjfvfWeSeTuz2XMIGwiAAAiAAAiAQMYRQAKQcU2OgEEABEAABECACAkAegEIgAAIgAAIZCABJAAZ2OgIGQRAAARAILMJ6OiRAGgKEBAAARAAARDIMAJIADKswREuCIAACIBAphPYEj8SgC0c8BcEQAAEQAAEMooAEoCMam4ECwIgAAIgkOkEiuJHAlBEAo8gAAIgAAIgkEEEkABkUGMjVBAAARAAgUwnsD1+JADbWeAZCIAACIAACGQMASQAGdPUCBQEQAAEQCDTCewYPxKAHWngOQiAAAiAAAhkCAEkABnS0AgTBEAABEAg0wnsHD8SgJ154BUIgAAIgAAIZAQBJAAZ0cwIEgRAAARAINMJ7Bo/EoBdieA1CIAACIAACGQAASQAGdDICBEEQAAEQCDTCewePxKA3ZlgDwiAAAiAAAikPQEkAGnfxAgQBEAABEAg0wkUFz8SgOKoYB8IgAAIgAAIpDkBJABp3sAIDwRAAARAINMJFB9/YhKA1xfXpwmLz6GJS+6kiYtfk+ef0oQl34qsEdkkwpAlYDABDPA5QB9AH8iYPqDHPj0G6rFwUeHYqMdIPVa+/Vm94odsu3vjkwCE2KG3F7eTAX8YTfj8fxRUPxOpV4lpMLE6W54fTUT7i1QXyRZBAQEQAAEQAIFMIqDHPj0G6rHwmMKxUY+Reqx0neU0YclXcrL8rCQGJ5IeUw3IlKTqlPSGp/1ypu9MWHyfOubzH5WrPlJMAxXxQUqMQYjAAAzQB9AH0AfQB6LsAwcrUhcrVh/LmPqD89bn95KMsWRxs5MATFy8n/PW4idVQH3NrG4mpvoiBJGWYgj6AfoA+gD6APqAUR9owMS3yBj7rYy1Y+mNzw4Wa1GWkg8zSwDeXlDBeXNxSM72v2RSV0g15URQQAAEQAAEQAAE7BPIlrG2l3KcLyQReJImfFnZpArvCcDEJV1UJOsrVnQHEWeLiB8MITBAX0AfQB9AH0AfiGsfCIr1KxRv+oLeWnyaDLwlltLeiD0BGL4gy3nrswccl99URPVFsLYthMGB0A+IwIAIDIjAgAgMiBLBoIEM4hOdCZ8Np7ylciJOMW2iG8Pxry+u79TJmkOkbiQqjI2wgQAIgAAIgAAIJJEAqwGBLHcm7fbzwdJ9ij4BGL/kUMehWTLDfZwIZndk/gUcpHOBAz4L6APoA+gDSe8DTNzECatZNGHxIfLNHFWJLgGY8HljJ8AzxeLeIiggAAIgAAIgAAL+I7CP49JMenPJcdq1sqTsBGD8pwc5rvuuGKopggICIAACIAACIOBfArUc4skks/ZluVh6AiDrCYGA86Ei2kOkcNEfjwQORGBABAZEYEAEBkRgQOQ3BrUCAf6Q3vq8AZWylZwATPo6R9YTJojuPiIoIAACIAACIAACqUOgfoD59dJ+HVBiAhDYsP4RxYQL/nBxS9IvbsHFlvKNg36Ifog+gD4QQx/Y8r3JTYLB8APyDVJsKTYBCLyxpAspdVmxGtgJAiAAAiAAAiCQEgSY1FWBNz47lYrZdk8A9O19yX1SSfoAEXTgQOgH6AfoA+gD6AOp1Ad28lXJQP+MLAVU2jUHkP077woWBO5konit+68Q2y8wqT5KOY3DWeHa4XAwJ9z1aAUBA/QB9AH0AfSBjOkDeuyTMVC5bhMm7stMo4lohYj1wkQNZCngtl0N75QA5ExYeCCRupKsbzydHXV6uPqf9SNdj74g0rXR2IIzGy6k0xqvoh5HbrZeHQyCAAiAAAiAgJ8J6LFPxsCCs45dEOl6zJhIt6P76TGSWXURt/V9d+TBWylB6+pyExfvt+N7OyUA4bBzIzFliVi52IKZv2XldA53PeaEyBmN3qbc3PCOleM5CIAACIAACIDAVgIyRka6NZoY7np0GzlrP42Zvid5YkmyCwpY38Z/a2VE2xKA8vo+/6R6K3nLkrwciWQdHTmz4XtiEgUEQAAEQAAEQCBKApGuR78TCZZrJOPxayIUvVCJx8qA37d83mf1aOsmr7c8i5A7SJ7F/N+ERGe3ohTdVdDt6J4yvb9utzexAwRAAARAAARAoGwCXQ5dW9C10Xky+N9T9sFRHZETCapLio7ckgCE2GFSPYt2mjwq4js3dz36DhMb0AUBEAABEAABEBACSvHmbkffrpS6V16VWco6QJYVepGM+fq4wgQgeMSSXHnRQMS0vLy52zEhUyPQBwEQAAEQAAEQ2E5g85kNb5e5/bzte7w+472DRy0+QWsXJgDK4e7mFxnwtwWR4MXaKAQEQAAEQAAEQMAiAZkJKPh340UyVv8gQsWL1MdliyJ1lhy15SJAxXSiklcm4nDgcqz5C0QUEAABEAABEIgHgZ7N/3GUutJkrC7UZT5Ru+dsuSKQDzJJJ2Tdf/qm7rjaXwOFgAAIgAAIgEC8CGzq1miijLmzihuzY9h3qB77nYhy25g76jxibgMWQAAEQAAEQAAEyiIgs/zGY27EoVYOKeewsior7X1mWrGp5hr81r80SHgPBEAABEAABCwR2Lw68q5M5a/c2VyMrxQf5jjMhypJJzwL8bu4w1+M4HE4CIAACIAACHglMLBxAZOa7HncZiKH6WAZ//lArz5oPUep6foRAgIgAAIgAAIgkBgCDtFU2mGL+alOAEipmjEr7qAQcd2lO7zEUxAAARAAARAAgTgTUKS+MKlCJgFqyCwA7fY/gmMxWi7MP8ZyPI4FARAAARAAARAwIxBw6PvtFjw9q+LINEJlJbpeZW2w3D+ijgICIAACIAACIJAgAuvKVfjb67i9Va+yQ0zZIjH8fFCik7mDbTo9jtwse1BAAARAAARAAAQSRaDzQZuKxmGPjzkyAZAob1EPCIAACIAACICAXwhIArDj6byX5/ELJTtvwVHlxy16slzeoqUi60QYsggM8sAAnwP0AfQB3/YBPVYtLZ+38Ins1xYfGb8RUlvWY7Z3kQRAG/GZTPo6p1zeomcccj5jpivEuyNEKoqggAAIgAAIgICfCeix6ggmdaXjRD4rP+7TpylvabYfHXa2XgxAXh+tByWDf/l1/7wn/lwiYuyf2PAcG3QJ7IjAgAgMiMCACAyIYmUQIOZLy9Pm9+KRBOgxykQcYvJ+AaDWFXWbpdzatU8Qq1zStiFmbQN+4Ic+gD6APuCHPnBieXfzozbHykJbhm3rqyWAirLmL9nMgMLA8AcEQAAEQAAE0oWAoksqvfKZXs62GJGZKV8lAC47F0o4vvJJ/EEBARAAARAAAVMCgUiA+5sasalvvMZu0xk5+28vEusaC46XRgA3Qj8gAgMiMCACAyKfMnA7kMXN9Hvfb2fbe1tkA1MgAAIgAAIg4BsCsmS/j2+cEUf8dREgUyVc/CetIr0EHMABfQB9AH0gvfqAYlVZIrJUxIzhWOG3GQCJCAUEQAAEQAAEQCDeBBwlKaaJ2HTQxA/osqx5QdAP0AfQB9AH/NwHbI2Z2o5pnJgB0BQhIAACIAACIJBhBJAAZFiDI1wQAAEQAIFUJ2DHf79dBOiHOzbBB5bOBUE/QB9AH0AfsN8H5OvVWjFsH8wAWGsJGAIBEAABEACB+BOwVYNjeiMBW45oO6a+QJ8IDMAAfQB9AH3Av32ALG6m7ZxWMwDrzj1OQcAAfQB9AH0AfSBefcDi+O3RlD21tEoA7GGBJRAAARAAARBIbwLpdRFgercVogMBEAABEEg2AcML70zd30nf0Je0ugZgJzB4AQIgAAIgAAKWCZiuu9t0x9QXWQIwTCFsRkN+8sVqYDAGAiAAAiCQFgSSOU7tCtDMF0kAdjWI1yAAAiAAAiAAAulOAAlAurcw4gMBEAABEEgLAraDcJTMIJiITYdM/NC6Nn2BLRAAARAAARDYlYAea0xkV3smr0380LqYATChD10QAAEQAAEQSAgB+5UgAbDPFBZBAARAAARAwPcEkAD4vongIAiAAAiAQKYTiEf8SADiQRU2QQAEQAAEQMDnBHARoM8bCO6BAAiAAAj4h4C+eM5EvEVSvJaJH1oXMwDFc8VeEAABEAABEEhrApIAsARoIqJurZj4oXWtOQJDIAACIAACIFAMAT3WmEgxJsvYVfLbJn4wSQJQsmm8AwIgkBoE6ufNLl/jlflHVH9l/mnVXpx/ZdUXP3mg6kufDJPHV0XerfbSJzPl9eciP1V9af6aHUXe+7XqS598u4N8XvXl+R9XfWn+y1VeXvBE1Zc+uVWOuUDbrjJ2QbPKryyolRpU4CUIgEBpBPDPgEqjg/dAwGcEar8wf89qL35yukhIBuUXRWbJAP3bus1Z/7quWsqumkhKPaEU3aiIBsrjOSKdJYxW8vpIkQaKVPUdRd7bSxHtv4McqVidqEid5zBfqYjukWOe17Ydh+cGXF4p9a4UH6ZWlySj2ssLrpAko0ONl+bWl+NQQCCtCcjngUwkdjgla5j4oXUdX/3/HbPZjJIp4R0QSEECMqBWkcE1t+qLC26UAff1amM/+akgqH6TUCaI3CGf3Z4iLRXTnvJICRY9C3ACMw0kl5+UL5MPXA78XO3F+WuqjZ3/tvZZkoNWNOTrHMIGAulEwE/jlKEvWAJIp46JWFKbQF5eoPqYBa3lbPreai9+skgG1D9lcJ2iiB+Qwb2rnHY08H+Aqjopdar2mZlmVq3+118Sy7SqYz+5p8aL80/WSxX+jwEegoB/CMTTEyQA8aQL2yBQBgG9nl517ILucoY/ttqmfVeywzPkbPoWUTtGJOU/nxJLOYnjeKXoVpfUe+s2Za0unCEYO39ApbGL95D3UEAABJJEANcAJAk8qs1cAnrgq/bi/CurvfjJ/GCEVziK82Qav5cqXJsnUkTpLOWVzBA4Sg3PUpuXC4MPqr+44JJary6qS9hAIAUImH4+Ywux9KNNfUn5M4zS8eBdEPAJgbyl2XLm27X6i59M0AOfIvWEImoi3mXyZzBLGHQg4mci4cjy6mM/mSJ8zsV1A9IrUEAgAQRwEWACIKOKzCVQY/T8I6qP+eSBGhv//VmRel3W8k8XyRKRcU+4GF7Ek0Z2lNDIlXheqV7tr98lGRhefczChrIPBQT8RcD0MxtDNGUeauhLJp99lMkWB4CAJwJDvs6Rqe3eMogtZEctlfn8G5kU1rujh1lNDh1Ayl1cfez86dXGftJr3xfy9bUEshsFBEDAFgFJAFhsmYioWysmfmhda47AEAjETKDymHk1ZeC/o1q1P39UzGPkFP9YEbGj+ybEGwtqo4jH/h2o+F2NMfOuqTN2cUUBigICSSRg+lmO1vVojjPzxdHzbiYSjYvRHmPih9aNth4cBwI2CdQZO2sPGZxCWaS+dZhDklXX0f0RQjL5YU32IqUeLaBNP2jWVV+eUZ2w+uxWAgAAEABJREFUgUASCJh+rm26bOqLfFfZdAe2QCBzCOgz/hpj5z9eQFk/yuB0BymqmjnRJy3SWqTUHYFIznc1Xpx/l26DpHmCikEgjgQSYRoXASaCMupILwKyxl9j9Pzr5Iz/a2K6SqScCEEokQyqkUu3ZxH9IEnYYNxgSNijJIaA2ay7XR8NfcEMgN3mgLV0JsCsaoyd171GtT+XkaKHJVRMQwuE5BZVSRKvO//dEPxfzdHzepO0UXL9Qe0gYINAYmzgGoDEcEYtKU6gxgtzm9ca+8kMxUrftEf/4xzJAQhC5BcG9UmpMTXHzp9Tc+yCZoQNBOJEwHTd3aZbpr5gBsBma8BW2hHQa8w1x8x/UTnOHJlta5V2AaZdQKoZsTu7xpj5I+qMnYWfXqZd+2ZGQImKEglAokijnpQjUGPMJ2dls/pCHO8pkgrlT3FyrpwV5JGiITI1fossyvdllzopdhuTihweiKgDiML1w8FNNTjgVlXhzVX086AqqKPf06IUN3GUOkXrKkXXSeLzCBO/KjY/Efu6DnnwdXGEwUVhzvqy1uj55/vaUzgHAkkkgIsAkwgfVfuTQO0X5u8pZ/2vK+Zx4mEdGUhlLJRnMhL65Plm8WMOkXpKHgcpck90XNprdZ+mNURarOrT9OzVvZteubpv0/tX92k2Zk2/ppNX9W2+cHXvFv/944Im363u0/KXv89v8+eans3/WdW/9Vr9fEXvVn/o97Ss6t1swcreTSZp3VW9mz66pk/T69f0aXae2Gy6WurYnOXUZtdtwcwXEqthxPSJyCYRv3GqLk32Us3R88fvOWpRbcIGAjYISKcy6utl+hDDAYa+6ExZEnvyLGRxk6zdsx9a16IrMJWhBPSFZKzoC8XUVfcpn8gqReotRXR9gFTryry+qgzuLVf3aXKFPD67qk/z/JX9mv6eqCZbe17jVWv6NZ+7pm+z51f3bXKJ+NB09SansiQijeUL5Srxc6LI3yJGn2eL+t3CTvjzmi/MOyNRjFBP+hIw7Zc2yZj6IksAhimEzWiM0iodh1VnYCyDCFQZObtGrdHz9MCl7+BXI8mnstKZeSGTe4/LbotVPzSps6pvkzNX9W36yB99m8z6oV/uRt81zcDGBatklmFln6ZPip9dVlX4oSYr1YyZblbEMlshCxHGn2/B4t1GHVnOeLP26Hljqr3wqb7VsO8QwqFUIWDUD8sMMrYDzHyRBCC26nA0CKQbgZovzG+SFQwslLhOE0lWcaXifDllvogCgXqr+jZrvLpv89v1mTaFlH6PUmrr0SMiMxTzV/dr+sDKvs1asorszcSXSXxTJI6ISFKKfF32DqrNS2qPmds6KQ6gUhDwEQEkAD5qDLiSeAKy1j9IKZ4hU2n7Jr72whq/YFY3u67aVwb9E1f1aTZyVa/GvxW+k0Z/Vvdp+YskNEMlvnYBJ1xXEoFrJTx9gaU8JLw0EOZTdNsnvGZUCAKlEkjsm7gIMLG8UZtPCNQeml+p1gvzXlYuD5VZ5RyRRM76b5T6nifXPU4G/SP1WfKaC5r+7BM0cXdDX3AoicBjOnZ23ebkqhHCY61IItsgS7d9zdHzR+2L/zQY9zZPqwpkGsmor9qEYeiLI2c+koyTZyGLm598sRgWTPmMQM2xcw5TFSrMk/52nojnvu9B9xfRuTV7c6DBqn7NLlx1QYtFPkOTcHdWX9Bi3qoLmg4MU/be8mV0o6zTLxdGCWsTh7nfeqowvcao+Q0SHjwqTEkCpv2ztKBjfc/UFywBxEocx6c0gTqj57dzIs5cJjo8UYFIXTLNT+et3BzYb2W/Zvf9OrDxqkTVnSr1/NXvmL/+6NvsoZWbAvsr4t7i92KRRJUmAcULao2af0KiKkQ9IOAHAkgA/NAK8CEhBGqNnn8+M0+SyqqIJKJ8xUznrfqxacNVFzR7lQY2LkhEpSldhzD6o1/zF1f2bXqMUnyWnOEsS1A8e0h9H9Z+Ye4FCaoP1YDALgQS/xIJQOKZo8YkEJAv9isV81g5G8+Od/VSx4+seODKH/89snDgT8Wr+OMNqSz7Mhr/0bf563/82PQoObSHyNci8S5ZRGrkHqPn3UDYQCADCDhKvq1MxCYjEz+0rk1fYCtNCITYqfP8vCGK1ROKybi/iw0qRdZKknH9HhUrHryqb/MRFMoNpwnF5IUhyZMsm4yT5ZMjHJevFvZ/i5TWBqbvKXLpwTovzL2fmFXyAkfNfiVg2v9KisvLflNfMAPghTp0UoLAgUO+zqmz9/xX5Wv88jg7LFXQuCCpI/64oPkjy3ocuTnO9WWeeVkaWNG/+RNZATpAEQ8RAK5I3IqM/Tft8cL8FyiUH4xbJTAMAkkmIAmATAGky28akgwT1fuHwL4v5Jf7p9Lqd5hYpo9N+3ip+p+R47ZZcUGzHr9m0E/5ktXSv/RptnrFBc2vlBWCVuLDp3H+3WCfOntXePnwvKVxXzaSWFBShkCp3wcSRVnvyyG7Fa87yqqr9PclAfBaMfRAwJ8E9Bf2Bi7/unjXXiRepYCUCv1REGz6R98Ws+JVCewWT2BFv+Zz/ygINJN37xCJ24yLTiBXrVs3sX7e7PJSDwoIpBUBRy9ymYhNGiZ+aF2bvsBWihLIywusXrf+RfG+s+4TcZIvAqxa/tGv2Z24sl9IJ6vIsoAsudyl3MBx4sLCOLU1id2OBetUHg1fkCX1oGQ4AekPuk94luLwed1n6gvuBOiVPPT8R0AG/zpr93mFWKb9S5/5Io+rXhF2+aHK69Yc91v/Zgv8ByAzPVpxYZOlMhPTglx1r7SrK+K1fUvRU6fWCYRHUYgxa5qZ3Wx71KbfLdstmT8z9AWd2bwJYMEPBJhVnX/2GUaFa/5xcWgVK3XKHxe2uPGbKzpviksNMOqdgMwGrLiw2W1yRqSXfeLzr5EV9dyjwbynvDsJTRAojkDy9iEBSB571GyRQJ0X5j1Lii+0aHK7KUVzA8o59o8Lmr2/fSee+ZHA7/2b54eDbmNmmhEP/yTBGLTH8/PuiIdt2ASBRBNAApBo4qjPOoE9Rs69TqZ9B1o3rA0qfrpmpUon4Ap/DSM1RP/nwT+WbzhRkXosHh4r4lCd5+fE+6el8XAdNn1IIJkuOUpqNxFRt1ZM/NC61hyBoZQhUGfknNOkEz+o29+ybFak+qy4oMXl+F1/ynSH7Y6GcsO/9292rcwKXaSICkQ8X7RVvK56os6oOWdvrxDPMoVA8f2Bou5fZHEz9cWRMycyEovBGPmhL4aw6Qts+Z7AnqPmHq5IvSj9xrwf6/6zXdYpdrvIADLW9xDgYKkEJIEbKdOcJ0ofWSVi9l23vX9oO46KqBf2GjXn2FIdwJvpR2DnfqD7QmyyExHDF4a+yGfD0AGog0ASCOzx3Nw65JL+xz5VbVYva8e/uEytfruw5WSbdmEreQR+7d98pqMCrcWD70TsFUXl2VXj6o+cXcOeUVgCgcQRkATAMIWw6quffLEaGIxZJLDvC/nlZNr/TUm79xERy6b9Zqs+8+dBouZ/XNR8iRhFSSMCv/Zv8lVYhdtIf/mviES2tc3NpwX2LyB6lfLyAmIUJSMImPad7ZDMn5n5It+jFPXahSLa7ViyuBVnP5Z9Fl2BKR8T2OiWe0YRt4ilb5R5LNOioOK2v1zUfLmPQ4drBgRW9W/9KzkFJ0hf+FRkt+8yr/scUifttbb+PQauQTWFCHjtJ0V6NkMtsun10bHpDGyBQLwJ7DlydnfF1M9yPZ862c5Jyy9sucayXZjzGYHfLzh+5cZIVq64Zff2zaxu3PP5OT3ELgoIREkg+YeZXzxlMwaz2QybnsCWDwns+eycfR1Wz5nP2kpw2/oaL8jaHG73S59mq2UvSgYQ+HNg47/DmzaeLInkXIt9SSmXnt/ruTmHZQDCzA5x23eHYPDyXNSsFS/176CDGQBrLQFDcSUQyg+qIL0sfdfiRX+8ICe4qcNPg9r8GVffYdx3BFZemrsuWBDuLP3J5vUelSTQMfgXwkIBpUwCfjgA1wD4oRXgQ5kE6tbLGSzrXC1FyJJ864b5lB/65f5VZuU4IC0JFCZ+gYL20p++FLHVr5rUrZ9zS1oCQ1CFBEz7SqERS39MfcEMgKWGgJn4Edhr5KzjiZTNL9U/Aq7bccUlrf4gbBlNQF8TwMo9WSD8LGKnsLqt7sjZx9gxBivpScAfUSEB8Ec7wIsSCNR4aW4Vxc5L8ratn1mtd9k99eeBrb4VmxlXaj0/s3K9EfMOrjtyTqu6I2efUW/k7O57jZzba6/n5g7Ya8Sci/TreiPnnVLv+bm5e8l6dt3hCyqkO6TfLmz1o2L3dIlznYiNkqVYjT1wyKQcG8ZgAwTiRQAXAcaLLOxaIVBuA99NTA1EbPx8O6yYz/l9QKtPrDjnYyN64N5r2Kzj6z43+/q6w+eMqjtizhyRNdmRwD9M7lfk0kxy1Zvsqjzl8ljFPFymE0fo1+y673CEpyimZaQK1ms9sbForxFzx9QbPvdaed1+/+ELLF6LkXyQvwxo9RmR6in9zMq/E2amI/8tV/0uwpZ+BFhCMhEiEgt2iokfoosZADvNACtxICBnpcfJF/KltkwrVjf9MqDlO7bs+cpOKD9Y/7k5beuOmP1w3RFzFsrA/bdynGnE6iFZ3NY/m2wu/lYX8VKqi41jFHFvVvyIGPhwoypYXW/EnPl1h899aK8Rszsenrc0W/andPn1ouYTiOlmi0FIsjS7pUV7MAUCVgk48qGWzzZ7Fpve+MkXm3HBlgcCeXkBRe4wRSyP3vun6Bf17fG/DGgWl/8O5yE6Oyoy6NcbPuuU+iNmv1Kvbs5KZs6Xs/jrJOZjRYIiRbHH41GWZLiJUu71chYx+e+//llRb8TssXWfm9XluOELsuwEmHgrvw5s8ZBSPMYSu4BiGo5fBSS+HeNZo2nfILLnnakv8tm15wwsgYAtAnX/rH+JfHk2tmTvy00B9wKSb3ZL9pJqpv6wuQfVGz77cRn0l0tM7zDRueJQNZFkFl1/L8XqrRVq81f1hs/pk0xnTOpmN3uQzAQsNbGxTVfRkXXr5Qzc9hpPQMBHBJAA+Kgx4MoWAvsOnb+nUnT3llfGf9cHyD1rVf/Wa40tJdmAXhLRZ9nsuP8lRVcRUR0R3xVJSPYjxaMlCRhFMkvhOwfLcOjXgY3/JRXoJodZ6TOK6e56T8+rKfZQQID8hAAXAfqpNeBLIYGCQPhJOQOrJmJ84Z8iNfCnAa2/KDScon9knb21TPXPcFx3gTDpJRIQMWYTdxvE/erVzX4wFbHLctH/iNXlJNmMBamusiKhVOQAn4shYNonijHpeZehL46Smk1E1K0VEz+0rjVHYChpBOqOmN1SKeqh29NYFI1fPqDFy0kLxrDi+sNnH1V/xJx3HXJnKFKtldhLOWF1Vd1n57QS11Ou/DKwxRj5ghxrg7kEf/HeI2YeIY8oKU7ArD/YDd7UFywB2G0PWDMk4LCy9dFTHU4AABAASURBVF/VVhZE2NovCAzDikld/4Sv/vBZ+oxRzvi5c0zK/jvYCTh8pf/cis6jnI3O5TLVYuMmQUHXdYZEVyuOAoHEEEACkBjOqCUKAnVHzGkvX7a5URxa5iGSGQ9IxTv9yVT/KQ5t/i+RuoOIUv6ndRKDnkE/rc7YxRX181STb65o/o/Msl5ixW9FJ9YdNuc0K7ZgJCUJ+M1pJAB+a5EM9sdxrV349+LPA1u+lUoo930hv1z94XOeVKTeFr/3FkmnUi6wYX2DVA3ol4Gt3pVlqbE2/HcU30nMyoYt2AABUwLSH4mUpLhehSxuXn0o0rPoCkwlmECDYbO6KOLmRW3p/ZFXUYD0FfKUKlt9WeuPbMpZqJivkLgLf6woj0afS7/pB12V0lfBq3DkKmH6m4hpuxxT/7m5+n8PpEr3hJ+7EPDeB6iw75DFzdQXmQGQ0V9P0nkWi9F49qEoBpu+wFbCCIRY+iHdScbtz3JyRbcsv7DlmoT5bljRPsNnnSID/0yJ/XARsVbUl9PrMRBxl0twKVv0fw5kdq+30UbKdQenLAg4LgRMP5tiwlox80V/8VpzBYZAwAuBBnVm9xC9RiKGRS1cvqLl84ZGEqMu08ANhs++3WXSU/5VElNp0mr56/tVLW1cSJe0AHTFyy9u9YokALP0c0NpXm/4TCvXuhj6AfUEEvBjVUgA/NgqmeaTUtdZCJld172MQsolv295eYEGw+a8INMV+p/FZMB6MI+mVGgXKmOTxRnlsv5Fg3EfU6xuLaM2vA0CcSeABCDuiFFBaQT2LvyNOB9X2jFRvjfml0Gt50Z5bNIOO3DIpJwGa+rnyWJgn6Q5kcCKJbtZG+DAkwmsMq5VyVLAQsU0yrQS4dKu3rBZLUztQD9VCPjTT1wE6M92ySCvCi98k/GQTGQjFbDvz6jqPza7/ObsqhNlzb+rDCIm8ZrqbpT6fyGmxeLLR4rVMsVG/Ev0R2Y5LvzhkhY/UBptgWDgNuWq9abMAkw3pRGWjAnFtN1tgjL1BTMANlsDtmIiUHfotAaypto1JqXiDx7+8+Wtfy3+LZ/sDeUHnfL8mgy6JyXUI1brpb4pIg8J67PZoQN/uqRVeZH6P1/S6mjlOncQcX1533qR5OKGny5pnWfdcJINfn9R8xWS8Qy14MYpWz4DFizBhK8J+NU5JAB+bZkM8CsYCOo79QUNQ93IYZbBzdBKPNWZVYM62cOlitNF4l8U/UWKxpFSfTbwpj1lsG8ncqMejH8e2Opb2rrtI1PQ7PB78tL6RYjMfOuPg1o/LLbTskQiQd3nTP9ZUCDoBC9IS0AIKiUIIAFIiWZKPyf1dLicDV9oGpnMXA/1+9n/3sNmPyBrvon4op/Bis6orXL2+OniVj1+urjl2JWX5q4rjvE+Q2e3ZKbJ8p71wV8pdf3Pg1rfJ7bTtvxyWbPV0qZPWQiwP+XlBSzYgQnfEvCvY450YjIRm6GZ+KF1bfoCW/ElEKjgnidtVlPEe/+T6e1sIn0mFl9nDazv88xsHecNRnFK/aXou4r4TaWopZzlH//zxa0mLBzYuEBUSix68Cc58xebVUS885cadtOXwf/Hi1s+Im+lfYlkqUcl/n9ETBg22GdVPdwYKIV6i2F7W43U1BdHzsJkCVB8klMpT89F1Vrx6kORnjVHYCjeBJhVb0/9rait5VHWmJ//9pJWf8TbV6/2935mxnHy4RppGmfJ+jzLUe6xP17SuuuPF7eaE42fhYO/kml/piol2xVLwjfm9111/Y8ZMvgLIdI3nJKljlExc9qFrczaXKTtQVKEwC7tV1b77/a+zTANfZElAEMLNoPZjVSsvll1BsbiRKDekLn1ZfBuLYOj1BBrG2873g0Hwk+LAV+WA4fMlbNrNV5iLC8iPm7z28bzlZL5X/DjJa3afH9xm8ViMKqyZfB3ZdqfZdrfqj8SIl//46WZcea/M2yWZQCOCADZ7Y2pfBZOafDUzLpiACUlCHhr5+19xGaQZr5IAmDTGdgCgbIJBLMKzpajzPqerF8vv/iEr8WOL0s4GJaBgfYly5tiymPiQ34Y1OoFUvIqSvvbB3+qHKVK9IcxyeDfOiOm/XeF8tOgNt/JecvEXffH+DroBKgvYUtDAv4OCdcA+Lt90tI7RY5eFyc5i/UsDinf3lxmn2dnnElEvU3i21VX7IVlrf8mGfjPkUHnT3kdddGDv1Lue2Kzsohn5iXo3vLjpZk5+Bc1gMPqCSUvjESpbmICJQUIGLWz5fhMfXEs+wNzIFAqgf2HTTuImI8t9aCy3mT68vtBLT8s67BkvF9/5OwaxGqE5bp/kw/qiT8MavMgqejP+rUPWwd/mfYnmfbXe+yJeHL9D4Na32/PYmpa+v6yVtNlInapkffMx+z39Kx9jGxA2XcE/O4QLgL0ewulmX8cCZxD8m1pKMNjHQgThTG4ke+XgbGWYXw7Lhd+6wS4+feDWs+INYa9n5reSpGs+bNM+5sz3+6T2GLm677P8DP/ndqDebRhmytW7hk72cQLfxJgcctERN1aMfFDdOXEwporMAQCZRKQ9etzyzyo9AMipApeK/2Q5Ly77zMzm5Ni43sbbPdefR0MB9t+N7DNT9v3RfdMD/6O4+ib/Fhf85c2vO7HS9s8Gp0nmXGUU5D1knyfho2iVQoJgBFAvyn73x8kAP5vo7TxsMGQWQcQqcPIbPv4h0tzfzczEQdtZiVngE+IZVufqS8jLrf95ormy8VmTAWDf0y4rBz8/VX69sBKL7V4t8fU5uDh+bW8G4AmCMRGABcBxsYLRxsQCAS5gxJ9M+GXxYTvyn7PzjpN4momQhbkt4hL7bzc4fAAmfYPyJm/+BCHC/4YZ/6l9LxAhEYLd5P2D4Qj2acRNl8TiLaNSzrOZnAl1RHtfltnKzZjgq00JSCdsr1haP9ml1NvGtqwrx5ifS3N3VYMM212yDnL6+DvyuAvflif9ifSa/7+mPY/cMikHInRd2VzgZokTul/viQP3gq7jGUAb+ig5YGA/uKSz7ZoskcRNWvFqw9FetYcgSHrBPT9zl3KlWly7/2N1Ltf9W9t+g9YrIe2f83ZZ0pcDUW8x7a1D8tCwhXfXtpydqxO6jN/V8mafxwu+JOgrvs+mWv+sryy39BZJ+0/dNab+z094+eIU2Xjfk/P3CDy1f5DZzy43zMzD4mVVzyOX35Nyw3s0vtG/YCoLf43APl72/pZLb2dJYSSjpO3rJWS6ohyv8wARHlkidFaC0UM+ckXcQfFGoH9V9Y7VgaSGiJi01s7M/O7ouy7wsq92iSubbqKn//h0tbDYw1wy+Cv3hM7cubvja3oSrXF6Krknvkf8OysPfYdOusjYvd95sKr5Otv9bWcPB7MTDeQy0skMbitbSjf9D9LCgOzohyeIH6JkWJYlvgdutOxVfb5vU5DMYDiWwI7tZd4GetrUbFWYq175+NxDYC1hoChUgkwt5clADIQV4WDZhdZleqgtzflrLSJxNRKxCQ2rftLIJJ1Taxe6MGflXpP6re+5i9OJfXMf/+nZxzMEXeBTFOeKPGJO1SSZMv7d/9UOziMkrwVbAq8I76ERUrytcz9Qcdpk+QwUH0pBKJp29KOKcV0zG+VVk8078kMQMx1QgEEvBAwXf9f9P1VzVd4qTiuOhy50op9pa745orm/8Riq2jwFx0585e/dsu1yZz214O/fIHlS0gNRKIrTP33f3rmVdEdHJ+jZBlgjZxjzTSxLvpIAEwAQjdqAkgAokaFA70SODy0NFumRVt61dd6zCxT3PqZf0T/wx8i1ZUMN0U88btLW78Ri5l4D/7fXdbmsVj8sXls0eAvA6GHf5DDt+8//MOqNv2J1ZZ8qX4cq84ux7fe5TVephSB1HFWZtfEWfmkRbc8VcyxsstaMfFD61pzBIZsEvi39t+HS/8qJyJ5gFjWbRWjBFTAdwkA0+auElN5Ec9xie4mDqvLhUrUZdvgH5cL/ujapA/+TPmytl9X2HjhWoMKyveLGmY8DmTO9+h7Ubx77v/ktIPi4RpsWiAQ43fXbn3BggvbTBj64sg0G5nINkcsPDHxQ+tacAEm4kDAcd1jdPsYyIaqWTkL4uCaoUnV0yCmos/dmO+uiv5Ofwc8Oa0l6TV/Gfwt1E072hAYNyd18JdBTzFNET/q7uhXzM+ZzxIbSSs5q2t8IpWvj9lvUSrSIcfBLIDw8GMpaqOSHsvabzOmsuoq632ZrbLpDmyBwO4EpBM22n1vTHsWLBzYuCAmjTgfXP+x2TVk9GxrWE2EnMDD0do4UN9J0XHelTMK62v+SsmZ/+VtHojWF9vHFU77O85UsVtPxLS02Ofx6XuZGvGqvyx05GY5lZ/lVV/rSXs0048QEIgnASeexmEbBLYSOHrro7cHpeZ6U4yfVnYw0lGsB0RMyrhvL235TTQG9E/cWPE4ObaaiNUig8213yR7zZ9JX/DnYc2/WBROIIuSekMdxWoGGWzMxrfMNqgdqt4JpJYmEoDUaq/U81a+ycRpoxkAdsl3CQAp1VniMipMKup/qPNTzUAXOas8xqjCYpTTcPAvjFIG4A6FT5L0hx21yKRqRWz6PzNMqoduhhDARYAZ0tDJCvOgx2fuR0zVRGT8Ik+SpXyWAEhSo5hPMolJdP/33eWto76uQQa0/qLjiV9JesqlpJ757/fEzEPEh3zxr66I1diI+XjSt2iWLpeMEilwPzWMqfbBj+TjHwMlo/HKqpPlgBIkqjYXdWvFxA/RdZR4bCLWAhFDJn5oXTGB4jcCQfdo3TYG8vtXl7f+1U9hHfDM1AMknj1EyKs4ytXT+VGHJfU0EvFc3266iq/55srk/dTvEBn8A447RfyqK2Ivrm3fZ1TzoKqzk3ZHvR+vPv43iet3Ec+xUTaWAaL+gCTwQJM21bo2XdX2TARLADZbA7Z2I8DkmP6c6cvdjCZ5h3IDzU1dCEdUXrQ2Dg/p+yiQvYvaFF3zzeXHPx5t/baP04N/RAZ/sWtrzV9M7V7YCbfafW8i9/CnJrVFOIBlABOACddNvQqRAKRem6Wax9Hfya2YyJjJdwmAnGSaXqH9v++vOn5JMeEWu2tZ4VXlZOefIGXI4F8IUimja08KbRj8YVafG6hr1cP1HwgIxIsAEoB4kYXdrQTYKAFwHPZfAkB01NbgPD6wl1vFfuuxsu1qmTT466gVJW0JQFdPpIzaTCk+lLClDIFUdNRR4rWJiLq1YuKH1rXmCAxZIyDt0kBE1kHJkzAp3yUAkjUfYhKT6M6nmDc1W/Q8Mdyqtz57dY2hMVdrSUFP+7sy7S++yJo/mcQRvS7Tkcm8EDBA/K3EG72/RDsdS0RxXSIR+ygeCJi0qdb1UGWJKtqeieBXACWixRtWCDDVlylz8irBcOQrK35YMqLvM89Me3qNR+sxUewJAPOHWtdAKm6usaaFJQwxmSkc/JU7RXyvK+K5L3jQrXhY1Rl1YnLW4sGOG/nu+OwrAAAQAElEQVTWg8/b+CiXkua7RQzpZ0o+wLu3q4QZ7X451FqJts4SjpOTGWuuwBAI7ESg/mOzy8sOk58ycTiw4Tex4Zvi/JtzgKEz/9Zf48a8NuyW2zRV6g2LeC7KVab/kTHmurcN/kk6m40EyGgJKuaAd1D4st7Kn+XlZhFvRVFNysszvdmUt7qhlREEkABkRDMnJ8jsQEF9qVnPUMmDp/LnN1d03uRJM05KTtAxPSv7YWooN+aB/LuBHf4WkLHPHOzIQXGHHV/G+/khT8w8xNVn/kRJm8pmN3kJAPXoERHGJj9hDez3aw2TBFqqR0kEgVStA9cApGrLpYDfWcT1ZdDaaV0zxtcrfBemy7VijGHX+L3PaDB9ZFh3430fz7d+K+Hi2kgP/iyDv/ibuDV/cUTq24m3vEha8iHukGJetatPsbzOCWTtoe1A/EMglvYr7libkRRnP5Z9mAGw2RqwtRMBdp2qO+2I9QWT98Ey1rqiPZ5d0y9k7zE57kfRulnCcYFsJ5hbwnvWdh/69IyD9eAvBpM6+Er9Mv5TJf2YNFFqlUndrqtM+5tJ9dCNikDqHuQQMxmJzdj95IvNuDLVlkPlzPqW+4fv0CkZUMz6qedZjco5leYKz7Uinj+zzPFdBtBn/m7YzRcf64p49tOerrRXMjsRu6tMYmHXOOFMZvTpWbfZ598uE0NfMANgtzlgbQcCyuUKO7z08FSt8aAUVxWZXssyqUA+r3961d/yL5F5mld9racofgmAHvyZIlOknqSf+YsPhUUSnoqFT5L0h8lsBkCRqpEk11FtlARS+TAkAKncej73nYn0rwC8e6nURu/K8dF0mYImlpVjpi9MPySz7cBDH8/f18zE7tp+HPy1l0pRUq+ilwH8HzLYTPuLQdVQzQACuAgwAxo5WSE6DpVXUrlXISbfJQAOU8BrPFqPWGULEs+FHcf0QkBylerg2YFiFA95YuYhJGf+El88LvhbLnb1Wr4nkTXOgmJcTtguxbzZxH9lmHAmLNAMqmjn9qSY+yVZ3Ex9wQyAxcaAqZ0JuERG069y9ua7BEAp9e/OUcb2SpGbFZvGzkd/c8Xxy2TPchHPRbG9+wEc+uiMg0kGf3HG+rS/LJeMkG/XMWLbc2FS3n+H77nWHRQdNkpAmMxmjHbwBE9BYDcCkiDLPull5FVE3Vrx6kORnjVHYMgGATlbLue5X21pU98lAOTyP0YxuSrHlK0MjB8b+UDUjkLsmPqhz/zZcaeKL3VFyKYopqH/u+r4i8VmTRED25zcBCCiNpn5jwTAtJ9a19/y3VTYJz21rU2HDH0x/hKwGQtspRcBGajKGUXkJvnLu1jneW2xu6PcyYr0zZGiPLr4w2QWwvTngDUPqjazSfHWo9urB3/iSL4cvZeI1SLTmkO/vOr4y0lJGuBSbSPjiox+hmdUt1ZWZn2YFQe0GQgIxIMArgGIB1XYLCSgFEXky5w8iyKj6fJCJyz/YeWs8RyP+CIZ94HyYFQCmyP6OgDJJcgz2wC7sw59fNrcwx6bdvehj00/4fDQ0qivTdCDv5LBXzjsJeLZhxJ0tw/+RCR9yOjGSw4pzz+7JEtbCXFSVPtxDYClVrBnZnu7UXRtSLTTcWRxM/XFsegLTIHALgSU0W18ZYQzm0HYxRsbLwNK6fu7m5jan1giM7Cw7Ibc30V9qYhJCYhyM/HkNlI81a26es0hT0x797DHpl996GPTjirJx6LBX3Stn/mLzZ0Gf3mty0H6j1dxI5zUe0nIF7TRL2FE3+hXJ165QS8zCCAByIx2Tk6UzEbrr4XXECTH85Jr3Rz+seQ3o3qn0uEPT60T1ZGlHaTYdBlgV+sVZcK9s0w5PyanK0sOfXL6r4c9NvVFSQb6HPzYx/X0wYke/A97fLpOMowuLnSCyuiCSR23iTApowSASBkl0YQtbgTSwbAjmT4ZiU0KzP7xxWZcmWqL3U0mfYvZ9d0MwLLr266QmDaKeO6rkSAdTYaby/ShiQ9l6rq8p3wae0qQox0KLD/0salfKDc8TfT2EpHd8q7p57VI33WLO/MndiPHUdEx3h431/nT/d4QtZG6Q255kxiU6/5t5ACU7RPw1he3f2ZsemToi6PEGRMRdWvFxA+ta80RGLJDgJXpb6B9lwCQUjJrTl/q/uZZ2GlnCrhceNN0qd+MrzghNihKOVyOqyMS7fHRHcc89Mtr2m654E/82ak4znGG9X3r5T8v7uSD4QslMwBKbHgWpZAACD8/lS1tSdH1b6LdjiOLm6kvWAKw2BgwtTMB5bDRXdBIqSo7W/THK6XoMzLYJIcwTgCWXN9xvbgwWyR1iwz+/y1p8JeoFHEreTApX5oo29Bl5qomdlwkACb4oFsGASQAZQDC20YEzH6CpWhPo9rjpezSp4amGx38SH4tQxuizh/Ln5QscuYyorTB/+jH86sR0wkmwTHxfBN9O7qOUR+WL+i/7PgBKzYJpIst6V/pEgri8BsBmSxfbeQT+zMBYFKmX8pOMEBtyXCTGRbT/wtg6IFHdTnzX3b1CRfLDA+XZGEjO13kvah/mijHFlN4TjE7E7yLje5jEGHXbBYtwdGiutQi4JD+CJqIzXhN/NC6Nn2BLWMCjlKrDPuX0dmTcQDFGDj8saltiHioYVz6urDWxZiPadeyuqsWiB8rRcQlUdWfAd8LDy3tzF+iKCyK+SzDuAoqVqzySaGxZP5hqmMShxN2cA1AMtuvuLpZdpp8zkTdWjHxQ3QdJZ6YiKhbKyZ+aF1rjsCQFQIbA2qVbhcDqXnc8AW+uRlQ4eDPNEniqSRCZqIKf1pnBLpHj4iM/KPM/CDDOKLXF1+jGvwPf2x2DYmpg4h335gWLBzY2Oj/NpCFTWIwunAy4rh/WnADJiwSkDb13i8t+qFNmfqCJQBNERIXAt/s+fsaMWzyz1Ccgr/Wmv9mXpwwLUWDv9ipJGJemK2c2alA8BlxZq2Ir4usx0c1+OsgmAsukUej/5nADk8SG0ktBw6Zrqf/TX7Jsu5/1+WaXUeTVALpWXk6RYUEIJ1a02+xFJ6hktGd8yJBZXQnOBtIrA/+W5xavuXB7O+yq9r8REpdaGYlvtqxDP77hvLLKeLLTT1S7LxrasNUPycSPtjQRlLvYWDoO9RTgAASgBRopNR2URl9ibmKDktm/HEa/MllfttWXMuuOSGPFF0g9jaI+KrEMvhrx8tXop7yaDbro2j5smuON/qppvhgXJgdwwRAfWfsBAxYJpBe5hzFTCZiE4eJH1rXpi+wZYuA+4NuG68ScN1DbXkSq53DH5raRrk8SXyvJGL0OdlRX7LuRV9ed+LCWP0p7fhl17R9IaBUM2L+j9RVIGLNXwNbUU/769j09R4OqesN6tsSs0uvkFKsbSZTpO8cbBZLBAlAMhuwhLrN2tRutzT1xSkhRuwGASsEpIOZzQCQSkoCUDj4b1lHtrPmv5WmfPwjEY5cvfWl1YfPrznh82XX5Z6jgpEGrKifInpZKtD/OEgeEl6GfnFtCXf4K8GVTevWXknEhmfNYsFxx5ZQRYJ3K6NYmDEDkOAGK7O6dDtAvp/TLSTE4ycCpl9iMoglfAkgXoO/bhdZ377iv9e1m66fx0uWXtV+xbJrc0cvvS63pwzCdR3HaciKr5X63hPRdxCUh7iWmAf/hg/m12emO0y9UkotWnbNiV+Y2rGkf6SJHXYYMwAmAKFbJgEkAGUiwgEmBBxHmf7b2nqH3vdRTRMfYtGN5+BPTFd/cd2J+qr9WFwyO1amwgtnBq498bEvrsvtzOtW1nAcbiuD7b1ieJ6ekZBHmyXmwV9XHgnQ4/JoPNvCLg0TO0kvhXcyJDa6gDWIGYCkt+PODqTfK0fOsMhEbCIx8UPr2vQFtuwQyK5Y8UtFRv8USAWznOZ2vCndSkNZ85fB0dLv/GmnzxXpwf/63CcoyduyUI/Nn19z4rRl1+feJglB8+wA1VKsuspa4rOK6GuRnfyO5bUoPi0zDpeTJB2xhHnEo1O6ST1niZCRMK2sEsh+KZa643Ws6/JxEosS8RrTpsi6lZgBiFcDGdg1aNPCvmBQ9W6qpr7gToC7IcUOmwQWDmxcQMz/lQGQPAupFjZ9Ks7WEQ9NaeUqfld8rCTi3Vc5pd5VXzHd9IUPBv/i4v7s6ty/ll7f9s2l1584aOl1uQe7Lu2lXNWDXTVCsfp111hKeF2gdIzX5sY8+B/20LSDpL7nS7AbUzswq2fnXNPSF7+E4IhqYhKT8PxMJ2vFtRn2JYfAtlqL+YzH1NbbDFl4YugLlgAstAFMlEWAl5R1RGnvqzgnAPrMXyk1WXyoLGK1yOfz6s+vz33QqtE4Glt2Q+7vn9/QdtwXN7Qd+Pn6qQ1cxzmWSN0gX3D6/w7sOriuI6Lhrooc7SXGhg+/XzGg3DfEhtF/zBN9Xdar7HBil1d0rSWJouNKeiua/S5R8m9jHI2jOCalCSABSOnmSxHnWRklAEzcpHteXiAe0erBX8789V3jjNefd/VPD/5f+PTMf1dfi30dCrnLrj3hU5kheHjpDbknLV0/rRI5zt6u6zZzI+F9DttnZbWl1+devOy69suK1S9tp5yuRyhnhBxidKGc6BeVJ/TFj0UvkvoosTGR2f96YEYCkNRG3LXy9HyNBCA929VXUckAPsfQocpf/FynoaGN3dQx+O+GpPQdoZC79NoTfl52Y7v5y27q8NO4LXd6LF2nuHdlgDzikalDFPF5xb0d+z61JhikR2LXi4/GUY9P10nNnibWFQeQAJgAhG5UBBwlh5mIqFsrJn5oXWuOwJBVApvKbVwg7bNJpPAiGC+Pjssn23RKD/6sOC4X/ElWfXVKn/nbBF2MraMemfqYMLrMSz8oXse9V1/LUExVydkViXQo3k+Ksv+rf5ZuyP+KsPmGwI6OmLXtjpbMn5v64hAzGYl5DNst+MmX7V7hmSGBb67ovEkxLzDrZ25nQze2qTd86KM2rNxJ4k8lEbP+v0ufVeRevSSVp/23UYrPk4YP5T8szK8SscTd/Ty7SpWn4uOtR6uuam8Sn3xWFlIo5HqsHWrxJrDLZz7mtrbpn6Evkojb9Aa2QKB4Akw0q/h3oturmJof/tjkGtEdXfJRWwZ/RwZ/sr7mrxTL4N8u6T/1Kzn65L3T4rHZ5Y96aMpLshx0nUUv2CV1SeEvTSwaNTF14JBJOaT4eBMbkpzON9GHrm0C6WsPCUD6tq2vIpMB3CgBkGCCwUjOSfLouWDw94zOSPHwBz7ce11440wxcr6IvcI08osbTjTtV/b8EUvlN5ZrJw8VRQyK85GBMlRBIGoCuAYgalQ40IRA+fIbp8p6VYFIlOugtNtxMmfseRlAD/6knEmSiFQy8aFYXZz5U0lbwwentAs6AX0NyLHFshNFL/vli+ubyAZ1jaj7qohfZjc0UrRuQ86GGb4KKsOd2TV8L/11R51d7Zm83tGul+eYATChD92oCcy7ovM/dTU0UQAAEABJREFUcvBsEe+F6XQ9lRyrgaMfmtKKyHmX2P60P7O6acn17TDtv0ujHHX/jOoy+D8pWdwH8lZtEZslzK7qtSyUu86mUVNb+r8ZMlMXIztMH+trZoxsQBkEoiTgkCzOGkmUFUV1mJ98icphHBQLAXZJr73LibxoeWvrquvDG2OaBdBn/i7TZOnjlUVM6i5Gl6/+/MbUucmPUI9/YVYNH8zvo5wCfRX7FcLc/Dtml74iVdy25MbcufEPJrYawn/+c6LEW0OkmL4itnaJo7jjlKv0P2ySg1H8QaAYL6Jox+Ladtu+Ykx63mXoC2YAPJOHYqwEOODqu+3FqrbT8Yq55047SnmhB39iJy43+ZFv+KuX3Igz/234QyHnqAfzz2j4UL4MzDxa9ts+6xeTQp0o7/Mb2j5U+MJnf1jxWaYuFVAYCYApROhHTUCWrEhm6bwLWdyU2DIRUUfxMYGl17X7XNp3uYjnPkekOkfzawA9+CsZ/KUu62v+ckqLwZ+2bHrau+FDU3o3Kn/8EuHypvBuKuK5fcvQ/Sx7w/p+pBRvqd0/f/VtjRWrHmX4T2W8v1TfYMk/UcGT4giU0YZltXFxJj3vM/UFMwCe0UMxZgLyxS1n8K/HrLezQnZWQVaPnXft/Kpo8Je99n/qR3z1Zz4789eD8DEP57eXqff+jR7Mv/HoBz6+qOHD+UeSzJULA+tF35b56Pvz2x790JRnwn/9s1wxjZFKjhCJZ1ke5EiXhaHT/o1nJV5tKzfYgxRV8aqv9SSrwdm/BgFJGAEkAAlDjYq2Esjb+uj9QTkXlKScSYO/Puts+ODH98gg/JPr8oeKeKRMkj/ASo1QLn/e6KH83xo9+PGrDR/Kv/Co+z/avyRmZe6X6f1jH5x22NGytt/owSnD//d9reXscD4zXSK6e4jEu/zhRlSHhTd1+CneFXm1z+Rc5FW3SM9hfqvoOR79QCD9fZBZO5bvDAOxyUi+UeSsxbs/Nn2BrbgQ+OzGE+cw809G7ey6TeQst+WuDjZ86KM2ylWTxHYc7vDnrzN/Gfz3U5HgQjn7vlXi3VOkuM9NHWI6R7nuc45S3zZ64OOVInMb3T/lpUYPTLmz4QNTeh99/8fdC+WBKV2Ouf+j9g0f/OisRg98fLnI3Y0e+Oj5Rg98/FGjcm3WRDi8jNkdLfUMECmpvuJ8MN33l1Kq4+e35H65a3v75bWwPEKx20K4mMT6jf5s+CUm+FEKAT+NU4a+YAaglHbGW3EgoJcBFI0ztSxnuVfsaGPb4E/2f+qnFPlq2v/Ihz4+QAb/6RL/ISKxlFpycDNSfL6MVINlxmAMK8orFOK3XKU+VKx02wyR424jUnqmpR0RVRVJRlnlKKfDZzfkfpaMymOoU8+ExHB4MYcqNZaUkjOxYt7DrqQQyIRKHdOLCGxC8pMvNuOCrZ0JOOS8ZtrWirnbkfe830Bb1oO/I2f+YrOSCFkVnw3+x8ngH3RJ31SpvtU4iexyIzKy5yj1c9B12nx6Y+4C8vHW9L6PairifoZtwTJz9aKPw4RrOxAwbOsdLJk/NfUFMwDmbQALMRLY+qW+OEa1XQ8PBoLBQUWDv7xp/YI/GcF8deavB/+IDP4Sa32RdC5fOBxpvdDH0/5F8AsculSeVxDxXpimf3Zz7g/eDUDTPoHMsIgEIDPa2YdR8nOmTkn2e7E+8xc7GPwFQpqUtzaonBZ+vuCviLO+KyWTuqzotddHdkj/isKrOvRAwDMBh1h0TUTUrRUTP7SuNUdgKO4ENgZelr73r4gsR0ttuv1il2qiX0nExMbuuq6/1vwLz/wjNFXirC+yu7+xc/OjDVdiu/OzG0/s+tWNrddSCmwbN2/oKz7XFjHh+e9GyhmfAuFmlIulBmv6eSvVeIxvGvriyFkUmUiM7pZ6uIkfWrdU43jTVwQ+C+X+pUiNU+KVn8RhGfxvaeebe/vrwd+VwV8YpfGav/qZXW7/2c3tQpQiF8K1DeWXI1Y3S7uQobyeKgmPfFRRhIBhe4sFe8XUFywB2GsLWIqRgHLUsBhV4nq4ksF/kY8G/2Pvzz9QD/4SdPqu+TO9FqasRotvbZ8vcaZM+TsnImv/XHgRqonTrkNPm+hDNx4EMscmEoDMaWvfRbroxty5TGqmTxy7yU+D/9H35+/L5H4obNJ18F9OzN0/vaXduZ/f3OZPiTNlynEPfFiVSN1M5tusxTe2m29uBhZAwBsBJADeuEHLFgF2H7Vlyqsdfeb/6c3tHvSqb1tPn/krcmeI3X1F0q1skAXzu8vllD/401vap+Tat+s610mj1BQxKkz0pJEBKMeFQCYZdRQzmYhNWCZ+aF2bvsBWYgh8tnnmREX8tW6/5Ahd7acz/8LBnyP5wqK+iNFn02f6BY7rDnMjdNCnN7cfPOealpIIJKaP2ayl4YP59aW/Xm2B7XfVNjlv2vQNthJDwLTtbXpp6gtmAGy2BmzFTiAUcpnUY7Er2tBQvhz8mSidpv1loFfPOYoOXXhrh0sW39buFxstlywbwUhE99WKFup/aGooN2zBDkxYJZBZxpAAZFZ7+zLaqpuc0YpoeWKdw+AfZ956oL9VZQf2lhmWAQtubv9dnOuLu/nG937UQSrpLmJafvmn0ubRpkagDwKmBBxTA9AHAVMCcia00VXqXlM70etj8I+eVUxHridFLymlOh5w4Jp9Ft3S/r6F1+WuismCTw8+PJSX7Tr0lB331CPfXNF5kx1bsGKTQKbZQgKQaS3u03g3bVo9Slz7QSTOBYO/ZcA/E9MImcE5M5wVqbPo5va9Ft7c7oNxPXpELNeTVHM52dVvkDhj/edLxfn8Q5XNjq9+/lqck9iXGQQcJQuOJmITk4kfWtemL7CVWALLQj02O8x363aMl5Drw8HfjeTLwFLfesxE4xw9MDPNF9sbRMiCbFQufaqYh8mA31dR5DA5y9970a3tBy68pf1bS67vuD6xvSYxtR3zwJRGDqvbLfCTNuBbp4ZyNybGc9QSG4HojjbtB9HVEt1Rpr5gBiA6zjgqAQQqFQTHEqkvKQ4bswz+t7XzzR3+Cq/214N/HC74k5x+uJyFn71AD8y3tm+2/0FrKkdc92AZvDso4v4idxKpZ5lZ/we6N1nRR0VCRG+K/mtE6imZzr9DKbpYBvuTIk5gv4UFMysuvK39sfpiPhnwxyy8pWNc2op8tB04ZFKOE3GlX1K2qVvCcYFwe9XUDvRBwBYBJAC2SMKOMQE5MwrL4HSFsaHdDKibFvlo8Nc3+VFuJF43+Rm5qGDmINrhlrp6Ov6z20/6esHt7T9acGuHUSKhhbe2G7Totg69F97avqucxXcoksLXt7Y/V96/Qgaruxbc0n74glvbf1j43+pCIXc3tGm+o+rabEmWqKGNMF1X3bhju9iwCRv2CGSiJSQAmdjqPo5ZDzZM9J49F9WzMpj56iY/ATcSl5v8CLfhC29pN4BCmTdQ2+sv2y01vu+DVvJK3/RHHswKE09cdHu7KWZWoA0Cdgk4Mi1FJmLTHRM/tK5NX2AreQSUilwj7VkgYtQ3tb5DfM5xd398QPKi2V5z8/vz99Vn/uJXfRHj2Ha0IZn8bmf+22vGs1gJHHPfpNrEzmvCOCBi2lbhLGXl1sGxhoHjoyYQ/YGm/SH6mso+0tQX+X5kIjaQsn2M/ggTP7Ru9DXhSB8TWKjXlpmHGvVL3R9EZJ27ulLu+BaPzS6fzJCPvX/ygWG3YIZi3tdGXDvZIHf4Jzjzt9e8oZATcIMvC+P6Imbfj9IHxcawebe0X2bPQVhKKoEtbeq9X9h03tAXOXGw6Q1sgYAdAjlZ5QeLpZ9FbJSjw+vXj7RhyIuN5ve/t6+KBD8kVtbv8KdIjVxQMHsQKcVefIPO7gSaBFqGiJS+6Q+ZbtIov4TDwdtN7UA/vgQy1ToSgExteZ/HPevG1mtdVoNsucmKzmt89weX2rIXrZ0tZ/6BGYo4Hv/YZ9gnt2LNP9q2iOa44+798BRW6tZojo3mGKWciz4L5f4VzbE4BgQSTQDXACSaOOqLmsCi29u/I1Pmeh2WlGgZi1KPbb2wS6zFv+jBP+A6+UrO/I19F3d3tCEvhy24tf0gwpm/oLBTmtz7wdEO06vC2fh7UWzIFDGNXXBru/fseAcr8SMQm2XdtiYSW22lH23ih9bFDEDpfPFukgm4kazLxYWVIjZKtnLVu83u/cjKz7pKc0hP+wfiNO1Peto/POtSDP5kbTsm9EFdWaKZKAYri9gov2dFIlfbMAQbIBAvAg6xmDYRUbdWTPzQutYcgSG/EFgYyl0lTXuJcT8VI1ttVHVdnnTMPR/vE68Ym4fe2zcSycqnwgv+pJbtdeuzQjORwf+T8MyB+KmfcLVUWj04s3IwoN6V/tFAxKx9trf1pXNCJ6+x5CLMxJFAzKa3t7G3vhJzhaUoGPqCGYBS2OItfxBYcFuH1+WTNsaiN/WCrjup6X0f1bRos9DUsaHJB0YCgRmFg3/hHnt/WBHW/O3hLLSk7/S3afOG8fLiaBE7hdW4T27v8IYdY7ACAvEjgAQgfmxh2SKB7OwKeingW2smFR3OEX77uNDbFWzZ1IN/IODkE9m/2l8P/ljzJ6vbccMXZFX/OytP1kJPsmj4Z9cNDLJoD6biSiCzjRtf7GITn3wQyURs+gJb/iKgfxUgnbWn9I+wiFE/2UG/RSBQ7vW2ofxyptG2kDP/oAz+SgZ/Jcasipz5Y/AXqBZL97y8QGDFXy9LO50uYqs/FUgf7bFQlq0sugpTPiNg2l9shmPqC2YAbLYGbMWVwLzbOsyVpYDbLFdy8r/B8DsNH36/ole7evCPyOBPMviT7U0G//m42t8qVT34//hV9RdIcXebhhXx9Vv6qE2rsBVPAplu25G1SvlOZe9ik6DhXY1sugJb/iQw/7YOD0mfHSfivc/u2s9cbldug8qXgbxGrFEXXvDnOB8SU32rPomPitzn5uNq/1ibpNTjDw/lZf/0VXV9l79edtvLnSCD/5BSK8eb6UFAPptGfccmBUNfMANgszFgK/4ElOIKbtYFUpHtW6s2iTjOR4X3gBfj0ZTmoff2dZ2ArPmT9Zv8SJjPzYvMuRhX+5O17bjQ2xUqOVUnMPPZ1oxuMfR1JNvpQ9JoW17ib2oQgJeyZEVkso5AFjcTP7SuRVdgyscEpoZy1zlKnaVIrVXip0U5JjscnNpK/yZc7JZWZLbgQHYCM6TufUWMPkO76svZxbPzbjsJP/UrrQFifK/1/e9UDzrZHylSJyvRtSj/Ktc5a+FNHf4WsygZQMC079hEZOoLZgBstgZsJYzA3Ns7/Fexe75UGBGxWQ4POzS3eWjysSUZ1YO/6zj6zN/6vf3l7PTZ+YNPwk1+SoLvYX/j0Ef7FxRkzyBSLcju5irmC+aF2i+xaxbWEkEAdRAhAUAvSFkCc+/o+DYRD4pDAA3YcWY1u+uDnrva3jLtL2v+JGv+u75p+kk7rqEAABAASURBVFrxc/N5zmWEqWRTktv0m9/1QauA486RHUeIWC2s+Drpg/+xahTGQCCBBBxiqc1ERN1aMfFD61pzBIZShcC8wR1HKFaPG/dj3X92lnJic2zTOz94QNbhCxNlPfizkjV/pn3lPck9yKLwc5j2F54Wiwz+FzLTFGmrPUQstpU4yfTo/Ns7Pi7PUFKSgIHTO39PxN6vDKreTdXQF0eJRRMRdWvFxA+ta80RGEopAnN51nXS/m+KkGVRMvLf2Fy1HN8y9MHRpOKz5q+In503WNb8ceZvpd91GjIpp8WdHzwtg/5z0h+yRez2C6bX5vHsG6w4CyMpR8C0P9kM2NQX+X6z6Q5sgUASCIRCbjnOOk9q/lgkHuVMV9EiMWx9zV9OH56dizV/QWunNA19dPCffwbnMNGldizuakXlV68R7iuzQu6u7+B16hCAp1sIIAHYwgF/U5zA1FDuxn8rcBcJY5ZIPIpOtu3aZfUMBn97SJvd+UEvR7kLxeIxInEovKQgh85874rOm+JgHCZBIOEEkAAkHDkqjBeBJdd3XF+Qo04R+3oQkAcfFz3439EeF/xZaKIWock1mt/54UuSoY0Vc5VE4lB4icPUAT/3iwPahJtEhUUEHGKZLDORIks2Hk380Lo2fICNlCagv6ALOOtk6deLRWSG3bB/635lX56Zi8HfSj9rdufkbkzqC9I/CbXfTkX9Z6GbFThxdqjjH1achpHUJmDaz2xGb+gLLgK02Riw5QsC+p+xlKPstnJGOEfE7gVgEqGJTVF/bu4dJ+HMX0CYlJah9/doEfpgrMNqvLTHniLxaucFivik+be0X23iL3T9Q8DUE9O+Zlr/jvqmvmAJYEeaeJ42BKaGcv9yym/sKAFNF/FFYSI588fV/iaNcdzwBVky+F8hLL+U0/NeJrai0J0hfejEOaGT10RxLA4BgZQjgAQg5ZoMDkdLYNaNXdZups2dZKB4P1qdeB0nA5Ye/HHmbwC4xZ0fdsz+dfViYfmkmKkuEs8yZX1F6qT7UDwrge1EE0B9OxJAArAjDTxPOwILQ6f9+zf9c7oEpi8Qk4fEFxmwMPgbYJcz/iNluv8dWeefLPP8hxmYilZ1HFWpfKq+qDRaBRwHAqlIwFHy7WQiNoM28UPr2vQFttKHwLJQj81zQif1VS6FZM2MdV9JmBC9PjeENX/ysLW6ffIRLe744D/EtFgxnxL3NpOpIof4bukrZ8+5puUGDy5DxecEbLhn2g9t+FBkw9QXzAAUkcRjmhNQPPuujncycV8JdLNIokpXOXud0Pz2D1olqsJUr6dNaNLhLe94/1V21BJF3EPiScT31EZ21fmzQicPJtJfq4QNBNKeQCI+WGkPEQGmDoE5oZPHkqIOIisS4jWTvsHvaY7DM1veMXlG68Hvn0ahED53u8IXJq1CH3RuGZo8OUKBpfL2OSIJ4SSzQr8r5eTOueukV6VOlLQlgMB2JZCQD9iuleI1CCSTwOxQx+kRijQWH+aKJLCo1q6iiS25xdetBr9/c5PQu3smsHJfVnXcjR9WbRl6/4qW1OJLZn6XWHUkSZoS5qyixUROs1mhDgnuCwmLEBWBQIkEcB+AEtHgjXQmMC/UeXnVNZG2itQwJYEmWPYnRfdlU/CnVnd88LokA53ahvKD4kZGFB1rKznbby3T/OXKu7/JhPuTIgcluA0061GV1lGrWXd2+Em/gKQ3AVvRmfZTW35oO6a+OGR4JyHthDXxky/WgoIhvxJ476nOm2bdedIlyuU+8jlYK0IJFZeziN2uUumkAnfTb60HTx4hyUAHPUD6lZlXv7p3zwu0uf2DVq0Gv/eYxPozue67csZ/DrlcnpgFQULlL5llOGf2nR37f/BIx/VeY4JehhIw7a82sRn6giUAm40BWylJYObdJ49l19X/QGZeEgOoJUPgRTISfiAD5G+SCIxsdfvkHk1v/qhmEn0yqloSmUqtQu91bXXH5Bd+PazKb65yZxKpq4koaUsfcsY0O+LwMbPu6vgf8QMlYwgg0OIIIAEojgr2ZRyB2fd0/jbLyWktgd8tEhFJZqkliUB/WSb4T1ZW+I9WgyfPl0H03laD3++g18yT6VhpdesBv8Xg9zpu8XXyDElkVpGrXpez7b6iV1skmUW36d1BJ+eEuaFOPyTTEdQNAn4hgATALy0BP5JOYGooNzzrrpMHu446Xs4U/5t0h7Y4oD+jTWQQvUWSgg/K5UT+bDV48n9lkB3TevDkS1vd8V7rtqG3JWHYcnCi/upERGYo2ohcJn6MEJ8WyID/p0Nq8hZfSSdTOYnyp4x6vmVHnajbVrdxGcfi7TQkgJCKJ4CLAIvngr0ZTGBOqOPsyn+6xzhEd0sisFlETsbJL6LEn0MVU28ielqxmhF2s1a2GTx5VevB781sPfj9kW1unzxY5ELZd8rxt086ps0tk/dqcXVeeTk+qqLP5I+/9f0GrW+f3KjN4PfatRr8fh+xe4c8Hy2PU1sPnvxD+ZzIX+LIdJGnxOhF4tNxIkERv3DSfmzSbeiu/eco/csP8RMFBIwJmPZxYwd2MGDqiyPZupxYiEVZgPT0XFStFa8+FOlZcwSGMp2AvkBwxpbZgOPkczFPxOxzUtRH4/TITDWJVSti7i9V3CnynOx7xyVnEQfo10ClKv/KgM4if4r83vr2977dWSavlP1rRDaFI5vWug7rK+M/Y1YfKebRYjfErPTFkicQ0z7E0kN8LMw8hV1upNtwzuM9cFc/aa7MLZYjN+33Nt0x9EUSZJvewBYIpBcBOXNcOvPuji0kqj4iv4ukeqkmAdQhUvvvLKSXEfQ/2Mmm1N5WiPt9Zt19cvtZ93T6Sp6jgAAIlEAACUAJYLAbBLYTUDzz7pPHFgTcQ2TfQyKbRFD8RWAzK34qGMg5VLcV4Xa+hG0LAfwtmQCuASiZDd4BgZ0IzAt1/kcGlxuDATrSYTVO1t9YRK81Q4RUklhEFNMLwQAfMuuuTldMDeX+Ja6ggEDcCJj2c5uOmfqCGQCbrQFbGUFgaujkb6bf07GHS3SUkkRAgtYrcfKAkkACmvk7FOBjZ9xz8gVT8dO+BKJPparga2kEHGL5HJlIadZjfc/ED60ba304HgQMCMg68xc6EZAPUTPJxN8z/izpPgyhMjkSvxuJRI6dcffJp80IdVpi0IRQBYHYCZh+RmOvsWQNQ18wA1AyWrwDAlERmHZ3p0+m331yZ3KpkWIaIUobRVDsEtA/xxznMreYcXenU2ffd8pnds3DWjoSQEylE8A1AKXzwbsgEDWBGfd1WjL93k4DA0E+SDLrh2VW4G8RXB8gBA04/CpJ1e2RoNNg+j2desy6t/NcMYcCAkkjYNCXC78LbDpu6ot8T9l0B7ZAAASmhjovn3ZPpxucYLk9ZfDqIYtsHwkVeZC/KFES4IWkeKAwPECSqntmhzr+EaUiDgOBrQTwUBYBJABlEcL7IOCRwNRQ7sZp93YaN+OeTh0iSh0li9tPiqmVIijFEWD6QU6RHmBZSpl+T+fG0+/uPGKqMCRsIAACcSHgkD4vMRGbbpn4oXVt+gJbIGCRwJYLBjtfVeertXs5TG3kczdE5A8RyQukIt1/M1NWC4MRmsn0e0/ef/rdnW7WSylCBAUEjAjETdn0c2rTMUNfMANgszFgCwTKIDBuXI/I1Hs7zZx+b6cr16+sXV/OeE+RAXC4THfrW++WoZ02b38vkYxQ7JxU539r6wiLgZoJCQTCBgIgkDACuAgwYahREQjsTGDhiMYF0+/pNGn6fZ0unn5P530CjjqSWF0nR32siDaISH5A6SBrFNN4CeTioOIDZcDfX2TgtPs6fqgTIsIGAtYJxM+g6efSpmemvmAGwGZrwBYIGBDIv/vkL6bfd/KjMji2X7eydlVFrP8HwbWSFLwlZlPpIrjviekNZr5JkdtkWta82tPu69Rdkp3hU+7p/K3EggICIOADAkgAfNAIcAEEdiWgZwem3tt57rR7Oz027b6Tz5THOgFy91XKOU0G11sUqf+IzjKRApFkFV33EkU0RhFfrRTlqqyN1cXX/afd16nb9Ps6Pzj13lMWUCjkJstB1JuZBBB1dAScMu+6VdadhqKrJ7qjyqqrrPejqwVHgUBKEphy7yk/Tr2n4zsyuN4/9d6Tz5l2b6cj9vjf2vLhcME+jstt2aW+it07id3RxPy2JAqz5fF/IqtFKAb5S45dJfKdnMXPI3bfUMxPErnXMrtnM0VaBShcX9ctPjSaem+nvlPv7fzE1Hs6TZ0aOhP34idsaU2grHGorPdtwimrrjLexzUANhsDtkAgwQT0GvqsB0//Kf/+ztOm399pzNT7TglNu++UftPu63z6tPs6tZLHQ0RqiSiVXb5yxHVruEx7BF33gCIJqEh9vX/dqj2y9XEi1UVk2r7zAXIW33zafad0m3pf56um3XvKY9PvOyVv+r2nzp5y72m/6LoTHC6qA4EoCMT3EJnxIhOx6Z2JH1oXSwA2WwO2QMDHBKaGctfNfODUP2fc33nlxw+c+l2R6MFc79fLDj52H66BAAhYJoAEwDJQmAMBEAABEEgeAdQcPQEkANGzwpEgAAIgAAIgkDYEHMVUePsNr49kcfPqQ5GeRVdgCgRAAARAIOUIxN/hovHG66NND736UKSHGQCbrQFbIAACIAACIJAiBJAApEhDwU0QAAEQAIHSCeDd2AggAYiNF44GARAAARAAgbQggAQgLZoRQYAACIBAphNA/LEScBQzmUisFZZ2vIkfWrc023gPBEAABEAABEwJ6LHGREzr31HfxA+tixmAHWniOQiAAAiAQEoSgNOxE0ACEDszaIAACIAACIBAyhNAApDyTYgAQAAEQCDTCSB+LwQc/Q8BTMRLpSXpmPihdUuyi/0gAAIgAAIgYIOAHmtMxIYPRTZM/NC6DrGYMhFRt1ZM/NC61hyBIRAAARAAgVQhkFA/9VhjIjadNfFDdI2XANrd+O4CW2LKxZYfsGOvTcESLNEH0AfSqQ/4aZwy9cU4ARAHjrMoYsqo2PQFtojAAAzQB9AHfN4HEv49ZTRIibJNnmLOezG+BkCvI0CIwAAM0AfQB9AH0AdSqQ/YmAEgbCAAAiAAAiCQDAKo0zsBh5gJAgboA+gD6APoA+gDmdUHMAPgPXmCJgiAAAiAQFIJoHITAkgATOhBFwRAAARAAARSlAAuApSGS6WLNuAr4YJLIjAgAgOijGeA70OzPoAZAMIGAiAAAiAAAplHwDG+EyALNAiBI/oB+gD6APpAIvsA6jLtb5gBkD6EAgIgAAIgAAKZRgDXAEiLYx2JsJZIBAZEYEAEBkQpwQDf2+bthBkAwgYCIAACIAACmUcACUDmtTkiBgEQAIEUJwD3bRBwcOcnJjAAA/QB9AH0AfSBTOsDuAZA0iisJRHW/IjAgAgMiMCAyPcM8J1tp42MlwCYVWMIGKAPoA+gD6APoA8ktg+Q4WYtv/M8AAAQAElEQVScAHzw6KkLIWCAPoA+gD6APpCYPgDORZwNx38yTgBMHYA+CIAACIAACIBA4gk4pncSSrzLqBEEQAAEQCBTCSDuHQiwPDcQ44sApXoUEAABEAABEACBBBMwvRgSSwAJbjBUBwIgAAIg4JUA9GwSQAJgkyZsgQAIgAAIgECKEEACkCINBTdBAARAINMJIH67BBxFTCZi1x1YAwEQAAEQAAEQiIaAyditdfErgGgo4xgQAAEQAIEkE0D1uxFg2WMgWAIQfiggAAIgAAIgkGkEkABkWosjXhAAARBIQQJw2T4Bx/R3hPZdgkUQAAEQAAEQAIGyCJiO35gBKIsw3gcBEAABEEgyAVQfDwK4CDAeVGETBEAABEAABOJNwOACQBJdzADEu4FgHwR8RuC0AW9XOOWaCbmnXD2hT+erJvbqdPXEE9qG8sv5zE24AwLbCOBJfAggAYgPV1gFAd8R6HT5pNqdr5441K3IK5jVFCY1mhSNVURTK/69dqV+7/QrJ9TxneNwCARAIC4EcBFgXLDCKAj4i8Cp105sHQiGl8pgP0g8qySPMvbTNiEivW9QxFGfn3L1O23kNQoI+IQA3CiJwK6f41hfywwAi20TEXUUEAAB3xLofNWbR7PLk5h4D9ILf6VLbaLIe52umXCMbwOCYyAAAlsJmIzdTLgIcCtGPIBAOhKQtf2gUs7LMuZXFoli/BcKTBUDLr2qdeUVCggklQAqL4WA2fgvCUAptvEWCIBAahOo8PffPWTgPzzWKOR75ZAKf63tGasejgcBEEgdArgGIHXaCp6CQMwEHFLnxrouWHS8TA/2iLlCKICAVQIwVhqBos+q10enNON4DwRAIMUJuNTYIILjDHShCgIg4HMCSAB83kBwDwSMCCiqaaBfOxQK4TvCACBUzQhAO74EZJZPKpAFP1knjPYCoZ2PE3UUEAABnxJgWuf5s830ryQArk8jg1sgAAImY7fo4hoAdCEQSGMCStESr+uDinhJGqNBaL4nAAfLIuD9s02kdTG9R9hAIJ0JqLe8Rsek3vSqCz0QAAH/E0AC4P82gocg4JlAOBIcJcorRGItq3lzYGSsSjgeBGwRgJ34E5AEgKUWExF1FBAAAV8SeO+pzv8Qq4FELGv5UX/OmRVf/O6zp/7py6DgFAiAwFYCUX+m5fjdj8VFgIIFBQTSmcDbQ06fwEwDiSksIrmARLv7d0HR/jCzGvTOE2eMl6NQQCBJBFBtVARK/hwXfZ5LfdQXAW5WUpNX6R7KyyZsIAACvibwzpAzRhI7beRzPk+k8AKg3R/5E5kSPOGdIV2G+ToYOAcCIECdLp+Us/tnmEr4bBe7f5N83mktGWwb15avYqAOVRAAgQQRePup0+dOHHJGc2J1rJw4XC/VDiVSz5Li61zHOW7ikDObThhyxmzCBgJJJoDqyyaQ5RRUK/uoUo9Yq2cA1pV6SBlvBgrC+5RxCN4GARDwEYGJT3X59O0hZzwyccgZl00c0mXQxCfPfPSdJ05f5CMX4QoIgEAZBBTxvmUcUsbb6h+HmVeXcVSpb7vkHFnqAXgTBEAABEAABKImgAOjIcCuOiKa40o+xl0tMwDqa8VEnoX4BMIGAiAAAiAAAiCQMAIyA9DW87itx3xSX+trAL4y8pipc9tQftDIBpRBAARAAARAgIgAoWwCAwYMz5KjOol4L0xfOazUf71bKNSsU2XVP50Ln+EPCIAACIAACIBAXAmsKFfnVKmglojnohR/6ZBL0z1b2Koohm7a+hQPIAACIAACIOCRANSiIsB0bVTHlXJQOBCc5Ux8usuvspbwPxEykBZnXvqGzkhKqQ5vgQAIgAAIgAAImBDocsVbZ8pY3UrE+5jN/N93Hj/tF30NADGrKcTikoHIUsKQ02+YUFmsoIAACIAACIBAzASgUDqB7gPyqiqXn7AwXk/RNRUmALIOME6/MJT91L88goj1zYkMTUEdBEAABEAABEBgOwFWBdlZz8vrvUWMimIuvNV3YQLQqNaSqWLtZxGjIlMS55xx6Vt3GRmBMgiAAAiAQAYSQMilEehy2YT75P1uIqblx6NrLS689q8wAQiFQq5YfEnEvCi6rctlb92DmQBzlLAAAiAAAiCQ6QRYyZh6v5xg27nYnunFrWM+FSYAGq+j3Gdk7n6TCJmKQ3zrmZe/9Vqnyyfh/wRouBAQAAEQAIFSCeDN3QnoNf+ul701TsbUm0zH5S36aqOrnGeLatqWALzxVLflimkMsbxlQ1zqUc7dtLjrZRNOF4soIAACIAACIAACURLoeulbZxZkZS1hpm62xmVZ+39B//KvyIVtCUDhDjfyoDwWiNgq+zK7E7pe+uasMy5784ytdy+yZRt2QAAEQAAE0oIAgtAE9BipB/4zL3trDhO/IWftxhf8abtbZbMboYe2Pi982CkBeOPZs76TWYDHC9+x+EcmFFqK3TdXZu3x65mXvTHmzEvfuOCMy99s2v3yvNqyTJBjsSqYAgEQAAEQAAHfE9Bjnx4D9VhYOCZe+uZYPUbqgZ+Ym9sOQJKJR98aduYPO9rdKQHQbxSEg3cq4h9EKA5SSxKB3uLI847L8yJu8I/y7saNXS99gyFggD6APoA+kJl9IBPbXY99egzUY2HhmEjcS8bcWiJxGHvpp4rlK9yrx/gdZbcE4O0Rp/2r2LlCDmIRFBAAARAAARAAgdQlwIoil7z4SMf1u4awWwKgD3j9mTPeZqYhpFMACIGD9Ar0A/QD9AH0gbj0AXy/xHOMkVn3R18fetYkobxbKTYB0EfVDq+8Xh7niKCAAAiAAAiAAAikGgFF852V4VtLcrvEBGDEiIEFYSdwlqxN/CAiaxIEIQIDIjAgAgMiMCACAyJjBhhf4sWQv6cCPmPcuB6bqYStxARAH69/L+hQoIM00Ar9GgICIAACIAACIOBvArJSs8rhYKc3RnT7rTRPS00AtOK4Z7p8w457qjaoX0NAAARAAARAwA4BWIkDgZWkuOO4Z7t8VZbtMhMAbeD1p89a4IZVc2L6VgQXwkg2BA7SM8ABnwX0AfQB9AE/9YEfHA60eWNot0XyDV1miSoB0FbeGnHmtw6HT5Dnn4iggAAIgAAIgIARAShbJTCXI9wymjP/olqjTgC0wrhhPX5ZXad6S0X0oAiL4AIQAQMOhH5ABAZEYEAEBkRgQJRIBqwUDXFWhU8oa82fdtliSgC07tRQbnj8s11vYuV2YeKf/TT3AV8wF4c+gD6APpAqfQB+WuirP7Lrnjr+ma5Xlna1vx67i5OYE4AiI68/c9bbmyPZh0qac6fs2ySCAgIgAAIgAAIgEH8CBaR4iFKRI18fXvxNfqJxwXMCoI3r2waPf6ZbyHXoEGLWdw7ciIvjhAwSWwuJLTjis4Q+kM59ALF56t+bmelFGfgPH//MWVeOe6bHOrHiuRglAEW1vjG024/jh511paLIgbLvPlkT/1lEJgcIQgQGRGBABAZEYEAEBkRgQBQrgx8dpnuCweB+rw/r1lsG/m/IwmYlASjyQ18kOH5Yt1uP2PPzfZVDJ8r+Z0W+FEEBARAAARAAga0E8BAFgf8y81BSqq2MqfvnDe92+2tPd/k1Cr2oD7GaABTVGgqF3LxnuuWPG9ZtkMhhgWCwniI+W5YJ7mBSr8px+qeE38njapESb1Mo76GAAAiAAAiAQDoS0GOfHgP1WDi/cGxkvkOPlRGX6srYefj44WddNu7ZrtP0mBoPAHFJAHZ1VGctecPOyhs3/Ky7xg/rep4E1lTkAJFaIjkiCtINDIalPoNNm4NVpP//LmJaVmtbqf65yM7aUFVArBExLX9oW6nOA/5v+YyDQyEHPfbpMVCPhc0Kx0YZI/VYGevP+bx+uBKSAHh1DnogkGoEymWFb1ZMe4qQoTw6cVSXtakW/67+vvxUz3+US08YstAs9whvqnADYQMBELBGAAmANZQwlOkEul74en1hcKWIaVm9sSD4tKkRv+hn5Wx4UnwxngVgxdd0H5C3t9hCSWkCcN4vBJAA+KUl4EfKE8gK0oMSRAURo8LMj6TD2X8RBD0LQExPkPlWXqnA3eZmYAEEQEATQAKgKUBAwJBA94vzmsrAfS7JSGcoqzeFs4YauuM79S2zACyzACy+GUnPcwaObyxGUFKUANz2DwEkAP5pC3iSygTYeUTc17e/kAeTwg+n09l/EYktswBsYxbAcZXSrItM4xEEQMAjASQAHsFBDQSKCPS4aHw3h6mN+YVuvIIDnHZn/0WcsnI2PSmMVoroi/q8i8snnD1wXJciu3hMJQLw1U8EkAD4qTXgS8oROG3A2xWUoodtOM5KhcYZ3trThh/xsqFnAWSK5B4r9lkN6T4or5IVWzACAhlKAAlAhjY8wrZDoAJtvEss7SdiWv5XjVc/b2rE7/pVaLW+O+jXFvzcWxU4t1mwAxMJJICq/EUACYC/2gPepBCB7gPyjiJSV5CFTbG6acSIgQUWTPnahI6RmawM3DLzcu3ZA99o5OuA4RwI+JgAEgAfNw5c8y+BUCjkBCgwXKa0s0TIUOa99lzXt/wbrV3P8p7rNk6RmqPErKEEFfPTRKzNiDUUfxOAd34j4PjNIfgDAqlA4L+/HjmQmFsQi7eGosi9jgoviaMM2RS7im6ywU7aoPXZF47vmyHgECYIWCWABMAqThjLBALdB+XtKYPXfVZiVfTGqyN6zLRiK4WM5A3vNl3cnSBiXJRyHureL6+2sSEYiCsBGPcfASQA/msTeORzAoHNgSEy51zNgpsbyAlca8FOSppwInSNOL5RxLBwrUBQPWNoBOogkHEEkABkXJMjYBMC5144vqdSbnclUwDm4j7w2rAzfzDxJ5V1Xxl11ncyhf+wOUcmScjOOmdA3nmpzCO9fUd0fiSABMCPrQKffEmg+8V59WSpXv9jG2P/ZMD6aZ0qn/F3tItU5vuJlJUkSLEaev6Wf8hE2EAABMomgASgbEY4AgSEAKtgWI2UE/8aImRBrnh7xGn/iuGMLuMe77FBAFxngaduk2ouuaPkiRKbKD4iAFf8SQAJgD/bBV75jMA5F75+ubh0soiN8uErI7tbuQDOhjPJtvHqc2e9Lj5MFrFROpzbf3x/G4ZgAwTSnQASgHRvYcRnTKDnBXmHOKSnqo1NaQMbAsyD9BPIdgKuilwpryxcEChWHHr0vAvG7y/PUHxBAE74lQASAL+2DPzyBYFOl0/KcR31kjhTQc8rm4rDFHrp+R7fiD2UHQj857lz/ids7jLlW6jPVIUcztNtt0MVeAoCILALASQAuwDBSxDYkUD1Df8+Lq8bixgXVry4YmCNtmdsKx0N/NKg1sOyfr/IUmzHVd+w/lFLtmDGgABU/UsACYB/2waeJZnAef3HnUPMl1i6QC2smPrre+EnOSzfVj81lBsmRf2Fd4GI5ALiKhvJpeddMO58sYACAiBQDAEkAMVAwS4Q0Ov+QmGEiK3y6CsjzwXJIgAAD+VJREFUeyy0ZSxd7bzyXI/PJDYrP7UUOyQJxbBzB4w/lLAliQCq9TMBJAB+bh34lhQC3QflVWLlvCnryZVFZAwhU/m64B++k7BFRaBSoNwdwv0bEVPuWr+SE+FX+/Z9oVxUleMgEMggAkgAMqixEWp0BLI3Kjnzdw+zMQctNsKOq3qNG1f4e/foHMjwo0bo+yOoSC/NTkRomK0DiI2jCwIVn5dHnVOIPZREEUA9/iaABMDf7QPvEkzg/P7jbibF59qqllnd8+ILZ82zZS9T7Lw88py5Equdf7gkhqSc1/PCvNvkEQUEQGArASQAW0HgAQTO6z+uOzHfY+kCNDFFCyoF19gcxDKqkX5pUPtucmmutfZw1Z3SxudkFMSkBovK/U4ACYDfWwj+JYTA+X1fa+Iwj5Y5YkdErx2byvpgwD0fV/17bz79q4Cg6/aU9lgrYtoeWl9JG486r39eU+9eQRME0ocAEoD0aUtE4pFAnz6vHaAc511RryBipTDx1WOfO+d/VoxlsJExY875lpS63iKC8g7Tm71759WzaBOmiiGAXf4ngATA/20ED+NIoPuAvKqRgPOWVFFbxFJReS+POvs5S8Yy3sxLz3cfTsQvWwRR1w3S5N6936hp0SZMgUDKEXBSzmM4DAKWCPTqNbZiTpj0mf+RlkxqM19lU/aF+gnEHoFsKneJWLM5o3KkGwy/q3/yKXZRrBOAwVQg4KSCk/ARBGwT6N49rzwHy00kplYicoIpNbCxbHRdOmfUqC5rxRKKRQKaqVJuN2mrf0VstVezchtoIu4RYLGhYCqlCCABSKnmgrM2CMjgn12+Io1TRCeKkDVRdMkrowvvZGfDTdjYhcCLz5+zlJQaYK29ttjPdVXF/7QN5Qe3vMRfGwRgIzUIIAFIjXaCl5YIDBgwPKtcJcpjRadYMrnFDNPzL47qMXrLC/yNF4GXRnV/mUiNIoubTPyc3uCHP0ZLYhiwaBamQMD3BJAA+L6J4KAtAvoLfmNBtZdk/riLiJiVr34788lzArT+MjGIkgACAV53qSKea7UNFZ2fU4lfkz6SnYAQ0rwKhJcqBJAApEpLwU8jApdfPimnXGV6VYb8HkaGdlGW6ehfVUR1Hz2638Zd3sLLOBHQrB1WZ4r5n0WsFWnLs3Iq0VuSBJS3ZhSGQMDHBJAA+Lhx4JodAn37vlnt77VrP1Aud1eSAViUDazcLmPH9vjFjqewEi2B0aN7/B5gdbq05XoRsiUOc6fyFXny+ee/VCVaX3DczgTwKnUIIAFInbaCpx4I9Oz5+l4uFUwT1eNFbBaXXHX+i6POXWDTKGxFT0CSgM9Iqb6iIWmd/LVXjg9kZX3Yv39eDXsmYQkE/EcACYD/2gQeWSLQt+/4g5xgeJasFTe0ZHKbGaXoNjnzf3PbDjxJCoGxL/QYL20xOA6VNy2IuHN7XpB3SBxsp7FJhJZKBJAApFJrwdeoCfTql3eCSxEZ/Gm/qJWiPFARDR3zwtn3R3k4DoszAWmLe4j5WfvVqIMcl+f27JvXwb5tWASB5BNAApD8NoAHlgn06ZM3QNZyP5SBurYIWZa3/l2vrrTsMswZEth/vy8vI1L63g6227tagPi93n3/cyNhK5MADkgtAkgAUqu94G0pBAYMeLtCnz7/0T/zG05MWSIy+y8KeoXYgrBLU6pUrnzOuHE9ImIVxUcEQqGQW7VypV7S5vkiVttd7AUU0wN9+/5naCgUwnemj9odrpgRQGc24wdtnxDo1+/VBps2bdAX+50fH5fUEsfJ7vbUU503xcc+rJoS0G0TDhecIXYWiVgvzDTo++8PG4kkoCS02J9qBJAApFqLwV9q2zY/2KvXq83kbP+63r3/87xM+U93XWeZnPY1jh8ebsi8+U+pkyH/8S2DYDDrb+kDx4rEq/STJOB76QNTdN/r2/e1y6UvNtZ9Ml4Vwi4IxIsAEoB4kYVdqwT0P2zp3fvVM3v3fi1vn31W/Ok4St8J7mGl+AIitw0RVxKROhkic9ZgEdd+sLfwzdV9T2YFhkhf/ET65Grpmy/rPtq9e15G3k1QPngoKUYACUCKNVimuduvX17tfn1eu5O5/M+OUm84irorokoiti/2gj3pXOBKXvtBFemb5znSRytWcH/s0+e1wbrvEjYQ8DEBJAA+bpxMdq1Xr7EVCwf+iPuDnGUNVky1cGIrPSKuJ7awb6mP7Sn99U434n7Xt/ert+u+LGTTvCC8VCSABCAVWy3Nfe7X+7VTAyr7Kz3wS6gVRFBAIOUIyGyKLEupu6Qv/1dmBE5KuQDgcNoTQAKQ9k2cOgHqn/H17f3aMDnJfVu8rieCAgLpQKCBzAhM7tP7tWf0P6VKh4B2jQGvU5MAEoDUbLe083pAzxf3KtiwfqqcNQ0UIQiBAVE6MVDyZXvJur//zu/bN29PwgYCPiAgfdIHXsCFjCbQt+8rhxY42fPl275JRoNA8BlAQLVQrjtPlgQOSJ9gEUmqEkACkKotlyZ+9z3v5YOU63xMzPUtXYBFsCOdQ9ZRwMG3HPZ2XJrZ7/y8w8VDFBBIGgEkAElDj4r1tL8KBGTwp7qgAQIZRmBPctx3Lzz3lTqpHjf8T10CSABSt+1S2nN9Y5+wynpT1vobiMjsP0GIwIAokxjs6wbVm/qzQNhAIAkEkAAkATqqJFLh8k/IXH0zEYJgvj5z+wC1cCLlH5IPQYoWuJ3KBJAApHLrpajvF/Z8pYNSPCBF3YfbIGCZAF/Wt9fLnS0bhTkQKJMAEoAyEeEAmwT0XdFcUqOIZaaXxTIkc09+0fZFba8cdp7p3j2vvHwiUqrA2dQmgAQgtdsv5bzP4qzrxen6IiggAALbCexTpVzk2u0v8QwE4k8ACUD8GaOGrQT0P0dRRNeJyOk/QYjAgAgMiAoZyKzYjf2759WglNngaKoTQAKQ6i2YQv6rgsggcbeiiL2i6Gcx9rTMpXYKRPiwzaqg0vMvnasgYGC7D+i+pfsYs+rMTEOl3y0XsVkqqWz3EpsGYQsESiOABKA0OnjPGoGt90DXCYAVmzKL8IsM+hf9szGwn3zRX/78S+dNHvHqeV+++GLv9VYqgBEQ2IWA7lu6j416+Zz3Rr187mUNlu+5nyQC+mLWX3c51PNLVnx59+552Z4NJFARVaU+ASQAqd+GKRHBv3/+1Ukx7SHTnDJui8tmF4BNdLMrHCaD/shx43pExBoKCCScQGhqblgSgec4u8KhROptS327TrVsF/85kLAlggASgERQRh2awNly1l641mn2qJ5qcNBXZ44a1WWtNgoBgWQT0H2xwYFfnuEwPW3Wt6nw88HKPYd8v8HBdCCABCAdWtHnMYTa5gfl7P8UUzdl0mBi/YO+vCoUCrmmtqAPAjYJ6D5Z7+CvriQlMwGmhtk5RZYBAqZmoA8CZRFAAlAWIbxvTOCXeiuOESOVDef+f+Gcf3vqL1qxhQICviOg++YGDveUfv6biPjHHsWtViUQaSjKvi1wLD0IIAFIj3b0dRQuc2tjB5nvGDWqP6b9jUHCQDwJvPxyz3+IOWRahxN0jze1AX0QKIsAEoCyCOF9YwLSyY6QJQDyKrK2+vPfBVmjjR2BARBIAIH6v9YdpVz6xWt/L9RzHR//q+AEQEQVCSEg380JqQeVZDIB5oNNwmdFb+FqfxOC0E0kgdDU3DA5NMGkTiY+yEQfuiAQDQEkANFQwjFmBBTtbWbAec9MH9ogkFgCKqImmdSoiPYx0Y+nLmynDwEkAOnTln6OpIqJcw5HvjHRhy4IJJpAOBg26rNMZPSZSXS8qC81CSABSM12SzWvK5k4HCjI+s1EH7ogkGgC5Tbl/GJYZ2VD/Tipw2w6EUACkE6t6dNYFFOWiOeLAJ8Z12OdT0ODWyBQLAHdZ036vOjmFGsYO0HAIgEkABZhwhQIgAAIpDMBxJZeBJAApFd7IhoQAAEQAAEQiIoAEoCoMOEgMwIs6iYi6iggkHIETPq81vVbwPAn3QggAUi3FvVhPEp8MhFRRwGBlCNg0ue1bsoFDIdTjgASgJRrshR0WJ/MmEgKhgyXQYBM+rzW9RlCuJN+BJAApF+bIiIQAAEQAAEQKJMAEoAyEeEAEAABEMh0Aog/HQkgAUjHVvVZTHo900R8Fg7cAYGoCJj0ea0bVSU4CAQMCCABMIAHVRAAARDIBAKIMT0JIAFIz3b1V1T6giYT8Vc08AYEoiNg0ue1bnS14CgQ8EwACYBndFAEARAAgUwggBjTlQASgHRt2TSK6+KzX2YIGKRaH0ijjyBCSVMCSADStGH9FJYiJggYoA/E1gf88hmGH+lLAAlA+rYtIgMBEAABEACBEgkgASgRDd6wRoDFEoRkIgSCfhB9H5CPTfILPEhnAkgA0rl1ERsIgAAIgAAIlEAACUAJYLDbHgF9UxMIERiAQSx9gHywwYX0JoAEIL3bF9GBAAiAAAiAQLEEkAAUiwU7QQAEQCDTCSD+dCeABCDdW9gP8TGtxQVw0hC4AC76C+DA6h/pMSggEFcCSADiihfGNQFZ9/xZBGvgAgMcCP2AqEwG8sX8EyV5Q/XpT0D6WfoHiQiTS4BJfZhcD1A7CKQWAfnMfJBaHsPbVCSABCAVWy3FfHadyEiZ+42IiOcMwXoI+kDpfSDiED8vkJJYUHUmEEACkAmtnOQYh/2n91JiNSzJbqB6EEgNAqyGPjWu57LUcBZepjIBJACp3Hop5HttlX0NMX0sgokATIKgD5TQB5jURwU11l+X7I826s8MAkgAMqOdkx5laFyPzbVVTmfF9LQiioiUeSEUjiEwIsoUBrJEpoaEq6/vPGLEwALCBgIJIIAEIAGQUcUWAjoJePr1XpczRxrJnsflm32pPK4TQQGBTCSwTn8GJCl+TCnVcOj4nlf6Y/DPxKbIzJiRAGRmuyc16qGv9/3i6fG9rnl6XK+j5LGyiIL0AoPxGcegsv4MPPV6r2ux5p/Ur6SMrRwJQMY2PQIHARAAgd0JYE/mEEACkDltjUhBAARAAARAYBsBJADbUOAJCIAACGQ6AcSfSQSQAGRSayNWEAABEAABENhKAAnAVhB4AAEQAIFMJ4D4M4sAEoDMam9ECwIgAAIgAAKFBJAAFGLAHxAAARDIdAKIP9MIIAHItBZHvCAAAiAAAiAgBJAACAQUEAABEMh0Aog/8wggAci8NkfEIAACIAACIEBIANAJQAAEQCDjCQBAJhJAApCJrY6YQQAEQAAEMp4AEoCM7wIAAAIgkOkEEH9mEkACkJntjqhBAARAAAQynAASgAzvAAgfBEAg0wkg/kwlgAQgU1secYMACIAACGQ0ASQAGd38CB4EQCDTCSD+zCWABCBz2x6RgwAIgAAIZDABJAAZ3PgIHQRAINMJIP5MJoAEIJNbH7GDAAiAAAhkLAEkABnb9AgcBEAg0wkg/swm8H8AAAD//2AUo10AAAAGSURBVAMA06+l2uXRFCIAAAAASUVORK5CYII=;" vertex="1" parent="1">
          <mxGeometry x="-470" y="830" width="24" height="24" as="geometry" />
        </mxCell>
        <mxCell id="g1v90EZW2xBQ1bl9iYu3-16" value="LDAP" style="rounded=1;whiteSpace=wrap;html=1;" vertex="1" parent="1">
          <mxGeometry x="190" y="787.5" width="120" height="35" as="geometry" />
        </mxCell>
        <mxCell id="g1v90EZW2xBQ1bl9iYu3-17" value="REST" style="rounded=1;whiteSpace=wrap;html=1;" vertex="1" parent="1">
          <mxGeometry x="190" y="837.5" width="120" height="30" as="geometry" />
        </mxCell>
        <mxCell id="g1v90EZW2xBQ1bl9iYu3-18" value="SAML" style="rounded=1;whiteSpace=wrap;html=1;" vertex="1" parent="1">
          <mxGeometry x="190" y="887.5" width="120" height="30" as="geometry" />
        </mxCell>
        <mxCell id="g1v90EZW2xBQ1bl9iYu3-19" value="OIDC" style="rounded=1;whiteSpace=wrap;html=1;" vertex="1" parent="1">
          <mxGeometry x="190" y="942.5" width="120" height="30" as="geometry" />
        </mxCell>
        <mxCell id="g1v90EZW2xBQ1bl9iYu3-21" value="Ssitema de Alertas&amp;nbsp;" style="rounded=1;whiteSpace=wrap;html=1;" vertex="1" parent="1">
          <mxGeometry x="1130" y="664" width="120" height="35" as="geometry" />
        </mxCell>
        <mxCell id="g1v90EZW2xBQ1bl9iYu3-22" value="P贸rtico" style="rounded=1;whiteSpace=wrap;html=1;" vertex="1" parent="1">
          <mxGeometry x="1130" y="616" width="120" height="28" as="geometry" />
        </mxCell>
        <mxCell id="g1v90EZW2xBQ1bl9iYu3-23" value="Gesti贸n Clientes" style="rounded=1;whiteSpace=wrap;html=1;" vertex="1" parent="1">
          <mxGeometry x="1130" y="724" width="120" height="30" as="geometry" />
        </mxCell>
        <mxCell id="g1v90EZW2xBQ1bl9iYu3-24" value="Sisviv" style="rounded=1;whiteSpace=wrap;html=1;" vertex="1" parent="1">
          <mxGeometry x="1130" y="779" width="120" height="30" as="geometry" />
        </mxCell>
        <mxCell id="g1v90EZW2xBQ1bl9iYu3-26" value="Framework IAM" style="rounded=1;whiteSpace=wrap;html=1;" vertex="1" parent="1">
          <mxGeometry x="800" y="666.5" width="210" height="70" as="geometry" />
        </mxCell>
        <mxCell id="g1v90EZW2xBQ1bl9iYu3-27" value="Adaptador BUS Tibco" style="rounded=1;whiteSpace=wrap;html=1;" vertex="1" parent="1">
          <mxGeometry x="480" y="666.5" width="210" height="70" as="geometry" />
        </mxCell>
        <mxCell id="g1v90EZW2xBQ1bl9iYu3-28" value="LDAP" style="rounded=1;whiteSpace=wrap;html=1;verticalAlign=top;fontStyle=1" vertex="1" parent="1">
          <mxGeometry x="1090" y="930" width="220" height="325" as="geometry" />
        </mxCell>
        <mxCell id="g1v90EZW2xBQ1bl9iYu3-29" value="WMS Salud" style="rounded=1;whiteSpace=wrap;html=1;" vertex="1" parent="1">
          <mxGeometry x="1140" y="985" width="120" height="28" as="geometry" />
        </mxCell>
        <mxCell id="g1v90EZW2xBQ1bl9iYu3-30" value="WMS Alimentos" style="rounded=1;whiteSpace=wrap;html=1;" vertex="1" parent="1">
          <mxGeometry x="1140" y="1050" width="120" height="28" as="geometry" />
        </mxCell>
        <mxCell id="g1v90EZW2xBQ1bl9iYu3-31" value="SAML" style="rounded=1;whiteSpace=wrap;html=1;verticalAlign=top;fontStyle=1" vertex="1" parent="1">
          <mxGeometry x="1100" y="1330" width="220" height="325" as="geometry" />
        </mxCell>
        <mxCell id="g1v90EZW2xBQ1bl9iYu3-32" value="SMAX" style="rounded=1;whiteSpace=wrap;html=1;" vertex="1" parent="1">
          <mxGeometry x="1150" y="1380" width="120" height="28" as="geometry" />
        </mxCell>
        <mxCell id="g1v90EZW2xBQ1bl9iYu3-33" value="EBX" style="rounded=1;whiteSpace=wrap;html=1;" vertex="1" parent="1">
          <mxGeometry x="1150" y="1440" width="120" height="28" as="geometry" />
        </mxCell>
      </root>
    </mxGraphModel>
  </diagram>
</mxfile>
